<svg width="173" height="39" viewBox="0 0 173 39" fill="none" xmlns="http://www.w3.org/2000/svg">
<path d="M79.4851 0.200195H80.6051V3.6862H80.6611C80.8758 3.41553 81.1464 3.20553 81.4731 3.0562C81.8091 2.90686 82.1731 2.8322 82.5651 2.8322C83.4705 2.8322 84.1471 3.12153 84.5951 3.7002C85.0525 4.27886 85.2811 5.17486 85.2811 6.3882C85.2811 7.61086 84.9825 8.53953 84.3851 9.1742C83.7878 9.80886 82.9478 10.1262 81.8651 10.1262C81.3424 10.1262 80.8665 10.0702 80.4371 9.9582C80.0171 9.8462 79.6998 9.72486 79.4851 9.5942V0.200195ZM82.3691 3.8122C81.9025 3.8122 81.5245 3.94286 81.2351 4.2042C80.9458 4.46553 80.7358 4.8342 80.6051 5.3102V8.8382C80.7824 8.94086 80.9971 9.0202 81.2491 9.0762C81.5011 9.12286 81.7625 9.1462 82.0331 9.1462C82.6678 9.1462 83.1718 8.9222 83.5451 8.4742C83.9278 8.0262 84.1191 7.3262 84.1191 6.3742C84.1191 6.0102 84.0864 5.66953 84.0211 5.3522C83.9558 5.03486 83.8531 4.7642 83.7131 4.5402C83.5731 4.3162 83.3911 4.13886 83.1671 4.0082C82.9524 3.87753 82.6865 3.8122 82.3691 3.8122Z" fill="white"/>
<path d="M91.0396 7.5362L91.4316 8.8802H91.5016L91.8096 7.5222L93.1676 3.0002H94.3016L92.2296 9.2862C92.0709 9.74353 91.9123 10.1869 91.7536 10.6162C91.6043 11.0455 91.4363 11.4282 91.2496 11.7642C91.0629 12.1002 90.8529 12.3662 90.6196 12.5622C90.3863 12.7675 90.1156 12.8702 89.8076 12.8702C89.4716 12.8702 89.1963 12.8235 88.9816 12.7302L89.1776 11.7642C89.2989 11.8109 89.4156 11.8342 89.5276 11.8342C89.7889 11.8342 90.0409 11.6942 90.2836 11.4142C90.5263 11.1435 90.7269 10.6722 90.8856 10.0002L88.0716 3.0002H89.3596L91.0396 7.5362Z" fill="white"/>
<path d="M0.231934 33.1002C0.231934 31.4669 0.57727 30.2162 1.26794 29.3482C1.9586 28.4709 2.94327 28.0322 4.22194 28.0322C4.91261 28.0322 5.50994 28.1535 6.01394 28.3962C6.51794 28.6389 6.93327 28.9842 7.25994 29.4322C7.59594 29.8709 7.84327 30.4029 8.00194 31.0282C8.1606 31.6442 8.23994 32.3349 8.23994 33.1002C8.23994 34.7335 7.88993 35.9889 7.18993 36.8662C6.49927 37.7342 5.50994 38.1682 4.22194 38.1682C3.54061 38.1682 2.94794 38.0469 2.44394 37.8042C1.94927 37.5615 1.53394 37.2209 1.19794 36.7822C0.87127 36.3342 0.628607 35.8022 0.46994 35.1862C0.311273 34.5609 0.231934 33.8655 0.231934 33.1002ZM1.46394 33.1002C1.46394 33.6415 1.51527 34.1549 1.61794 34.6402C1.72994 35.1255 1.89794 35.5549 2.12194 35.9282C2.34594 36.2922 2.6306 36.5862 2.97594 36.8102C3.3306 37.0249 3.74594 37.1322 4.22194 37.1322C5.08994 37.1322 5.77127 36.8055 6.26594 36.1522C6.7606 35.4895 7.00793 34.4722 7.00793 33.1002C7.00793 32.5682 6.95194 32.0595 6.83994 31.5742C6.73727 31.0795 6.56927 30.6502 6.33594 30.2862C6.11194 29.9129 5.8226 29.6189 5.46793 29.4042C5.1226 29.1802 4.70727 29.0682 4.22194 29.0682C3.36327 29.0682 2.68661 29.3995 2.19194 30.0622C1.70661 30.7155 1.46394 31.7282 1.46394 33.1002Z" fill="white"/>
<path d="M14.4871 34.9342L14.8231 36.4182H14.8371L15.2011 34.9062L17.5671 28.2002H18.7291L15.0191 38.1542H14.5011L10.7211 28.2002H11.9951L14.4871 34.9342Z" fill="white"/>
<path d="M21.221 33.1002C21.221 31.4669 21.5663 30.2162 22.257 29.3482C22.9477 28.4709 23.9323 28.0322 25.211 28.0322C25.9017 28.0322 26.499 28.1535 27.003 28.3962C27.507 28.6389 27.9223 28.9842 28.249 29.4322C28.585 29.8709 28.8323 30.4029 28.991 31.0282C29.1497 31.6442 29.229 32.3349 29.229 33.1002C29.229 34.7335 28.879 35.9889 28.179 36.8662C27.4883 37.7342 26.499 38.1682 25.211 38.1682C24.5297 38.1682 23.937 38.0469 23.433 37.8042C22.9383 37.5615 22.523 37.2209 22.187 36.7822C21.8603 36.3342 21.6177 35.8022 21.459 35.1862C21.3003 34.5609 21.221 33.8655 21.221 33.1002ZM22.453 33.1002C22.453 33.6415 22.5043 34.1549 22.607 34.6402C22.719 35.1255 22.887 35.5549 23.111 35.9282C23.335 36.2922 23.6197 36.5862 23.965 36.8102C24.3197 37.0249 24.735 37.1322 25.211 37.1322C26.079 37.1322 26.7603 36.8055 27.255 36.1522C27.7497 35.4895 27.997 34.4722 27.997 33.1002C27.997 32.5682 27.941 32.0595 27.829 31.5742C27.7263 31.0795 27.5583 30.6502 27.325 30.2862C27.101 29.9129 26.8117 29.6189 26.457 29.4042C26.1117 29.1802 25.6963 29.0682 25.211 29.0682C24.3523 29.0682 23.6757 29.3995 23.181 30.0622C22.6957 30.7155 22.453 31.7282 22.453 33.1002Z" fill="white"/>
<path d="M45.0202 29.2362H41.9682V38.0002H40.8062V29.2362H37.7542V28.2002H45.0202V29.2362Z" fill="white"/>
<path d="M48.5579 28.2982C48.9125 28.2329 49.3185 28.1815 49.7759 28.1442C50.2425 28.1069 50.6672 28.0882 51.0499 28.0882C51.4792 28.0882 51.8852 28.1349 52.2679 28.2282C52.6599 28.3215 53.0005 28.4755 53.2899 28.6902C53.5885 28.9049 53.8265 29.1849 54.0039 29.5302C54.1812 29.8755 54.2699 30.2955 54.2699 30.7902C54.2699 31.5555 54.0599 32.1762 53.6399 32.6522C53.2199 33.1282 52.6879 33.4455 52.0439 33.6042L52.7159 34.1222L55.1519 38.0002H53.7939L51.0919 33.7722L49.7199 33.5622V38.0002H48.5579V28.2982ZM51.0779 29.0962C50.9565 29.0962 50.8305 29.0962 50.6999 29.0962C50.5692 29.0962 50.4432 29.1009 50.3219 29.1102C50.2005 29.1195 50.0839 29.1289 49.9719 29.1382C49.8692 29.1475 49.7852 29.1615 49.7199 29.1802V32.7922H50.8119C51.4559 32.7922 51.9879 32.6335 52.4079 32.3162C52.8279 31.9989 53.0379 31.5042 53.0379 30.8322C53.0379 30.3282 52.8652 29.9129 52.5199 29.5862C52.1745 29.2595 51.6939 29.0962 51.0779 29.0962Z" fill="white"/>
<path d="M59.25 28.2002H60.412V38.0002H59.25V28.2002Z" fill="white"/>
<path d="M72.6902 31.4202L72.8302 29.9502H72.7603L72.2282 31.2942L69.6803 35.7182H69.3302L66.6283 31.2802L66.1243 29.9502H66.0542L66.2502 31.4062V38.0002H65.1582V28.2002H66.0262L69.0922 33.2122L69.5542 34.3042H69.5822L70.0163 33.1842L72.9422 28.2002H73.8522V38.0002H72.6902V31.4202Z" fill="white"/>
<path d="M85.8645 31.4202L86.0045 29.9502H85.9345L85.4025 31.2942L82.8545 35.7182H82.5045L79.8025 31.2802L79.2985 29.9502H79.2285L79.4245 31.4062V38.0002H78.3325V28.2002H79.2005L82.2665 33.2122L82.7285 34.3042H82.7565L83.1905 33.1842L86.1165 28.2002H87.0265V38.0002H85.8645V31.4202Z" fill="white"/>
<path d="M91.7727 28.2002H92.9347V38.0002H91.7727V28.2002Z" fill="white"/>
<path d="M99.4449 31.5882L98.6889 30.1742H98.6329L98.7729 31.5882V38.0002H97.6809V28.0462H98.2969L102.987 34.5842L103.715 35.9282H103.785L103.631 34.5842V28.2002H104.723V38.1542H104.107L99.4449 31.5882Z" fill="white"/>
<path d="M112.505 33.1142H115.795V37.4262C115.645 37.5382 115.463 37.6409 115.249 37.7342C115.043 37.8275 114.819 37.9069 114.577 37.9722C114.343 38.0375 114.096 38.0842 113.835 38.1122C113.583 38.1495 113.335 38.1682 113.093 38.1682C112.467 38.1682 111.893 38.0702 111.371 37.8742C110.848 37.6689 110.395 37.3609 110.013 36.9502C109.63 36.5302 109.331 36.0029 109.117 35.3682C108.902 34.7242 108.795 33.9682 108.795 33.1002C108.795 32.1949 108.925 31.4202 109.187 30.7762C109.448 30.1322 109.789 29.6095 110.209 29.2082C110.629 28.7975 111.1 28.4989 111.623 28.3122C112.145 28.1255 112.668 28.0322 113.191 28.0322C113.751 28.0322 114.213 28.0649 114.577 28.1302C114.941 28.1862 115.249 28.2655 115.501 28.3682L115.207 29.3902C114.759 29.1755 114.119 29.0682 113.289 29.0682C112.897 29.0682 112.505 29.1382 112.113 29.2782C111.73 29.4089 111.385 29.6329 111.077 29.9502C110.769 30.2675 110.517 30.6829 110.321 31.1962C110.125 31.7095 110.027 32.3442 110.027 33.1002C110.027 33.7909 110.106 34.3882 110.265 34.8922C110.423 35.3962 110.643 35.8162 110.923 36.1522C111.212 36.4789 111.557 36.7262 111.959 36.8942C112.36 37.0529 112.799 37.1322 113.275 37.1322C113.872 37.1322 114.381 37.0155 114.801 36.7822V34.0522L112.505 33.7722V33.1142Z" fill="white"/>
<path d="M131.596 29.2362H128.544V38.0002H127.382V29.2362H124.33V28.2002H131.596V29.2362Z" fill="white"/>
<path d="M134.058 33.1002C134.058 31.4669 134.403 30.2162 135.094 29.3482C135.784 28.4709 136.769 28.0322 138.048 28.0322C138.738 28.0322 139.336 28.1535 139.84 28.3962C140.344 28.6389 140.759 28.9842 141.086 29.4322C141.422 29.8709 141.669 30.4029 141.828 31.0282C141.986 31.6442 142.066 32.3349 142.066 33.1002C142.066 34.7335 141.716 35.9889 141.016 36.8662C140.325 37.7342 139.336 38.1682 138.048 38.1682C137.366 38.1682 136.774 38.0469 136.27 37.8042C135.775 37.5615 135.36 37.2209 135.024 36.7822C134.697 36.3342 134.454 35.8022 134.296 35.1862C134.137 34.5609 134.058 33.8655 134.058 33.1002ZM135.29 33.1002C135.29 33.6415 135.341 34.1549 135.444 34.6402C135.556 35.1255 135.724 35.5549 135.948 35.9282C136.172 36.2922 136.456 36.5862 136.802 36.8102C137.156 37.0249 137.572 37.1322 138.048 37.1322C138.916 37.1322 139.597 36.8055 140.092 36.1522C140.586 35.4895 140.834 34.4722 140.834 33.1002C140.834 32.5682 140.778 32.0595 140.666 31.5742C140.563 31.0795 140.395 30.6502 140.162 30.2862C139.938 29.9129 139.648 29.6189 139.294 29.4042C138.948 29.1802 138.533 29.0682 138.048 29.0682C137.189 29.0682 136.512 29.3995 136.018 30.0622C135.532 30.7155 135.29 31.7282 135.29 33.1002Z" fill="white"/>
<path d="M145.728 33.1002C145.728 31.4669 146.073 30.2162 146.764 29.3482C147.455 28.4709 148.439 28.0322 149.718 28.0322C150.409 28.0322 151.006 28.1535 151.51 28.3962C152.014 28.6389 152.429 28.9842 152.756 29.4322C153.092 29.8709 153.339 30.4029 153.498 31.0282C153.657 31.6442 153.736 32.3349 153.736 33.1002C153.736 34.7335 153.386 35.9889 152.686 36.8662C151.995 37.7342 151.006 38.1682 149.718 38.1682C149.037 38.1682 148.444 38.0469 147.94 37.8042C147.445 37.5615 147.03 37.2209 146.694 36.7822C146.367 36.3342 146.125 35.8022 145.966 35.1862C145.807 34.5609 145.728 33.8655 145.728 33.1002ZM146.96 33.1002C146.96 33.6415 147.011 34.1549 147.114 34.6402C147.226 35.1255 147.394 35.5549 147.618 35.9282C147.842 36.2922 148.127 36.5862 148.472 36.8102C148.827 37.0249 149.242 37.1322 149.718 37.1322C150.586 37.1322 151.267 36.8055 151.762 36.1522C152.257 35.4895 152.504 34.4722 152.504 33.1002C152.504 32.5682 152.448 32.0595 152.336 31.5742C152.233 31.0795 152.065 30.6502 151.832 30.2862C151.608 29.9129 151.319 29.6189 150.964 29.4042C150.619 29.1802 150.203 29.0682 149.718 29.0682C148.859 29.0682 148.183 29.3995 147.688 30.0622C147.203 30.7155 146.96 31.7282 146.96 33.1002Z" fill="white"/>
<path d="M163.6 38.0002H157.804V28.2002H158.966V36.9642H163.6V38.0002Z" fill="white"/>
<path d="M171.561 35.5082C171.561 35.1162 171.444 34.7989 171.211 34.5562C170.977 34.3042 170.683 34.0849 170.329 33.8982C169.983 33.7022 169.605 33.5202 169.195 33.3522C168.784 33.1842 168.401 32.9835 168.047 32.7502C167.701 32.5075 167.412 32.2135 167.179 31.8682C166.945 31.5135 166.829 31.0655 166.829 30.5242C166.829 29.7589 167.095 29.1522 167.627 28.7042C168.159 28.2562 168.915 28.0322 169.895 28.0322C170.464 28.0322 170.982 28.0742 171.449 28.1582C171.915 28.2422 172.279 28.3495 172.541 28.4802L172.191 29.5022C171.976 29.3995 171.659 29.3015 171.239 29.2082C170.828 29.1149 170.361 29.0682 169.839 29.0682C169.223 29.0682 168.761 29.2082 168.453 29.4882C168.145 29.7589 167.991 30.0809 167.991 30.4542C167.991 30.8182 168.107 31.1215 168.341 31.3642C168.574 31.6069 168.863 31.8262 169.209 32.0222C169.563 32.2089 169.946 32.3955 170.357 32.5822C170.767 32.7689 171.145 32.9882 171.491 33.2402C171.845 33.4829 172.139 33.7769 172.373 34.1222C172.606 34.4675 172.723 34.8969 172.723 35.4102C172.723 35.8302 172.648 36.2082 172.499 36.5442C172.349 36.8802 172.13 37.1695 171.841 37.4122C171.551 37.6549 171.201 37.8415 170.791 37.9722C170.38 38.1029 169.913 38.1682 169.391 38.1682C168.691 38.1682 168.112 38.1122 167.655 38.0002C167.197 37.8975 166.843 37.7809 166.591 37.6502L166.983 36.6002C167.197 36.7215 167.515 36.8429 167.935 36.9642C168.355 37.0762 168.826 37.1322 169.349 37.1322C169.657 37.1322 169.946 37.1042 170.217 37.0482C170.487 36.9829 170.721 36.8849 170.917 36.7542C171.113 36.6142 171.267 36.4415 171.379 36.2362C171.5 36.0309 171.561 35.7882 171.561 35.5082Z" fill="white"/>
</svg>
