<svg width="173" height="39" viewBox="0 0 173 39" fill="none" xmlns="http://www.w3.org/2000/svg">
<path d="M80.4852 0.199999H81.6052V3.686H81.6612C81.8759 3.41533 82.1466 3.20533 82.4732 3.056C82.8092 2.90667 83.1732 2.832 83.5652 2.832C84.4706 2.832 85.1472 3.12133 85.5952 3.7C86.0526 4.27867 86.2812 5.17467 86.2812 6.388C86.2812 7.61067 85.9826 8.53933 85.3852 9.174C84.7879 9.80867 83.9479 10.126 82.8652 10.126C82.3426 10.126 81.8666 10.07 81.4372 9.958C81.0172 9.846 80.6999 9.72467 80.4852 9.594V0.199999ZM83.3692 3.812C82.9026 3.812 82.5246 3.94267 82.2352 4.204C81.9459 4.46533 81.7359 4.834 81.6052 5.31V8.838C81.7826 8.94067 81.9972 9.02 82.2492 9.076C82.5012 9.12267 82.7626 9.146 83.0332 9.146C83.6679 9.146 84.1719 8.922 84.5452 8.474C84.9279 8.026 85.1192 7.326 85.1192 6.374C85.1192 6.01 85.0866 5.66933 85.0212 5.352C84.9559 5.03467 84.8532 4.764 84.7132 4.54C84.5732 4.316 84.3912 4.13867 84.1672 4.008C83.9526 3.87733 83.6866 3.812 83.3692 3.812ZM89.9397 7.536L90.3317 8.88H90.4017L90.7097 7.522L92.0677 3H93.2017L91.1297 9.286C90.971 9.74333 90.8124 10.1867 90.6537 10.616C90.5044 11.0453 90.3364 11.428 90.1497 11.764C89.963 12.1 89.753 12.366 89.5197 12.562C89.2864 12.7673 89.0157 12.87 88.7077 12.87C88.3717 12.87 88.0964 12.8233 87.8817 12.73L88.0777 11.764C88.199 11.8107 88.3157 11.834 88.4277 11.834C88.689 11.834 88.941 11.694 89.1837 11.414C89.4264 11.1433 89.627 10.672 89.7857 10L86.9717 3H88.2597L89.9397 7.536ZM0.182048 33.1C0.182048 31.4667 0.527382 30.216 1.21805 29.348C1.90872 28.4707 2.89338 28.032 4.17205 28.032C4.86272 28.032 5.46005 28.1533 5.96405 28.396C6.46805 28.6387 6.88338 28.984 7.21005 29.432C7.54605 29.8707 7.79338 30.4027 7.95205 31.028C8.11072 31.644 8.19005 32.3347 8.19005 33.1C8.19005 34.7333 7.84005 35.9887 7.14005 36.866C6.44938 37.734 5.46005 38.168 4.17205 38.168C3.49072 38.168 2.89805 38.0467 2.39405 37.804C1.89938 37.5613 1.48405 37.2207 1.14805 36.782C0.821382 36.334 0.578715 35.802 0.420048 35.186C0.261382 34.5607 0.182048 33.8653 0.182048 33.1ZM1.41405 33.1C1.41405 33.6413 1.46538 34.1547 1.56805 34.64C1.68005 35.1253 1.84805 35.5547 2.07205 35.928C2.29605 36.292 2.58072 36.586 2.92605 36.81C3.28072 37.0247 3.69605 37.132 4.17205 37.132C5.04005 37.132 5.72138 36.8053 6.21605 36.152C6.71072 35.4893 6.95805 34.472 6.95805 33.1C6.95805 32.568 6.90205 32.0593 6.79005 31.574C6.68738 31.0793 6.51938 30.65 6.28605 30.286C6.06205 29.9127 5.77272 29.6187 5.41805 29.404C5.07272 29.18 4.65738 29.068 4.17205 29.068C3.31338 29.068 2.63672 29.3993 2.14205 30.062C1.65672 30.7153 1.41405 31.728 1.41405 33.1ZM14.4372 34.934L14.7732 36.418H14.7872L15.1512 34.906L17.5172 28.2H18.6792L14.9692 38.154H14.4512L10.6712 28.2H11.9452L14.4372 34.934ZM21.1711 33.1C21.1711 31.4667 21.5164 30.216 22.2071 29.348C22.8978 28.4707 23.8824 28.032 25.1611 28.032C25.8518 28.032 26.4491 28.1533 26.9531 28.396C27.4571 28.6387 27.8724 28.984 28.1991 29.432C28.5351 29.8707 28.7824 30.4027 28.9411 31.028C29.0998 31.644 29.1791 32.3347 29.1791 33.1C29.1791 34.7333 28.8291 35.9887 28.1291 36.866C27.4384 37.734 26.4491 38.168 25.1611 38.168C24.4798 38.168 23.8871 38.0467 23.3831 37.804C22.8884 37.5613 22.4731 37.2207 22.1371 36.782C21.8104 36.334 21.5678 35.802 21.4091 35.186C21.2504 34.5607 21.1711 33.8653 21.1711 33.1ZM22.4031 33.1C22.4031 33.6413 22.4544 34.1547 22.5571 34.64C22.6691 35.1253 22.8371 35.5547 23.0611 35.928C23.2851 36.292 23.5698 36.586 23.9151 36.81C24.2698 37.0247 24.6851 37.132 25.1611 37.132C26.0291 37.132 26.7104 36.8053 27.2051 36.152C27.6998 35.4893 27.9471 34.472 27.9471 33.1C27.9471 32.568 27.8911 32.0593 27.7791 31.574C27.6764 31.0793 27.5084 30.65 27.2751 30.286C27.0511 29.9127 26.7618 29.6187 26.4071 29.404C26.0618 29.18 25.6464 29.068 25.1611 29.068C24.3024 29.068 23.6258 29.3993 23.1311 30.062C22.6458 30.7153 22.4031 31.728 22.4031 33.1ZM44.9703 29.236H41.9183V38H40.7563V29.236H37.7043V28.2H44.9703V29.236ZM48.508 28.298C48.8626 28.2327 49.2686 28.1813 49.726 28.144C50.1926 28.1067 50.6173 28.088 51 28.088C51.4293 28.088 51.8353 28.1347 52.218 28.228C52.61 28.3213 52.9506 28.4753 53.24 28.69C53.5386 28.9047 53.7766 29.1847 53.954 29.53C54.1313 29.8753 54.22 30.2953 54.22 30.79C54.22 31.5553 54.01 32.176 53.59 32.652C53.17 33.128 52.638 33.4453 51.994 33.604L52.666 34.122L55.102 38H53.744L51.042 33.772L49.67 33.562V38H48.508V28.298ZM51.028 29.096C50.9066 29.096 50.7806 29.096 50.65 29.096C50.5193 29.096 50.3933 29.1007 50.272 29.11C50.1506 29.1193 50.034 29.1287 49.922 29.138C49.8193 29.1473 49.7353 29.1613 49.67 29.18V32.792H50.762C51.406 32.792 51.938 32.6333 52.358 32.316C52.778 31.9987 52.988 31.504 52.988 30.832C52.988 30.328 52.8153 29.9127 52.47 29.586C52.1246 29.2593 51.644 29.096 51.028 29.096ZM59.2001 28.2H60.3621V38H59.2001V28.2ZM72.6404 31.42L72.7804 29.95H72.7104L72.1784 31.294L69.6304 35.718H69.2804L66.5784 31.28L66.0744 29.95H66.0044L66.2004 31.406V38H65.1084V28.2H65.9764L69.0424 33.212L69.5044 34.304H69.5324L69.9664 33.184L72.8924 28.2H73.8024V38H72.6404V31.42ZM85.8146 31.42L85.9546 29.95H85.8846L85.3526 31.294L82.8046 35.718H82.4546L79.7526 31.28L79.2486 29.95H79.1786L79.3746 31.406V38H78.2826V28.2H79.1506L82.2166 33.212L82.6786 34.304H82.7066L83.1406 33.184L86.0666 28.2H86.9766V38H85.8146V31.42ZM91.7228 28.2H92.8848V38H91.7228V28.2ZM99.395 31.588L98.639 30.174H98.583L98.723 31.588V38H97.631V28.046H98.247L102.937 34.584L103.665 35.928H103.735L103.581 34.584V28.2H104.673V38.154H104.057L99.395 31.588ZM112.455 33.114H115.745V37.426C115.596 37.538 115.414 37.6407 115.199 37.734C114.994 37.8273 114.77 37.9067 114.527 37.972C114.294 38.0373 114.046 38.084 113.785 38.112C113.533 38.1493 113.286 38.168 113.043 38.168C112.418 38.168 111.844 38.07 111.321 37.874C110.798 37.6687 110.346 37.3607 109.963 36.95C109.58 36.53 109.282 36.0027 109.067 35.368C108.852 34.724 108.745 33.968 108.745 33.1C108.745 32.1947 108.876 31.42 109.137 30.776C109.398 30.132 109.739 29.6093 110.159 29.208C110.579 28.7973 111.05 28.4987 111.573 28.312C112.096 28.1253 112.618 28.032 113.141 28.032C113.701 28.032 114.163 28.0647 114.527 28.13C114.891 28.186 115.199 28.2653 115.451 28.368L115.157 29.39C114.709 29.1753 114.07 29.068 113.239 29.068C112.847 29.068 112.455 29.138 112.063 29.278C111.68 29.4087 111.335 29.6327 111.027 29.95C110.719 30.2673 110.467 30.6827 110.271 31.196C110.075 31.7093 109.977 32.344 109.977 33.1C109.977 33.7907 110.056 34.388 110.215 34.892C110.374 35.396 110.593 35.816 110.873 36.152C111.162 36.4787 111.508 36.726 111.909 36.894C112.31 37.0527 112.749 37.132 113.225 37.132C113.822 37.132 114.331 37.0153 114.751 36.782V34.052L112.455 33.772V33.114ZM131.546 29.236H128.494V38H127.332V29.236H124.28V28.2H131.546V29.236ZM134.008 33.1C134.008 31.4667 134.353 30.216 135.044 29.348C135.734 28.4707 136.719 28.032 137.998 28.032C138.688 28.032 139.286 28.1533 139.79 28.396C140.294 28.6387 140.709 28.984 141.036 29.432C141.372 29.8707 141.619 30.4027 141.778 31.028C141.936 31.644 142.016 32.3347 142.016 33.1C142.016 34.7333 141.666 35.9887 140.966 36.866C140.275 37.734 139.286 38.168 137.998 38.168C137.316 38.168 136.724 38.0467 136.22 37.804C135.725 37.5613 135.31 37.2207 134.974 36.782C134.647 36.334 134.404 35.802 134.246 35.186C134.087 34.5607 134.008 33.8653 134.008 33.1ZM135.24 33.1C135.24 33.6413 135.291 34.1547 135.394 34.64C135.506 35.1253 135.674 35.5547 135.898 35.928C136.122 36.292 136.406 36.586 136.752 36.81C137.106 37.0247 137.522 37.132 137.998 37.132C138.866 37.132 139.547 36.8053 140.042 36.152C140.536 35.4893 140.784 34.472 140.784 33.1C140.784 32.568 140.728 32.0593 140.616 31.574C140.513 31.0793 140.345 30.65 140.112 30.286C139.888 29.9127 139.598 29.6187 139.244 29.404C138.898 29.18 138.483 29.068 137.998 29.068C137.139 29.068 136.462 29.3993 135.968 30.062C135.482 30.7153 135.24 31.728 135.24 33.1ZM145.678 33.1C145.678 31.4667 146.023 30.216 146.714 29.348C147.405 28.4707 148.389 28.032 149.668 28.032C150.359 28.032 150.956 28.1533 151.46 28.396C151.964 28.6387 152.379 28.984 152.706 29.432C153.042 29.8707 153.289 30.4027 153.448 31.028C153.607 31.644 153.686 32.3347 153.686 33.1C153.686 34.7333 153.336 35.9887 152.636 36.866C151.945 37.734 150.956 38.168 149.668 38.168C148.987 38.168 148.394 38.0467 147.89 37.804C147.395 37.5613 146.98 37.2207 146.644 36.782C146.317 36.334 146.075 35.802 145.916 35.186C145.757 34.5607 145.678 33.8653 145.678 33.1ZM146.91 33.1C146.91 33.6413 146.961 34.1547 147.064 34.64C147.176 35.1253 147.344 35.5547 147.568 35.928C147.792 36.292 148.077 36.586 148.422 36.81C148.777 37.0247 149.192 37.132 149.668 37.132C150.536 37.132 151.217 36.8053 151.712 36.152C152.207 35.4893 152.454 34.472 152.454 33.1C152.454 32.568 152.398 32.0593 152.286 31.574C152.183 31.0793 152.015 30.65 151.782 30.286C151.558 29.9127 151.269 29.6187 150.914 29.404C150.569 29.18 150.153 29.068 149.668 29.068C148.809 29.068 148.133 29.3993 147.638 30.062C147.153 30.7153 146.91 31.728 146.91 33.1ZM163.55 38H157.754V28.2H158.916V36.964H163.55V38ZM171.511 35.508C171.511 35.116 171.394 34.7987 171.161 34.556C170.928 34.304 170.634 34.0847 170.279 33.898C169.934 33.702 169.556 33.52 169.145 33.352C168.734 33.184 168.352 32.9833 167.997 32.75C167.652 32.5073 167.362 32.2133 167.129 31.868C166.896 31.5133 166.779 31.0653 166.779 30.524C166.779 29.7587 167.045 29.152 167.577 28.704C168.109 28.256 168.865 28.032 169.845 28.032C170.414 28.032 170.932 28.074 171.399 28.158C171.866 28.242 172.23 28.3493 172.491 28.48L172.141 29.502C171.926 29.3993 171.609 29.3013 171.189 29.208C170.778 29.1147 170.312 29.068 169.789 29.068C169.173 29.068 168.711 29.208 168.403 29.488C168.095 29.7587 167.941 30.0807 167.941 30.454C167.941 30.818 168.058 31.1213 168.291 31.364C168.524 31.6067 168.814 31.826 169.159 32.022C169.514 32.2087 169.896 32.3953 170.307 32.582C170.718 32.7687 171.096 32.988 171.441 33.24C171.796 33.4827 172.09 33.7767 172.323 34.122C172.556 34.4673 172.673 34.8967 172.673 35.41C172.673 35.83 172.598 36.208 172.449 36.544C172.3 36.88 172.08 37.1693 171.791 37.412C171.502 37.6547 171.152 37.8413 170.741 37.972C170.33 38.1027 169.864 38.168 169.341 38.168C168.641 38.168 168.062 38.112 167.605 38C167.148 37.8973 166.793 37.7807 166.541 37.65L166.933 36.6C167.148 36.7213 167.465 36.8427 167.885 36.964C168.305 37.076 168.776 37.132 169.299 37.132C169.607 37.132 169.896 37.104 170.167 37.048C170.438 36.9827 170.671 36.8847 170.867 36.754C171.063 36.614 171.217 36.4413 171.329 36.236C171.45 36.0307 171.511 35.788 171.511 35.508Z" fill="#007AFF"/>
</svg>
