<svg width="86" height="27" viewBox="0 0 86 27" fill="none" xmlns="http://www.w3.org/2000/svg">
<path d="M7.59711 26.36C6.30111 26.36 5.11311 26.036 4.03311 25.388C2.97711 24.716 2.12511 23.84 1.47711 22.76C0.853109 21.656 0.541109 20.444 0.541109 19.124V17.468C0.541109 17.348 0.601109 17.288 0.721109 17.288H4.75311C4.84911 17.288 4.89711 17.348 4.89711 17.468V19.124C4.89711 19.916 5.16111 20.6 5.68911 21.176C6.21711 21.728 6.85311 22.004 7.59711 22.004C8.34111 22.004 8.97711 21.716 9.50511 21.14C10.0331 20.564 10.2971 19.892 10.2971 19.124C10.2971 18.236 9.72111 17.468 8.56911 16.82C8.18511 16.604 7.58511 16.268 6.76911 15.812C5.95311 15.356 5.18511 14.924 4.46511 14.516C3.14511 13.748 2.16111 12.788 1.51311 11.636C0.889109 10.46 0.577109 9.14 0.577109 7.676C0.577109 6.332 0.901109 5.132 1.54911 4.076C2.19711 2.996 3.04911 2.144 4.10511 1.52C5.18511 0.895999 6.34911 0.583999 7.59711 0.583999C8.86911 0.583999 10.0331 0.907999 11.0891 1.556C12.1691 2.18 13.0211 3.032 13.6451 4.112C14.2931 5.168 14.6171 6.356 14.6171 7.676V10.628C14.6171 10.724 14.5691 10.772 14.4731 10.772H10.4411C10.3451 10.772 10.2971 10.724 10.2971 10.628L10.2611 7.676C10.2611 6.836 9.99711 6.152 9.46911 5.624C8.94111 5.096 8.31711 4.832 7.59711 4.832C6.85311 4.832 6.21711 5.12 5.68911 5.696C5.16111 6.248 4.89711 6.908 4.89711 7.676C4.89711 8.468 5.06511 9.128 5.40111 9.656C5.73711 10.184 6.34911 10.688 7.23711 11.168C7.35711 11.24 7.58511 11.372 7.92111 11.564C8.28111 11.732 8.66511 11.936 9.07311 12.176C9.48111 12.392 9.84111 12.584 10.1531 12.752C10.4891 12.92 10.6931 13.028 10.7651 13.076C11.9651 13.748 12.9131 14.576 13.6091 15.56C14.3051 16.52 14.6531 17.708 14.6531 19.124C14.6531 20.492 14.3291 21.728 13.6811 22.832C13.0571 23.912 12.2051 24.776 11.1251 25.424C10.0691 26.048 8.89311 26.36 7.59711 26.36ZM19.3008 26C19.2048 26 19.1568 25.94 19.1568 25.82L19.1928 1.088C19.1928 0.991999 19.2408 0.943999 19.3368 0.943999H30.8928C30.9888 0.943999 31.0368 1.004 31.0368 1.124V5.156C31.0368 5.252 30.9888 5.3 30.8928 5.3H23.5128V10.916H30.8928C30.9888 10.916 31.0368 10.964 31.0368 11.06L31.0728 15.128C31.0728 15.224 31.0248 15.272 30.9288 15.272H23.5128V21.572H30.9288C31.0248 21.572 31.0728 21.632 31.0728 21.752V25.856C31.0728 25.952 31.0248 26 30.9288 26H19.3008ZM42.2995 26.36C41.0035 26.36 39.8275 26.036 38.7715 25.388C37.7155 24.74 36.8635 23.876 36.2155 22.796C35.5915 21.692 35.2795 20.468 35.2795 19.124V7.712C35.2795 6.416 35.5915 5.228 36.2155 4.148C36.8635 3.044 37.7155 2.168 38.7715 1.52C39.8515 0.872 41.0275 0.547999 42.2995 0.547999C43.6195 0.547999 44.8075 0.872 45.8635 1.52C46.9435 2.144 47.7955 2.996 48.4195 4.076C49.0435 5.156 49.3555 6.368 49.3555 7.712V9.368C49.3555 9.464 49.2955 9.512 49.1755 9.512H45.1435C45.0475 9.512 44.9995 9.464 44.9995 9.368V8C44.9995 7.088 44.7355 6.332 44.2075 5.732C43.7035 5.132 43.0675 4.832 42.2995 4.832C41.6035 4.832 40.9795 5.12 40.4275 5.696C39.8995 6.272 39.6355 6.944 39.6355 7.712V19.124C39.6355 19.916 39.8995 20.6 40.4275 21.176C40.9555 21.728 41.5795 22.004 42.2995 22.004C43.0675 22.004 43.7035 21.728 44.2075 21.176C44.7355 20.624 44.9995 19.94 44.9995 19.124V17.36H42.4795C42.3595 17.36 42.2995 17.3 42.2995 17.18V13.148C42.2995 13.028 42.3595 12.968 42.4795 12.968H49.2115C49.3075 12.968 49.3555 13.028 49.3555 13.148V19.124C49.3555 20.468 49.0315 21.692 48.3835 22.796C47.7595 23.876 46.9195 24.74 45.8635 25.388C44.8075 26.036 43.6195 26.36 42.2995 26.36ZM54.0625 26C53.9665 26 53.9185 25.94 53.9185 25.82L53.9545 1.088C53.9545 0.991999 54.0025 0.943999 54.0985 0.943999H65.6545C65.7505 0.943999 65.7985 1.004 65.7985 1.124V5.156C65.7985 5.252 65.7505 5.3 65.6545 5.3H58.2745V10.916H65.6545C65.7505 10.916 65.7985 10.964 65.7985 11.06L65.8345 15.128C65.8345 15.224 65.7865 15.272 65.6905 15.272H58.2745V21.572H65.6905C65.7865 21.572 65.8345 21.632 65.8345 21.752V25.856C65.8345 25.952 65.7865 26 65.6905 26H54.0625ZM71.1797 26C71.0837 26 71.0357 25.94 71.0357 25.82L71.1077 1.088C71.1077 0.991999 71.1557 0.943999 71.2517 0.943999H78.5237C79.8197 0.943999 81.0077 1.268 82.0877 1.916C83.1917 2.54 84.0677 3.392 84.7157 4.472C85.3637 5.528 85.6877 6.728 85.6877 8.072C85.6877 8.96 85.5557 9.764 85.2917 10.484C85.0277 11.18 84.7157 11.78 84.3557 12.284C83.9957 12.764 83.6717 13.124 83.3837 13.364C84.6797 14.804 85.3277 16.496 85.3277 18.44L85.3637 25.82C85.3637 25.94 85.3037 26 85.1837 26H81.1157C81.0197 26 80.9717 25.964 80.9717 25.892V18.44C80.9717 17.576 80.6597 16.832 80.0357 16.208C79.4357 15.56 78.6917 15.236 77.8037 15.236H75.4277L75.3917 25.82C75.3917 25.94 75.3437 26 75.2477 26H71.1797ZM75.4277 10.916H78.5237C79.2677 10.916 79.9277 10.64 80.5037 10.088C81.0797 9.536 81.3677 8.864 81.3677 8.072C81.3677 7.304 81.0797 6.644 80.5037 6.092C79.9517 5.54 79.2917 5.264 78.5237 5.264H75.4277V10.916Z" fill="white"/>
</svg>
