<svg width="335" height="256" viewBox="0 0 335 256" fill="none" xmlns="http://www.w3.org/2000/svg">
<path opacity="0.7" d="M1.39289 212.5C1.39289 211.3 1.58622 210.397 1.97289 209.79C2.36622 209.183 2.93622 208.88 3.68289 208.88C4.48956 208.88 5.07289 209.18 5.43289 209.78C5.79956 210.373 5.98289 211.28 5.98289 212.5C5.98289 213.7 5.78622 214.603 5.39289 215.21C5.00622 215.817 4.43622 216.12 3.68289 216.12C2.88956 216.12 2.30956 215.803 1.94289 215.17C1.57622 214.537 1.39289 213.647 1.39289 212.5ZM2.22289 212.5C2.22289 212.933 2.24956 213.33 2.30289 213.69C2.36289 214.043 2.45289 214.35 2.57289 214.61C2.69289 214.863 2.84289 215.063 3.02289 215.21C3.20956 215.35 3.42956 215.42 3.68289 215.42C4.18956 215.42 4.55956 215.187 4.79289 214.72C5.03289 214.247 5.15289 213.507 5.15289 212.5C5.15289 212.073 5.12622 211.68 5.07289 211.32C5.02622 210.96 4.94289 210.65 4.82289 210.39C4.70956 210.13 4.55956 209.93 4.37289 209.79C4.18622 209.65 3.95622 209.58 3.68289 209.58C3.18289 209.58 2.81289 209.817 2.57289 210.29C2.33956 210.763 2.22289 211.5 2.22289 212.5ZM6.90211 215.54C6.90211 215.36 6.95211 215.22 7.05211 215.12C7.15878 215.013 7.29878 214.96 7.47211 214.96C7.65211 214.96 7.79544 215.013 7.90211 215.12C8.00878 215.22 8.06211 215.36 8.06211 215.54C8.06211 215.713 8.00878 215.853 7.90211 215.96C7.79544 216.067 7.65211 216.12 7.47211 216.12C7.29878 216.12 7.15878 216.067 7.05211 215.96C6.95211 215.853 6.90211 215.713 6.90211 215.54ZM9.63078 215.26H11.0308V210.42L11.1308 209.83L10.7308 210.3L9.63078 211.09L9.25078 210.58L11.4508 208.88H11.8108V215.26H13.1808V216H9.63078V215.26Z" fill="white"/>
<path opacity="0.7" d="M41.9224 247.292C41.9224 246.092 42.1157 245.188 42.5024 244.582C42.8957 243.975 43.4657 243.672 44.2124 243.672C45.0191 243.672 45.6024 243.972 45.9624 244.572C46.3291 245.165 46.5124 246.072 46.5124 247.292C46.5124 248.492 46.3157 249.395 45.9224 250.002C45.5357 250.608 44.9657 250.912 44.2124 250.912C43.4191 250.912 42.8391 250.595 42.4724 249.962C42.1057 249.328 41.9224 248.438 41.9224 247.292ZM42.7524 247.292C42.7524 247.725 42.7791 248.122 42.8324 248.482C42.8924 248.835 42.9824 249.142 43.1024 249.402C43.2224 249.655 43.3724 249.855 43.5524 250.002C43.7391 250.142 43.9591 250.212 44.2124 250.212C44.7191 250.212 45.0891 249.978 45.3224 249.512C45.5624 249.038 45.6824 248.298 45.6824 247.292C45.6824 246.865 45.6557 246.472 45.6024 246.112C45.5557 245.752 45.4724 245.442 45.3524 245.182C45.2391 244.922 45.0891 244.722 44.9024 244.582C44.7157 244.442 44.4857 244.372 44.2124 244.372C43.7124 244.372 43.3424 244.608 43.1024 245.082C42.8691 245.555 42.7524 246.292 42.7524 247.292ZM47.4316 250.332C47.4316 250.152 47.4816 250.012 47.5816 249.912C47.6883 249.805 47.8283 249.752 48.0016 249.752C48.1816 249.752 48.3249 249.805 48.4316 249.912C48.5383 250.012 48.5916 250.152 48.5916 250.332C48.5916 250.505 48.5383 250.645 48.4316 250.752C48.3249 250.858 48.1816 250.912 48.0016 250.912C47.8283 250.912 47.6883 250.858 47.5816 250.752C47.4816 250.645 47.4316 250.505 47.4316 250.332ZM54.0003 248.682C54.0003 248.988 53.9536 249.278 53.8603 249.552C53.7669 249.818 53.6303 250.055 53.4503 250.262C53.2703 250.462 53.0469 250.622 52.7803 250.742C52.5136 250.855 52.2103 250.912 51.8703 250.912C51.5369 250.912 51.2369 250.858 50.9703 250.752C50.7036 250.645 50.4736 250.488 50.2803 250.282C50.0869 250.068 49.9369 249.808 49.8303 249.502C49.7303 249.195 49.6803 248.842 49.6803 248.442C49.6803 247.782 49.7636 247.175 49.9303 246.622C50.1036 246.062 50.3403 245.575 50.6403 245.162C50.9403 244.748 51.2936 244.415 51.7003 244.162C52.1136 243.902 52.5603 243.738 53.0403 243.672L53.2103 244.312C52.8369 244.378 52.4969 244.505 52.1903 244.692C51.8836 244.878 51.6136 245.108 51.3803 245.382C51.1536 245.655 50.9669 245.962 50.8203 246.302C50.6736 246.642 50.5736 246.992 50.5203 247.352C50.6269 247.172 50.8069 247.008 51.0603 246.862C51.3136 246.708 51.6236 246.632 51.9903 246.632C52.6169 246.632 53.1069 246.812 53.4603 247.172C53.8203 247.532 54.0003 248.035 54.0003 248.682ZM53.1703 248.762C53.1703 248.288 53.0603 247.932 52.8403 247.692C52.6203 247.452 52.2803 247.332 51.8203 247.332C51.4936 247.332 51.2103 247.412 50.9703 247.572C50.7369 247.732 50.5736 247.912 50.4803 248.112C50.4669 248.205 50.4603 248.282 50.4603 248.342C50.4603 248.402 50.4603 248.468 50.4603 248.542C50.4603 248.748 50.4869 248.952 50.5403 249.152C50.6003 249.352 50.6903 249.532 50.8103 249.692C50.9303 249.845 51.0769 249.972 51.2503 250.072C51.4303 250.165 51.6403 250.212 51.8803 250.212C52.0736 250.212 52.2469 250.175 52.4003 250.102C52.5603 250.028 52.6969 249.928 52.8103 249.802C52.9236 249.675 53.0103 249.522 53.0703 249.342C53.1369 249.162 53.1703 248.968 53.1703 248.762Z" fill="white"/>
<path opacity="0.7" d="M123.884 245.382C123.884 245.735 123.817 246.098 123.684 246.472C123.557 246.838 123.387 247.208 123.174 247.582C122.967 247.955 122.734 248.322 122.474 248.682C122.214 249.035 121.954 249.372 121.694 249.692L121.204 250.122V250.162L121.844 250.052H124.024V250.792H120.044V250.502C120.19 250.348 120.367 250.158 120.574 249.932C120.78 249.705 120.994 249.455 121.214 249.182C121.44 248.902 121.66 248.608 121.874 248.302C122.094 247.988 122.29 247.672 122.464 247.352C122.644 247.032 122.787 246.715 122.894 246.402C123 246.088 123.054 245.792 123.054 245.512C123.054 245.185 122.96 244.915 122.774 244.702C122.587 244.482 122.304 244.372 121.924 244.372C121.67 244.372 121.424 244.425 121.184 244.532C120.944 244.632 120.737 244.748 120.564 244.882L120.234 244.312C120.467 244.112 120.744 243.955 121.064 243.842C121.384 243.728 121.727 243.672 122.094 243.672C122.38 243.672 122.634 243.715 122.854 243.802C123.074 243.882 123.26 243.998 123.414 244.152C123.567 244.305 123.684 244.488 123.764 244.702C123.844 244.908 123.884 245.135 123.884 245.382ZM125.363 250.332C125.363 250.152 125.413 250.012 125.513 249.912C125.619 249.805 125.759 249.752 125.933 249.752C126.113 249.752 126.256 249.805 126.363 249.912C126.469 250.012 126.523 250.152 126.523 250.332C126.523 250.505 126.469 250.645 126.363 250.752C126.256 250.858 126.113 250.912 125.933 250.912C125.759 250.912 125.619 250.858 125.513 250.752C125.413 250.645 125.363 250.505 125.363 250.332ZM132.251 248.642H131.071V250.792H130.291V248.642H127.211V248.312L130.531 243.682H131.071V247.942H132.251V248.642ZM130.291 245.762L130.391 244.942H130.361L130.011 245.622L128.601 247.532L128.121 248.022L128.821 247.942H130.291V245.762Z" fill="white"/>
<path opacity="0.7" d="M202.594 248.642H201.414V250.792H200.634V248.642H197.554V248.312L200.874 243.682H201.414V247.942H202.594V248.642ZM200.634 245.762L200.734 244.942H200.704L200.354 245.622L198.944 247.532L198.464 248.022L199.164 247.942H200.634V245.762ZM203.293 250.332C203.293 250.152 203.343 250.012 203.443 249.912C203.55 249.805 203.69 249.752 203.863 249.752C204.043 249.752 204.186 249.805 204.293 249.912C204.4 250.012 204.453 250.152 204.453 250.332C204.453 250.505 204.4 250.645 204.293 250.752C204.186 250.858 204.043 250.912 203.863 250.912C203.69 250.912 203.55 250.858 203.443 250.752C203.343 250.645 203.293 250.505 203.293 250.332ZM209.402 245.382C209.402 245.735 209.335 246.098 209.202 246.472C209.075 246.838 208.905 247.208 208.692 247.582C208.485 247.955 208.252 248.322 207.992 248.682C207.732 249.035 207.472 249.372 207.212 249.692L206.722 250.122V250.162L207.362 250.052H209.542V250.792H205.562V250.502C205.708 250.348 205.885 250.158 206.092 249.932C206.298 249.705 206.512 249.455 206.732 249.182C206.958 248.902 207.178 248.608 207.392 248.302C207.612 247.988 207.808 247.672 207.982 247.352C208.162 247.032 208.305 246.715 208.412 246.402C208.518 246.088 208.572 245.792 208.572 245.512C208.572 245.185 208.478 244.915 208.292 244.702C208.105 244.482 207.822 244.372 207.442 244.372C207.188 244.372 206.942 244.425 206.702 244.532C206.462 244.632 206.255 244.748 206.082 244.882L205.752 244.312C205.985 244.112 206.262 243.955 206.582 243.842C206.902 243.728 207.245 243.672 207.612 243.672C207.898 243.672 208.152 243.715 208.372 243.802C208.592 243.882 208.778 243.998 208.932 244.152C209.085 244.305 209.202 244.488 209.282 244.702C209.362 244.908 209.402 245.135 209.402 245.382Z" fill="white"/>
<path opacity="0.7" d="M280.204 248.682C280.204 248.988 280.158 249.278 280.064 249.552C279.971 249.818 279.834 250.055 279.654 250.262C279.474 250.462 279.251 250.622 278.984 250.742C278.718 250.855 278.414 250.912 278.074 250.912C277.741 250.912 277.441 250.858 277.174 250.752C276.908 250.645 276.678 250.488 276.484 250.282C276.291 250.068 276.141 249.808 276.034 249.502C275.934 249.195 275.884 248.842 275.884 248.442C275.884 247.782 275.968 247.175 276.134 246.622C276.308 246.062 276.544 245.575 276.844 245.162C277.144 244.748 277.498 244.415 277.904 244.162C278.318 243.902 278.764 243.738 279.244 243.672L279.414 244.312C279.041 244.378 278.701 244.505 278.394 244.692C278.088 244.878 277.818 245.108 277.584 245.382C277.358 245.655 277.171 245.962 277.024 246.302C276.878 246.642 276.778 246.992 276.724 247.352C276.831 247.172 277.011 247.008 277.264 246.862C277.518 246.708 277.828 246.632 278.194 246.632C278.821 246.632 279.311 246.812 279.664 247.172C280.024 247.532 280.204 248.035 280.204 248.682ZM279.374 248.762C279.374 248.288 279.264 247.932 279.044 247.692C278.824 247.452 278.484 247.332 278.024 247.332C277.698 247.332 277.414 247.412 277.174 247.572C276.941 247.732 276.778 247.912 276.684 248.112C276.671 248.205 276.664 248.282 276.664 248.342C276.664 248.402 276.664 248.468 276.664 248.542C276.664 248.748 276.691 248.952 276.744 249.152C276.804 249.352 276.894 249.532 277.014 249.692C277.134 249.845 277.281 249.972 277.454 250.072C277.634 250.165 277.844 250.212 278.084 250.212C278.278 250.212 278.451 250.175 278.604 250.102C278.764 250.028 278.901 249.928 279.014 249.802C279.128 249.675 279.214 249.522 279.274 249.342C279.341 249.162 279.374 248.968 279.374 248.762ZM281.224 250.332C281.224 250.152 281.274 250.012 281.374 249.912C281.48 249.805 281.62 249.752 281.794 249.752C281.974 249.752 282.117 249.805 282.224 249.912C282.33 250.012 282.384 250.152 282.384 250.332C282.384 250.505 282.33 250.645 282.224 250.752C282.117 250.858 281.974 250.912 281.794 250.912C281.62 250.912 281.48 250.858 281.374 250.752C281.274 250.645 281.224 250.505 281.224 250.332ZM283.302 247.292C283.302 246.092 283.496 245.188 283.882 244.582C284.276 243.975 284.846 243.672 285.592 243.672C286.399 243.672 286.982 243.972 287.342 244.572C287.709 245.165 287.892 246.072 287.892 247.292C287.892 248.492 287.696 249.395 287.302 250.002C286.916 250.608 286.346 250.912 285.592 250.912C284.799 250.912 284.219 250.595 283.852 249.962C283.486 249.328 283.302 248.438 283.302 247.292ZM284.132 247.292C284.132 247.725 284.159 248.122 284.212 248.482C284.272 248.835 284.362 249.142 284.482 249.402C284.602 249.655 284.752 249.855 284.932 250.002C285.119 250.142 285.339 250.212 285.592 250.212C286.099 250.212 286.469 249.978 286.702 249.512C286.942 249.038 287.062 248.298 287.062 247.292C287.062 246.865 287.036 246.472 286.982 246.112C286.936 245.752 286.852 245.442 286.732 245.182C286.619 244.922 286.469 244.722 286.282 244.582C286.096 244.442 285.866 244.372 285.592 244.372C285.092 244.372 284.722 244.608 284.482 245.082C284.249 245.555 284.132 246.292 284.132 247.292Z" fill="white"/>
<path opacity="0.7" d="M68.5499 250.052H69.9499V245.212L70.0499 244.622L69.6499 245.092L68.5499 245.882L68.1699 245.372L70.3699 243.672H70.7299V250.052H72.0999V250.792H68.5499V250.052ZM73.4091 250.332C73.4091 250.152 73.4591 250.012 73.5591 249.912C73.6658 249.805 73.8058 249.752 73.9791 249.752C74.1591 249.752 74.3025 249.805 74.4091 249.912C74.5158 250.012 74.5691 250.152 74.5691 250.332C74.5691 250.505 74.5158 250.645 74.4091 250.752C74.3025 250.858 74.1591 250.912 73.9791 250.912C73.8058 250.912 73.6658 250.858 73.5591 250.752C73.4591 250.645 73.4091 250.505 73.4091 250.332ZM79.5178 245.382C79.5178 245.735 79.4512 246.098 79.3178 246.472C79.1912 246.838 79.0212 247.208 78.8078 247.582C78.6012 247.955 78.3678 248.322 78.1078 248.682C77.8478 249.035 77.5878 249.372 77.3278 249.692L76.8378 250.122V250.162L77.4778 250.052H79.6578V250.792H75.6778V250.502C75.8245 250.348 76.0012 250.158 76.2078 249.932C76.4145 249.705 76.6278 249.455 76.8478 249.182C77.0745 248.902 77.2945 248.608 77.5078 248.302C77.7278 247.988 77.9245 247.672 78.0978 247.352C78.2778 247.032 78.4212 246.715 78.5278 246.402C78.6345 246.088 78.6878 245.792 78.6878 245.512C78.6878 245.185 78.5945 244.915 78.4078 244.702C78.2212 244.482 77.9378 244.372 77.5578 244.372C77.3045 244.372 77.0578 244.425 76.8178 244.532C76.5778 244.632 76.3712 244.748 76.1978 244.882L75.8678 244.312C76.1012 244.112 76.3778 243.955 76.6978 243.842C77.0178 243.728 77.3612 243.672 77.7278 243.672C78.0145 243.672 78.2678 243.715 78.4878 243.802C78.7078 243.882 78.8945 243.998 79.0478 244.152C79.2012 244.305 79.3178 244.488 79.3978 244.702C79.4778 244.908 79.5178 245.135 79.5178 245.382Z" fill="white"/>
<path opacity="0.7" d="M147.741 250.212C147.967 250.212 148.177 250.178 148.371 250.112C148.564 250.045 148.731 249.948 148.871 249.822C149.011 249.688 149.121 249.532 149.201 249.352C149.281 249.172 149.321 248.975 149.321 248.762C149.321 248.295 149.181 247.948 148.901 247.722C148.627 247.495 148.247 247.382 147.761 247.382H147.021V247.092L148.461 244.872L148.921 244.432L148.271 244.532H146.291V243.792H149.861V244.082L148.271 246.472L147.921 246.762V246.782L148.261 246.712C148.527 246.718 148.774 246.768 149.001 246.862C149.227 246.948 149.424 247.078 149.591 247.252C149.757 247.418 149.887 247.622 149.981 247.862C150.074 248.095 150.121 248.362 150.121 248.662C150.121 249.022 150.057 249.342 149.931 249.622C149.804 249.902 149.631 250.138 149.411 250.332C149.197 250.518 148.944 250.662 148.651 250.762C148.357 250.862 148.047 250.912 147.721 250.912C147.421 250.912 147.151 250.888 146.911 250.842C146.671 250.795 146.461 250.735 146.281 250.662L146.491 249.952C146.644 250.025 146.824 250.088 147.031 250.142C147.244 250.188 147.481 250.212 147.741 250.212ZM151.34 250.332C151.34 250.152 151.39 250.012 151.49 249.912C151.596 249.805 151.736 249.752 151.91 249.752C152.09 249.752 152.233 249.805 152.34 249.912C152.446 250.012 152.5 250.152 152.5 250.332C152.5 250.505 152.446 250.645 152.34 250.752C152.233 250.858 152.09 250.912 151.91 250.912C151.736 250.912 151.596 250.858 151.49 250.752C151.39 250.645 151.34 250.505 151.34 250.332ZM153.418 247.292C153.418 246.092 153.612 245.188 153.998 244.582C154.392 243.975 154.962 243.672 155.708 243.672C156.515 243.672 157.098 243.972 157.458 244.572C157.825 245.165 158.008 246.072 158.008 247.292C158.008 248.492 157.812 249.395 157.418 250.002C157.032 250.608 156.462 250.912 155.708 250.912C154.915 250.912 154.335 250.595 153.968 249.962C153.602 249.328 153.418 248.438 153.418 247.292ZM154.248 247.292C154.248 247.725 154.275 248.122 154.328 248.482C154.388 248.835 154.478 249.142 154.598 249.402C154.718 249.655 154.868 249.855 155.048 250.002C155.235 250.142 155.455 250.212 155.708 250.212C156.215 250.212 156.585 249.978 156.818 249.512C157.058 249.038 157.178 248.298 157.178 247.292C157.178 246.865 157.152 246.472 157.098 246.112C157.052 245.752 156.968 245.442 156.848 245.182C156.735 244.922 156.585 244.722 156.398 244.582C156.212 244.442 155.982 244.372 155.708 244.372C155.208 244.372 154.838 244.608 154.598 245.082C154.365 245.555 154.248 246.292 154.248 247.292Z" fill="white"/>
<path opacity="0.7" d="M228.571 248.642H227.391V250.792H226.611V248.642H223.531V248.312L226.851 243.682H227.391V247.942H228.571V248.642ZM226.611 245.762L226.711 244.942H226.681L226.331 245.622L224.921 247.532L224.441 248.022L225.141 247.942H226.611V245.762ZM229.27 250.332C229.27 250.152 229.32 250.012 229.42 249.912C229.527 249.805 229.667 249.752 229.84 249.752C230.02 249.752 230.164 249.805 230.27 249.912C230.377 250.012 230.43 250.152 230.43 250.332C230.43 250.505 230.377 250.645 230.27 250.752C230.164 250.858 230.02 250.912 229.84 250.912C229.667 250.912 229.527 250.858 229.42 250.752C229.32 250.645 229.27 250.505 229.27 250.332ZM231.599 249.122C231.599 248.702 231.709 248.338 231.929 248.032C232.149 247.718 232.492 247.435 232.959 247.182C232.792 247.082 232.636 246.978 232.489 246.872C232.349 246.758 232.222 246.632 232.109 246.492C232.002 246.352 231.916 246.195 231.849 246.022C231.789 245.848 231.759 245.648 231.759 245.422C231.759 245.162 231.802 244.925 231.889 244.712C231.982 244.498 232.112 244.315 232.279 244.162C232.452 244.008 232.656 243.888 232.889 243.802C233.129 243.715 233.399 243.672 233.699 243.672C233.979 243.672 234.232 243.712 234.459 243.792C234.686 243.872 234.876 243.982 235.029 244.122C235.189 244.262 235.312 244.428 235.399 244.622C235.486 244.815 235.529 245.028 235.529 245.262C235.529 245.642 235.442 245.978 235.269 246.272C235.096 246.558 234.809 246.842 234.409 247.122C234.582 247.222 234.746 247.332 234.899 247.452C235.059 247.572 235.196 247.705 235.309 247.852C235.429 247.998 235.522 248.165 235.589 248.352C235.656 248.532 235.689 248.738 235.689 248.972C235.689 249.258 235.642 249.522 235.549 249.762C235.456 249.995 235.319 250.198 235.139 250.372C234.959 250.538 234.739 250.672 234.479 250.772C234.219 250.865 233.922 250.912 233.589 250.912C233.269 250.912 232.986 250.865 232.739 250.772C232.492 250.678 232.282 250.552 232.109 250.392C231.942 250.232 231.816 250.045 231.729 249.832C231.642 249.612 231.599 249.375 231.599 249.122ZM234.909 249.022C234.909 248.822 234.869 248.648 234.789 248.502C234.709 248.348 234.602 248.212 234.469 248.092C234.342 247.965 234.196 247.852 234.029 247.752C233.862 247.652 233.689 247.555 233.509 247.462C233.102 247.688 232.812 247.942 232.639 248.222C232.466 248.502 232.379 248.768 232.379 249.022C232.379 249.182 232.406 249.335 232.459 249.482C232.512 249.628 232.592 249.755 232.699 249.862C232.806 249.968 232.936 250.055 233.089 250.122C233.249 250.182 233.432 250.212 233.639 250.212C233.806 250.212 233.966 250.188 234.119 250.142C234.272 250.088 234.406 250.015 234.519 249.922C234.639 249.822 234.732 249.698 234.799 249.552C234.872 249.398 234.909 249.222 234.909 249.022ZM232.539 245.402C232.539 245.588 232.576 245.755 232.649 245.902C232.722 246.042 232.819 246.168 232.939 246.282C233.066 246.395 233.209 246.502 233.369 246.602C233.529 246.695 233.696 246.785 233.869 246.872C234.169 246.638 234.389 246.408 234.529 246.182C234.676 245.955 234.749 245.705 234.749 245.432C234.749 245.092 234.642 244.832 234.429 244.652C234.222 244.465 233.972 244.372 233.679 244.372C233.499 244.372 233.339 244.402 233.199 244.462C233.059 244.522 232.939 244.598 232.839 244.692C232.739 244.785 232.662 244.895 232.609 245.022C232.562 245.142 232.539 245.268 232.539 245.402Z" fill="white"/>
<path opacity="0.7" d="M306.181 248.682C306.181 248.988 306.135 249.278 306.041 249.552C305.948 249.818 305.811 250.055 305.631 250.262C305.451 250.462 305.228 250.622 304.961 250.742C304.695 250.855 304.391 250.912 304.051 250.912C303.718 250.912 303.418 250.858 303.151 250.752C302.885 250.645 302.655 250.488 302.461 250.282C302.268 250.068 302.118 249.808 302.011 249.502C301.911 249.195 301.861 248.842 301.861 248.442C301.861 247.782 301.945 247.175 302.111 246.622C302.285 246.062 302.521 245.575 302.821 245.162C303.121 244.748 303.475 244.415 303.881 244.162C304.295 243.902 304.741 243.738 305.221 243.672L305.391 244.312C305.018 244.378 304.678 244.505 304.371 244.692C304.065 244.878 303.795 245.108 303.561 245.382C303.335 245.655 303.148 245.962 303.001 246.302C302.855 246.642 302.755 246.992 302.701 247.352C302.808 247.172 302.988 247.008 303.241 246.862C303.495 246.708 303.805 246.632 304.171 246.632C304.798 246.632 305.288 246.812 305.641 247.172C306.001 247.532 306.181 248.035 306.181 248.682ZM305.351 248.762C305.351 248.288 305.241 247.932 305.021 247.692C304.801 247.452 304.461 247.332 304.001 247.332C303.675 247.332 303.391 247.412 303.151 247.572C302.918 247.732 302.755 247.912 302.661 248.112C302.648 248.205 302.641 248.282 302.641 248.342C302.641 248.402 302.641 248.468 302.641 248.542C302.641 248.748 302.668 248.952 302.721 249.152C302.781 249.352 302.871 249.532 302.991 249.692C303.111 249.845 303.258 249.972 303.431 250.072C303.611 250.165 303.821 250.212 304.061 250.212C304.255 250.212 304.428 250.175 304.581 250.102C304.741 250.028 304.878 249.928 304.991 249.802C305.105 249.675 305.191 249.522 305.251 249.342C305.318 249.162 305.351 248.968 305.351 248.762ZM307.201 250.332C307.201 250.152 307.251 250.012 307.351 249.912C307.457 249.805 307.597 249.752 307.771 249.752C307.951 249.752 308.094 249.805 308.201 249.912C308.307 250.012 308.361 250.152 308.361 250.332C308.361 250.505 308.307 250.645 308.201 250.752C308.094 250.858 307.951 250.912 307.771 250.912C307.597 250.912 307.457 250.858 307.351 250.752C307.251 250.645 307.201 250.505 307.201 250.332ZM313.769 248.682C313.769 248.988 313.723 249.278 313.629 249.552C313.536 249.818 313.399 250.055 313.219 250.262C313.039 250.462 312.816 250.622 312.549 250.742C312.283 250.855 311.979 250.912 311.639 250.912C311.306 250.912 311.006 250.858 310.739 250.752C310.473 250.645 310.243 250.488 310.049 250.282C309.856 250.068 309.706 249.808 309.599 249.502C309.499 249.195 309.449 248.842 309.449 248.442C309.449 247.782 309.533 247.175 309.699 246.622C309.873 246.062 310.109 245.575 310.409 245.162C310.709 244.748 311.063 244.415 311.469 244.162C311.883 243.902 312.329 243.738 312.809 243.672L312.979 244.312C312.606 244.378 312.266 244.505 311.959 244.692C311.653 244.878 311.383 245.108 311.149 245.382C310.923 245.655 310.736 245.962 310.589 246.302C310.443 246.642 310.343 246.992 310.289 247.352C310.396 247.172 310.576 247.008 310.829 246.862C311.083 246.708 311.393 246.632 311.759 246.632C312.386 246.632 312.876 246.812 313.229 247.172C313.589 247.532 313.769 248.035 313.769 248.682ZM312.939 248.762C312.939 248.288 312.829 247.932 312.609 247.692C312.389 247.452 312.049 247.332 311.589 247.332C311.263 247.332 310.979 247.412 310.739 247.572C310.506 247.732 310.343 247.912 310.249 248.112C310.236 248.205 310.229 248.282 310.229 248.342C310.229 248.402 310.229 248.468 310.229 248.542C310.229 248.748 310.256 248.952 310.309 249.152C310.369 249.352 310.459 249.532 310.579 249.692C310.699 249.845 310.846 249.972 311.019 250.072C311.199 250.165 311.409 250.212 311.649 250.212C311.843 250.212 312.016 250.175 312.169 250.102C312.329 250.028 312.466 249.928 312.579 249.802C312.693 249.675 312.779 249.522 312.839 249.342C312.906 249.162 312.939 248.968 312.939 248.762Z" fill="white"/>
<path opacity="0.7" d="M94.5265 250.052H95.9265V245.212L96.0265 244.622L95.6265 245.092L94.5265 245.882L94.1465 245.372L96.3465 243.672H96.7065V250.052H98.0765V250.792H94.5265V250.052ZM99.3857 250.332C99.3857 250.152 99.4357 250.012 99.5357 249.912C99.6424 249.805 99.7824 249.752 99.9557 249.752C100.136 249.752 100.279 249.805 100.386 249.912C100.492 250.012 100.546 250.152 100.546 250.332C100.546 250.505 100.492 250.645 100.386 250.752C100.279 250.858 100.136 250.912 99.9557 250.912C99.7824 250.912 99.6424 250.858 99.5357 250.752C99.4357 250.645 99.3857 250.505 99.3857 250.332ZM101.714 249.122C101.714 248.702 101.824 248.338 102.044 248.032C102.264 247.718 102.608 247.435 103.074 247.182C102.908 247.082 102.751 246.978 102.604 246.872C102.464 246.758 102.338 246.632 102.224 246.492C102.118 246.352 102.031 246.195 101.964 246.022C101.904 245.848 101.874 245.648 101.874 245.422C101.874 245.162 101.918 244.925 102.004 244.712C102.098 244.498 102.228 244.315 102.394 244.162C102.568 244.008 102.771 243.888 103.004 243.802C103.244 243.715 103.514 243.672 103.814 243.672C104.094 243.672 104.348 243.712 104.574 243.792C104.801 243.872 104.991 243.982 105.144 244.122C105.304 244.262 105.428 244.428 105.514 244.622C105.601 244.815 105.644 245.028 105.644 245.262C105.644 245.642 105.558 245.978 105.384 246.272C105.211 246.558 104.924 246.842 104.524 247.122C104.698 247.222 104.861 247.332 105.014 247.452C105.174 247.572 105.311 247.705 105.424 247.852C105.544 247.998 105.638 248.165 105.704 248.352C105.771 248.532 105.804 248.738 105.804 248.972C105.804 249.258 105.758 249.522 105.664 249.762C105.571 249.995 105.434 250.198 105.254 250.372C105.074 250.538 104.854 250.672 104.594 250.772C104.334 250.865 104.038 250.912 103.704 250.912C103.384 250.912 103.101 250.865 102.854 250.772C102.608 250.678 102.398 250.552 102.224 250.392C102.058 250.232 101.931 250.045 101.844 249.832C101.758 249.612 101.714 249.375 101.714 249.122ZM105.024 249.022C105.024 248.822 104.984 248.648 104.904 248.502C104.824 248.348 104.718 248.212 104.584 248.092C104.458 247.965 104.311 247.852 104.144 247.752C103.978 247.652 103.804 247.555 103.624 247.462C103.218 247.688 102.928 247.942 102.754 248.222C102.581 248.502 102.494 248.768 102.494 249.022C102.494 249.182 102.521 249.335 102.574 249.482C102.628 249.628 102.708 249.755 102.814 249.862C102.921 249.968 103.051 250.055 103.204 250.122C103.364 250.182 103.548 250.212 103.754 250.212C103.921 250.212 104.081 250.188 104.234 250.142C104.388 250.088 104.521 250.015 104.634 249.922C104.754 249.822 104.848 249.698 104.914 249.552C104.988 249.398 105.024 249.222 105.024 249.022ZM102.654 245.402C102.654 245.588 102.691 245.755 102.764 245.902C102.838 246.042 102.934 246.168 103.054 246.282C103.181 246.395 103.324 246.502 103.484 246.602C103.644 246.695 103.811 246.785 103.984 246.872C104.284 246.638 104.504 246.408 104.644 246.182C104.791 245.955 104.864 245.705 104.864 245.432C104.864 245.092 104.758 244.832 104.544 244.652C104.338 244.465 104.088 244.372 103.794 244.372C103.614 244.372 103.454 244.402 103.314 244.462C103.174 244.522 103.054 244.598 102.954 244.692C102.854 244.785 102.778 244.895 102.724 245.022C102.678 245.142 102.654 245.268 102.654 245.402Z" fill="white"/>
<path opacity="0.7" d="M173.717 250.212C173.944 250.212 174.154 250.178 174.347 250.112C174.54 250.045 174.707 249.948 174.847 249.822C174.987 249.688 175.097 249.532 175.177 249.352C175.257 249.172 175.297 248.975 175.297 248.762C175.297 248.295 175.157 247.948 174.877 247.722C174.604 247.495 174.224 247.382 173.737 247.382H172.997V247.092L174.437 244.872L174.897 244.432L174.247 244.532H172.267V243.792H175.837V244.082L174.247 246.472L173.897 246.762V246.782L174.237 246.712C174.504 246.718 174.75 246.768 174.977 246.862C175.204 246.948 175.4 247.078 175.567 247.252C175.734 247.418 175.864 247.622 175.957 247.862C176.05 248.095 176.097 248.362 176.097 248.662C176.097 249.022 176.034 249.342 175.907 249.622C175.78 249.902 175.607 250.138 175.387 250.332C175.174 250.518 174.92 250.662 174.627 250.762C174.334 250.862 174.024 250.912 173.697 250.912C173.397 250.912 173.127 250.888 172.887 250.842C172.647 250.795 172.437 250.735 172.257 250.662L172.467 249.952C172.62 250.025 172.8 250.088 173.007 250.142C173.22 250.188 173.457 250.212 173.717 250.212ZM177.316 250.332C177.316 250.152 177.366 250.012 177.466 249.912C177.573 249.805 177.713 249.752 177.886 249.752C178.066 249.752 178.21 249.805 178.316 249.912C178.423 250.012 178.476 250.152 178.476 250.332C178.476 250.505 178.423 250.645 178.316 250.752C178.21 250.858 178.066 250.912 177.886 250.912C177.713 250.912 177.573 250.858 177.466 250.752C177.366 250.645 177.316 250.505 177.316 250.332ZM183.885 248.682C183.885 248.988 183.838 249.278 183.745 249.552C183.652 249.818 183.515 250.055 183.335 250.262C183.155 250.462 182.932 250.622 182.665 250.742C182.398 250.855 182.095 250.912 181.755 250.912C181.422 250.912 181.122 250.858 180.855 250.752C180.588 250.645 180.358 250.488 180.165 250.282C179.972 250.068 179.822 249.808 179.715 249.502C179.615 249.195 179.565 248.842 179.565 248.442C179.565 247.782 179.648 247.175 179.815 246.622C179.988 246.062 180.225 245.575 180.525 245.162C180.825 244.748 181.178 244.415 181.585 244.162C181.998 243.902 182.445 243.738 182.925 243.672L183.095 244.312C182.722 244.378 182.382 244.505 182.075 244.692C181.768 244.878 181.498 245.108 181.265 245.382C181.038 245.655 180.852 245.962 180.705 246.302C180.558 246.642 180.458 246.992 180.405 247.352C180.512 247.172 180.692 247.008 180.945 246.862C181.198 246.708 181.508 246.632 181.875 246.632C182.502 246.632 182.992 246.812 183.345 247.172C183.705 247.532 183.885 248.035 183.885 248.682ZM183.055 248.762C183.055 248.288 182.945 247.932 182.725 247.692C182.505 247.452 182.165 247.332 181.705 247.332C181.378 247.332 181.095 247.412 180.855 247.572C180.622 247.732 180.458 247.912 180.365 248.112C180.352 248.205 180.345 248.282 180.345 248.342C180.345 248.402 180.345 248.468 180.345 248.542C180.345 248.748 180.372 248.952 180.425 249.152C180.485 249.352 180.575 249.532 180.695 249.692C180.815 249.845 180.962 249.972 181.135 250.072C181.315 250.165 181.525 250.212 181.765 250.212C181.958 250.212 182.132 250.175 182.285 250.102C182.445 250.028 182.582 249.928 182.695 249.802C182.808 249.675 182.895 249.522 182.955 249.342C183.022 249.162 183.055 248.968 183.055 248.762Z" fill="white"/>
<line x1="20.9766" y1="192.162" x2="331.616" y2="192.162" stroke="#9DCAFF"/>
<line x1="20.9766" y1="236.539" x2="331.616" y2="236.539" stroke="#9DCAFF"/>
<path opacity="0.7" d="M251.437 250.212C251.897 250.212 252.277 250.078 252.577 249.812C252.877 249.545 253.027 249.158 253.027 248.652C253.027 248.165 252.877 247.802 252.577 247.562C252.284 247.322 251.877 247.202 251.357 247.202L250.517 247.252V243.792H253.637V244.532H251.267V246.522L251.697 246.502C252.357 246.508 252.877 246.692 253.257 247.052C253.637 247.412 253.827 247.928 253.827 248.602C253.827 248.975 253.764 249.308 253.637 249.602C253.511 249.888 253.337 250.128 253.117 250.322C252.904 250.515 252.651 250.662 252.357 250.762C252.064 250.862 251.751 250.912 251.417 250.912C251.117 250.912 250.864 250.895 250.657 250.862C250.451 250.828 250.257 250.778 250.077 250.712L250.287 250.032C250.441 250.092 250.604 250.138 250.777 250.172C250.957 250.198 251.177 250.212 251.437 250.212ZM255.247 250.332C255.247 250.152 255.297 250.012 255.397 249.912C255.503 249.805 255.643 249.752 255.817 249.752C255.997 249.752 256.14 249.805 256.247 249.912C256.353 250.012 256.407 250.152 256.407 250.332C256.407 250.505 256.353 250.645 256.247 250.752C256.14 250.858 255.997 250.912 255.817 250.912C255.643 250.912 255.503 250.858 255.397 250.752C255.297 250.645 255.247 250.505 255.247 250.332ZM262.135 248.642H260.955V250.792H260.175V248.642H257.095V248.312L260.415 243.682H260.955V247.942H262.135V248.642ZM260.175 245.762L260.275 244.942H260.245L259.895 245.622L258.485 247.532L258.005 248.022L258.705 247.942H260.175V245.762Z" fill="white"/>
<path opacity="0.7" d="M322.442 250.792L324.952 244.932L325.392 244.442L324.802 244.532H321.952V243.792H326.132V244.062L323.252 250.792H322.442ZM326.178 250.332C326.178 250.152 326.228 250.012 326.328 249.912C326.434 249.805 326.574 249.752 326.748 249.752C326.928 249.752 327.071 249.805 327.178 249.912C327.284 250.012 327.338 250.152 327.338 250.332C327.338 250.505 327.284 250.645 327.178 250.752C327.071 250.858 326.928 250.912 326.748 250.912C326.574 250.912 326.434 250.858 326.328 250.752C326.228 250.645 326.178 250.505 326.178 250.332ZM332.286 245.382C332.286 245.735 332.22 246.098 332.086 246.472C331.96 246.838 331.79 247.208 331.576 247.582C331.37 247.955 331.136 248.322 330.876 248.682C330.616 249.035 330.356 249.372 330.096 249.692L329.606 250.122V250.162L330.246 250.052H332.426V250.792H328.446V250.502C328.593 250.348 328.77 250.158 328.976 249.932C329.183 249.705 329.396 249.455 329.616 249.182C329.843 248.902 330.063 248.608 330.276 248.302C330.496 247.988 330.693 247.672 330.866 247.352C331.046 247.032 331.19 246.715 331.296 246.402C331.403 246.088 331.456 245.792 331.456 245.512C331.456 245.185 331.363 244.915 331.176 244.702C330.99 244.482 330.706 244.372 330.326 244.372C330.073 244.372 329.826 244.425 329.586 244.532C329.346 244.632 329.14 244.748 328.966 244.882L328.636 244.312C328.87 244.112 329.146 243.955 329.466 243.842C329.786 243.728 330.13 243.672 330.496 243.672C330.783 243.672 331.036 243.715 331.256 243.802C331.476 243.882 331.663 243.998 331.816 244.152C331.97 244.305 332.086 244.488 332.166 244.702C332.246 244.908 332.286 245.135 332.286 245.382Z" fill="white"/>
<path opacity="0.7" d="M1.39289 191.5C1.39289 190.3 1.58622 189.397 1.97289 188.79C2.36622 188.183 2.93622 187.88 3.68289 187.88C4.48956 187.88 5.07289 188.18 5.43289 188.78C5.79956 189.373 5.98289 190.28 5.98289 191.5C5.98289 192.7 5.78622 193.603 5.39289 194.21C5.00622 194.817 4.43622 195.12 3.68289 195.12C2.88956 195.12 2.30956 194.803 1.94289 194.17C1.57622 193.537 1.39289 192.647 1.39289 191.5ZM2.22289 191.5C2.22289 191.933 2.24956 192.33 2.30289 192.69C2.36289 193.043 2.45289 193.35 2.57289 193.61C2.69289 193.863 2.84289 194.063 3.02289 194.21C3.20956 194.35 3.42956 194.42 3.68289 194.42C4.18956 194.42 4.55956 194.187 4.79289 193.72C5.03289 193.247 5.15289 192.507 5.15289 191.5C5.15289 191.073 5.12622 190.68 5.07289 190.32C5.02622 189.96 4.94289 189.65 4.82289 189.39C4.70956 189.13 4.55956 188.93 4.37289 188.79C4.18622 188.65 3.95622 188.58 3.68289 188.58C3.18289 188.58 2.81289 188.817 2.57289 189.29C2.33956 189.763 2.22289 190.5 2.22289 191.5ZM6.90211 194.54C6.90211 194.36 6.95211 194.22 7.05211 194.12C7.15878 194.013 7.29878 193.96 7.47211 193.96C7.65211 193.96 7.79544 194.013 7.90211 194.12C8.00878 194.22 8.06211 194.36 8.06211 194.54C8.06211 194.713 8.00878 194.853 7.90211 194.96C7.79544 195.067 7.65211 195.12 7.47211 195.12C7.29878 195.12 7.15878 195.067 7.05211 194.96C6.95211 194.853 6.90211 194.713 6.90211 194.54ZM13.0108 189.59C13.0108 189.943 12.9441 190.307 12.8108 190.68C12.6841 191.047 12.5141 191.417 12.3008 191.79C12.0941 192.163 11.8608 192.53 11.6008 192.89C11.3408 193.243 11.0808 193.58 10.8208 193.9L10.3308 194.33V194.37L10.9708 194.26H13.1508V195H9.17078V194.71C9.31745 194.557 9.49412 194.367 9.70078 194.14C9.90745 193.913 10.1208 193.663 10.3408 193.39C10.5674 193.11 10.7874 192.817 11.0008 192.51C11.2208 192.197 11.4174 191.88 11.5908 191.56C11.7708 191.24 11.9141 190.923 12.0208 190.61C12.1274 190.297 12.1808 190 12.1808 189.72C12.1808 189.393 12.0874 189.123 11.9008 188.91C11.7141 188.69 11.4308 188.58 11.0508 188.58C10.7974 188.58 10.5508 188.633 10.3108 188.74C10.0708 188.84 9.86411 188.957 9.69078 189.09L9.36078 188.52C9.59411 188.32 9.87078 188.163 10.1908 188.05C10.5108 187.937 10.8541 187.88 11.2208 187.88C11.5074 187.88 11.7608 187.923 11.9808 188.01C12.2008 188.09 12.3874 188.207 12.5408 188.36C12.6941 188.513 12.8108 188.697 12.8908 188.91C12.9708 189.117 13.0108 189.343 13.0108 189.59Z" fill="white"/>
<path opacity="0.7" d="M1.39289 168.5C1.39289 167.3 1.58622 166.397 1.97289 165.79C2.36622 165.183 2.93622 164.88 3.68289 164.88C4.48956 164.88 5.07289 165.18 5.43289 165.78C5.79956 166.373 5.98289 167.28 5.98289 168.5C5.98289 169.7 5.78622 170.603 5.39289 171.21C5.00622 171.817 4.43622 172.12 3.68289 172.12C2.88956 172.12 2.30956 171.803 1.94289 171.17C1.57622 170.537 1.39289 169.647 1.39289 168.5ZM2.22289 168.5C2.22289 168.933 2.24956 169.33 2.30289 169.69C2.36289 170.043 2.45289 170.35 2.57289 170.61C2.69289 170.863 2.84289 171.063 3.02289 171.21C3.20956 171.35 3.42956 171.42 3.68289 171.42C4.18956 171.42 4.55956 171.187 4.79289 170.72C5.03289 170.247 5.15289 169.507 5.15289 168.5C5.15289 168.073 5.12622 167.68 5.07289 167.32C5.02622 166.96 4.94289 166.65 4.82289 166.39C4.70956 166.13 4.55956 165.93 4.37289 165.79C4.18622 165.65 3.95622 165.58 3.68289 165.58C3.18289 165.58 2.81289 165.817 2.57289 166.29C2.33956 166.763 2.22289 167.5 2.22289 168.5ZM6.90211 171.54C6.90211 171.36 6.95211 171.22 7.05211 171.12C7.15878 171.013 7.29878 170.96 7.47211 170.96C7.65211 170.96 7.79544 171.013 7.90211 171.12C8.00878 171.22 8.06211 171.36 8.06211 171.54C8.06211 171.713 8.00878 171.853 7.90211 171.96C7.79544 172.067 7.65211 172.12 7.47211 172.12C7.29878 172.12 7.15878 172.067 7.05211 171.96C6.95211 171.853 6.90211 171.713 6.90211 171.54ZM10.8908 171.42C11.1174 171.42 11.3274 171.387 11.5208 171.32C11.7141 171.253 11.8808 171.157 12.0208 171.03C12.1608 170.897 12.2708 170.74 12.3508 170.56C12.4308 170.38 12.4708 170.183 12.4708 169.97C12.4708 169.503 12.3308 169.157 12.0508 168.93C11.7774 168.703 11.3974 168.59 10.9108 168.59H10.1708V168.3L11.6108 166.08L12.0708 165.64L11.4208 165.74H9.44078V165H13.0108V165.29L11.4208 167.68L11.0708 167.97V167.99L11.4108 167.92C11.6774 167.927 11.9241 167.977 12.1508 168.07C12.3774 168.157 12.5741 168.287 12.7408 168.46C12.9074 168.627 13.0374 168.83 13.1308 169.07C13.2241 169.303 13.2708 169.57 13.2708 169.87C13.2708 170.23 13.2074 170.55 13.0808 170.83C12.9541 171.11 12.7808 171.347 12.5608 171.54C12.3474 171.727 12.0941 171.87 11.8008 171.97C11.5074 172.07 11.1974 172.12 10.8708 172.12C10.5708 172.12 10.3008 172.097 10.0608 172.05C9.82078 172.003 9.61078 171.943 9.43078 171.87L9.64078 171.16C9.79411 171.233 9.97411 171.297 10.1808 171.35C10.3941 171.397 10.6308 171.42 10.8908 171.42Z" fill="white"/>
<path opacity="0.7" d="M1.39289 145.5C1.39289 144.3 1.58622 143.397 1.97289 142.79C2.36622 142.183 2.93622 141.88 3.68289 141.88C4.48956 141.88 5.07289 142.18 5.43289 142.78C5.79956 143.373 5.98289 144.28 5.98289 145.5C5.98289 146.7 5.78622 147.603 5.39289 148.21C5.00622 148.817 4.43622 149.12 3.68289 149.12C2.88956 149.12 2.30956 148.803 1.94289 148.17C1.57622 147.537 1.39289 146.647 1.39289 145.5ZM2.22289 145.5C2.22289 145.933 2.24956 146.33 2.30289 146.69C2.36289 147.043 2.45289 147.35 2.57289 147.61C2.69289 147.863 2.84289 148.063 3.02289 148.21C3.20956 148.35 3.42956 148.42 3.68289 148.42C4.18956 148.42 4.55956 148.187 4.79289 147.72C5.03289 147.247 5.15289 146.507 5.15289 145.5C5.15289 145.073 5.12622 144.68 5.07289 144.32C5.02622 143.96 4.94289 143.65 4.82289 143.39C4.70956 143.13 4.55956 142.93 4.37289 142.79C4.18622 142.65 3.95622 142.58 3.68289 142.58C3.18289 142.58 2.81289 142.817 2.57289 143.29C2.33956 143.763 2.22289 144.5 2.22289 145.5ZM6.90211 148.54C6.90211 148.36 6.95211 148.22 7.05211 148.12C7.15878 148.013 7.29878 147.96 7.47211 147.96C7.65211 147.96 7.79544 148.013 7.90211 148.12C8.00878 148.22 8.06211 148.36 8.06211 148.54C8.06211 148.713 8.00878 148.853 7.90211 148.96C7.79544 149.067 7.65211 149.12 7.47211 149.12C7.29878 149.12 7.15878 149.067 7.05211 148.96C6.95211 148.853 6.90211 148.713 6.90211 148.54ZM13.7908 146.85H12.6108V149H11.8308V146.85H8.75078V146.52L12.0708 141.89H12.6108V146.15H13.7908V146.85ZM11.8308 143.97L11.9308 143.15H11.9008L11.5508 143.83L10.1408 145.74L9.66078 146.23L10.3608 146.15H11.8308V143.97Z" fill="white"/>
<path opacity="0.7" d="M1.39289 123.5C1.39289 122.3 1.58622 121.397 1.97289 120.79C2.36622 120.183 2.93622 119.88 3.68289 119.88C4.48956 119.88 5.07289 120.18 5.43289 120.78C5.79956 121.373 5.98289 122.28 5.98289 123.5C5.98289 124.7 5.78622 125.603 5.39289 126.21C5.00622 126.817 4.43622 127.12 3.68289 127.12C2.88956 127.12 2.30956 126.803 1.94289 126.17C1.57622 125.537 1.39289 124.647 1.39289 123.5ZM2.22289 123.5C2.22289 123.933 2.24956 124.33 2.30289 124.69C2.36289 125.043 2.45289 125.35 2.57289 125.61C2.69289 125.863 2.84289 126.063 3.02289 126.21C3.20956 126.35 3.42956 126.42 3.68289 126.42C4.18956 126.42 4.55956 126.187 4.79289 125.72C5.03289 125.247 5.15289 124.507 5.15289 123.5C5.15289 123.073 5.12622 122.68 5.07289 122.32C5.02622 121.96 4.94289 121.65 4.82289 121.39C4.70956 121.13 4.55956 120.93 4.37289 120.79C4.18622 120.65 3.95622 120.58 3.68289 120.58C3.18289 120.58 2.81289 120.817 2.57289 121.29C2.33956 121.763 2.22289 122.5 2.22289 123.5ZM6.90211 126.54C6.90211 126.36 6.95211 126.22 7.05211 126.12C7.15878 126.013 7.29878 125.96 7.47211 125.96C7.65211 125.96 7.79544 126.013 7.90211 126.12C8.00878 126.22 8.06211 126.36 8.06211 126.54C8.06211 126.713 8.00878 126.853 7.90211 126.96C7.79544 127.067 7.65211 127.12 7.47211 127.12C7.29878 127.12 7.15878 127.067 7.05211 126.96C6.95211 126.853 6.90211 126.713 6.90211 126.54ZM10.6808 126.42C11.1408 126.42 11.5208 126.287 11.8208 126.02C12.1208 125.753 12.2708 125.367 12.2708 124.86C12.2708 124.373 12.1208 124.01 11.8208 123.77C11.5274 123.53 11.1208 123.41 10.6008 123.41L9.76078 123.46V120H12.8808V120.74H10.5108V122.73L10.9408 122.71C11.6008 122.717 12.1208 122.9 12.5008 123.26C12.8808 123.62 13.0708 124.137 13.0708 124.81C13.0708 125.183 13.0074 125.517 12.8808 125.81C12.7541 126.097 12.5808 126.337 12.3608 126.53C12.1474 126.723 11.8941 126.87 11.6008 126.97C11.3074 127.07 10.9941 127.12 10.6608 127.12C10.3608 127.12 10.1074 127.103 9.90078 127.07C9.69411 127.037 9.50078 126.987 9.32078 126.92L9.53078 126.24C9.68412 126.3 9.84745 126.347 10.0208 126.38C10.2008 126.407 10.4208 126.42 10.6808 126.42Z" fill="white"/>
<path opacity="0.7" d="M1.39289 102.5C1.39289 101.3 1.58622 100.397 1.97289 99.79C2.36622 99.1833 2.93622 98.88 3.68289 98.88C4.48956 98.88 5.07289 99.18 5.43289 99.78C5.79956 100.373 5.98289 101.28 5.98289 102.5C5.98289 103.7 5.78622 104.603 5.39289 105.21C5.00622 105.817 4.43622 106.12 3.68289 106.12C2.88956 106.12 2.30956 105.803 1.94289 105.17C1.57622 104.537 1.39289 103.647 1.39289 102.5ZM2.22289 102.5C2.22289 102.933 2.24956 103.33 2.30289 103.69C2.36289 104.043 2.45289 104.35 2.57289 104.61C2.69289 104.863 2.84289 105.063 3.02289 105.21C3.20956 105.35 3.42956 105.42 3.68289 105.42C4.18956 105.42 4.55956 105.187 4.79289 104.72C5.03289 104.247 5.15289 103.507 5.15289 102.5C5.15289 102.073 5.12622 101.68 5.07289 101.32C5.02622 100.96 4.94289 100.65 4.82289 100.39C4.70956 100.13 4.55956 99.93 4.37289 99.79C4.18622 99.65 3.95622 99.58 3.68289 99.58C3.18289 99.58 2.81289 99.8167 2.57289 100.29C2.33956 100.763 2.22289 101.5 2.22289 102.5ZM6.90211 105.54C6.90211 105.36 6.95211 105.22 7.05211 105.12C7.15878 105.013 7.29878 104.96 7.47211 104.96C7.65211 104.96 7.79544 105.013 7.90211 105.12C8.00878 105.22 8.06211 105.36 8.06211 105.54C8.06211 105.713 8.00878 105.853 7.90211 105.96C7.79544 106.067 7.65211 106.12 7.47211 106.12C7.29878 106.12 7.15878 106.067 7.05211 105.96C6.95211 105.853 6.90211 105.713 6.90211 105.54ZM13.4708 103.89C13.4708 104.197 13.4241 104.487 13.3308 104.76C13.2374 105.027 13.1008 105.263 12.9208 105.47C12.7408 105.67 12.5174 105.83 12.2508 105.95C11.9841 106.063 11.6808 106.12 11.3408 106.12C11.0074 106.12 10.7074 106.067 10.4408 105.96C10.1741 105.853 9.94411 105.697 9.75078 105.49C9.55745 105.277 9.40745 105.017 9.30078 104.71C9.20078 104.403 9.15078 104.05 9.15078 103.65C9.15078 102.99 9.23412 102.383 9.40078 101.83C9.57412 101.27 9.81078 100.783 10.1108 100.37C10.4108 99.9567 10.7641 99.6233 11.1708 99.37C11.5841 99.11 12.0308 98.9467 12.5108 98.88L12.6808 99.52C12.3074 99.5867 11.9674 99.7133 11.6608 99.9C11.3541 100.087 11.0841 100.317 10.8508 100.59C10.6241 100.863 10.4374 101.17 10.2908 101.51C10.1441 101.85 10.0441 102.2 9.99078 102.56C10.0974 102.38 10.2774 102.217 10.5308 102.07C10.7841 101.917 11.0941 101.84 11.4608 101.84C12.0874 101.84 12.5774 102.02 12.9308 102.38C13.2908 102.74 13.4708 103.243 13.4708 103.89ZM12.6408 103.97C12.6408 103.497 12.5308 103.14 12.3108 102.9C12.0908 102.66 11.7508 102.54 11.2908 102.54C10.9641 102.54 10.6808 102.62 10.4408 102.78C10.2074 102.94 10.0441 103.12 9.95078 103.32C9.93745 103.413 9.93078 103.49 9.93078 103.55C9.93078 103.61 9.93078 103.677 9.93078 103.75C9.93078 103.957 9.95745 104.16 10.0108 104.36C10.0708 104.56 10.1608 104.74 10.2808 104.9C10.4008 105.053 10.5474 105.18 10.7208 105.28C10.9008 105.373 11.1108 105.42 11.3508 105.42C11.5441 105.42 11.7174 105.383 11.8708 105.31C12.0308 105.237 12.1674 105.137 12.2808 105.01C12.3941 104.883 12.4808 104.73 12.5408 104.55C12.6074 104.37 12.6408 104.177 12.6408 103.97Z" fill="white"/>
<path opacity="0.7" d="M1.39289 79.5C1.39289 78.3 1.58622 77.3967 1.97289 76.79C2.36622 76.1833 2.93622 75.88 3.68289 75.88C4.48956 75.88 5.07289 76.18 5.43289 76.78C5.79956 77.3733 5.98289 78.28 5.98289 79.5C5.98289 80.7 5.78622 81.6033 5.39289 82.21C5.00622 82.8167 4.43622 83.12 3.68289 83.12C2.88956 83.12 2.30956 82.8033 1.94289 82.17C1.57622 81.5367 1.39289 80.6467 1.39289 79.5ZM2.22289 79.5C2.22289 79.9333 2.24956 80.33 2.30289 80.69C2.36289 81.0433 2.45289 81.35 2.57289 81.61C2.69289 81.8633 2.84289 82.0633 3.02289 82.21C3.20956 82.35 3.42956 82.42 3.68289 82.42C4.18956 82.42 4.55956 82.1867 4.79289 81.72C5.03289 81.2467 5.15289 80.5067 5.15289 79.5C5.15289 79.0733 5.12622 78.68 5.07289 78.32C5.02622 77.96 4.94289 77.65 4.82289 77.39C4.70956 77.13 4.55956 76.93 4.37289 76.79C4.18622 76.65 3.95622 76.58 3.68289 76.58C3.18289 76.58 2.81289 76.8167 2.57289 77.29C2.33956 77.7633 2.22289 78.5 2.22289 79.5ZM6.90211 82.54C6.90211 82.36 6.95211 82.22 7.05211 82.12C7.15878 82.0133 7.29878 81.96 7.47211 81.96C7.65211 81.96 7.79544 82.0133 7.90211 82.12C8.00878 82.22 8.06211 82.36 8.06211 82.54C8.06211 82.7133 8.00878 82.8533 7.90211 82.96C7.79544 83.0667 7.65211 83.12 7.47211 83.12C7.29878 83.12 7.15878 83.0667 7.05211 82.96C6.95211 82.8533 6.90211 82.7133 6.90211 82.54ZM9.65078 83L12.1608 77.14L12.6008 76.65L12.0108 76.74H9.16078V76H13.3408V76.27L10.4608 83H9.65078Z" fill="white"/>
<path opacity="0.7" d="M1.39289 55.5C1.39289 54.3 1.58622 53.3967 1.97289 52.79C2.36622 52.1833 2.93622 51.88 3.68289 51.88C4.48956 51.88 5.07289 52.18 5.43289 52.78C5.79956 53.3733 5.98289 54.28 5.98289 55.5C5.98289 56.7 5.78622 57.6033 5.39289 58.21C5.00622 58.8167 4.43622 59.12 3.68289 59.12C2.88956 59.12 2.30956 58.8033 1.94289 58.17C1.57622 57.5367 1.39289 56.6467 1.39289 55.5ZM2.22289 55.5C2.22289 55.9333 2.24956 56.33 2.30289 56.69C2.36289 57.0433 2.45289 57.35 2.57289 57.61C2.69289 57.8633 2.84289 58.0633 3.02289 58.21C3.20956 58.35 3.42956 58.42 3.68289 58.42C4.18956 58.42 4.55956 58.1867 4.79289 57.72C5.03289 57.2467 5.15289 56.5067 5.15289 55.5C5.15289 55.0733 5.12622 54.68 5.07289 54.32C5.02622 53.96 4.94289 53.65 4.82289 53.39C4.70956 53.13 4.55956 52.93 4.37289 52.79C4.18622 52.65 3.95622 52.58 3.68289 52.58C3.18289 52.58 2.81289 52.8167 2.57289 53.29C2.33956 53.7633 2.22289 54.5 2.22289 55.5ZM6.90211 58.54C6.90211 58.36 6.95211 58.22 7.05211 58.12C7.15878 58.0133 7.29878 57.96 7.47211 57.96C7.65211 57.96 7.79544 58.0133 7.90211 58.12C8.00878 58.22 8.06211 58.36 8.06211 58.54C8.06211 58.7133 8.00878 58.8533 7.90211 58.96C7.79544 59.0667 7.65211 59.12 7.47211 59.12C7.29878 59.12 7.15878 59.0667 7.05211 58.96C6.95211 58.8533 6.90211 58.7133 6.90211 58.54ZM9.23078 57.33C9.23078 56.91 9.34078 56.5467 9.56078 56.24C9.78078 55.9267 10.1241 55.6433 10.5908 55.39C10.4241 55.29 10.2674 55.1867 10.1208 55.08C9.98078 54.9667 9.85412 54.84 9.74078 54.7C9.63412 54.56 9.54745 54.4033 9.48078 54.23C9.42078 54.0567 9.39078 53.8567 9.39078 53.63C9.39078 53.37 9.43412 53.1333 9.52078 52.92C9.61412 52.7067 9.74412 52.5233 9.91078 52.37C10.0841 52.2167 10.2874 52.0967 10.5208 52.01C10.7608 51.9233 11.0308 51.88 11.3308 51.88C11.6108 51.88 11.8641 51.92 12.0908 52C12.3174 52.08 12.5074 52.19 12.6608 52.33C12.8208 52.47 12.9441 52.6367 13.0308 52.83C13.1174 53.0233 13.1608 53.2367 13.1608 53.47C13.1608 53.85 13.0741 54.1867 12.9008 54.48C12.7274 54.7667 12.4408 55.05 12.0408 55.33C12.2141 55.43 12.3774 55.54 12.5308 55.66C12.6908 55.78 12.8274 55.9133 12.9408 56.06C13.0608 56.2067 13.1541 56.3733 13.2208 56.56C13.2874 56.74 13.3208 56.9467 13.3208 57.18C13.3208 57.4667 13.2741 57.73 13.1808 57.97C13.0874 58.2033 12.9508 58.4067 12.7708 58.58C12.5908 58.7467 12.3708 58.88 12.1108 58.98C11.8508 59.0733 11.5541 59.12 11.2208 59.12C10.9008 59.12 10.6174 59.0733 10.3708 58.98C10.1241 58.8867 9.91412 58.76 9.74078 58.6C9.57412 58.44 9.44745 58.2533 9.36078 58.04C9.27412 57.82 9.23078 57.5833 9.23078 57.33ZM12.5408 57.23C12.5408 57.03 12.5008 56.8567 12.4208 56.71C12.3408 56.5567 12.2341 56.42 12.1008 56.3C11.9741 56.1733 11.8274 56.06 11.6608 55.96C11.4941 55.86 11.3208 55.7633 11.1408 55.67C10.7341 55.8967 10.4441 56.15 10.2708 56.43C10.0974 56.71 10.0108 56.9767 10.0108 57.23C10.0108 57.39 10.0374 57.5433 10.0908 57.69C10.1441 57.8367 10.2241 57.9633 10.3308 58.07C10.4374 58.1767 10.5674 58.2633 10.7208 58.33C10.8808 58.39 11.0641 58.42 11.2708 58.42C11.4374 58.42 11.5974 58.3967 11.7508 58.35C11.9041 58.2967 12.0374 58.2233 12.1508 58.13C12.2708 58.03 12.3641 57.9067 12.4308 57.76C12.5041 57.6067 12.5408 57.43 12.5408 57.23ZM10.1708 53.61C10.1708 53.7967 10.2074 53.9633 10.2808 54.11C10.3541 54.25 10.4508 54.3767 10.5708 54.49C10.6974 54.6033 10.8408 54.71 11.0008 54.81C11.1608 54.9033 11.3274 54.9933 11.5008 55.08C11.8008 54.8467 12.0208 54.6167 12.1608 54.39C12.3074 54.1633 12.3808 53.9133 12.3808 53.64C12.3808 53.3 12.2741 53.04 12.0608 52.86C11.8541 52.6733 11.6041 52.58 11.3108 52.58C11.1308 52.58 10.9708 52.61 10.8308 52.67C10.6908 52.73 10.5708 52.8067 10.4708 52.9C10.3708 52.9933 10.2941 53.1033 10.2408 53.23C10.1941 53.35 10.1708 53.4767 10.1708 53.61Z" fill="white"/>
<path opacity="0.7" d="M1.39289 34.5C1.39289 33.3 1.58622 32.3967 1.97289 31.79C2.36622 31.1833 2.93622 30.88 3.68289 30.88C4.48956 30.88 5.07289 31.18 5.43289 31.78C5.79956 32.3733 5.98289 33.28 5.98289 34.5C5.98289 35.7 5.78622 36.6033 5.39289 37.21C5.00622 37.8167 4.43622 38.12 3.68289 38.12C2.88956 38.12 2.30956 37.8033 1.94289 37.17C1.57622 36.5367 1.39289 35.6467 1.39289 34.5ZM2.22289 34.5C2.22289 34.9333 2.24956 35.33 2.30289 35.69C2.36289 36.0433 2.45289 36.35 2.57289 36.61C2.69289 36.8633 2.84289 37.0633 3.02289 37.21C3.20956 37.35 3.42956 37.42 3.68289 37.42C4.18956 37.42 4.55956 37.1867 4.79289 36.72C5.03289 36.2467 5.15289 35.5067 5.15289 34.5C5.15289 34.0733 5.12622 33.68 5.07289 33.32C5.02622 32.96 4.94289 32.65 4.82289 32.39C4.70956 32.13 4.55956 31.93 4.37289 31.79C4.18622 31.65 3.95622 31.58 3.68289 31.58C3.18289 31.58 2.81289 31.8167 2.57289 32.29C2.33956 32.7633 2.22289 33.5 2.22289 34.5ZM6.90211 37.54C6.90211 37.36 6.95211 37.22 7.05211 37.12C7.15878 37.0133 7.29878 36.96 7.47211 36.96C7.65211 36.96 7.79544 37.0133 7.90211 37.12C8.00878 37.22 8.06211 37.36 8.06211 37.54C8.06211 37.7133 8.00878 37.8533 7.90211 37.96C7.79544 38.0667 7.65211 38.12 7.47211 38.12C7.29878 38.12 7.15878 38.0667 7.05211 37.96C6.95211 37.8533 6.90211 37.7133 6.90211 37.54ZM9.07078 33.12C9.07078 32.8 9.11745 32.5033 9.21078 32.23C9.30412 31.9567 9.44078 31.72 9.62078 31.52C9.80078 31.32 10.0241 31.1633 10.2908 31.05C10.5641 30.9367 10.8808 30.88 11.2408 30.88C11.9208 30.88 12.4508 31.1 12.8308 31.54C13.2108 31.98 13.4008 32.6 13.4008 33.4C13.4008 34.1533 13.3141 34.8133 13.1408 35.38C12.9741 35.94 12.7408 36.4133 12.4408 36.8C12.1408 37.1867 11.7841 37.49 11.3708 37.71C10.9641 37.9233 10.5208 38.06 10.0408 38.12L9.86078 37.48C10.2474 37.42 10.5941 37.3067 10.9008 37.14C11.2141 36.9733 11.4808 36.7633 11.7008 36.51C11.9274 36.2567 12.1108 35.97 12.2508 35.65C12.3908 35.3233 12.4874 34.97 12.5408 34.59C12.3608 34.8033 12.1608 34.9533 11.9408 35.04C11.7274 35.12 11.4441 35.16 11.0908 35.16C10.8174 35.16 10.5574 35.1167 10.3108 35.03C10.0708 34.9367 9.85745 34.8033 9.67078 34.63C9.48412 34.4567 9.33745 34.2433 9.23078 33.99C9.12412 33.7367 9.07078 33.4467 9.07078 33.12ZM9.90078 33.04C9.90078 33.5133 10.0241 33.87 10.2708 34.11C10.5241 34.3433 10.8541 34.46 11.2608 34.46C11.5874 34.46 11.8674 34.4067 12.1008 34.3C12.3341 34.1933 12.5008 34.0533 12.6008 33.88C12.6141 33.7933 12.6208 33.7167 12.6208 33.65C12.6208 33.5833 12.6208 33.5133 12.6208 33.44C12.6208 33.2 12.5908 32.97 12.5308 32.75C12.4774 32.5233 12.3941 32.3233 12.2808 32.15C12.1674 31.97 12.0174 31.83 11.8308 31.73C11.6508 31.63 11.4374 31.58 11.1908 31.58C10.7841 31.58 10.4674 31.71 10.2408 31.97C10.0141 32.2233 9.90078 32.58 9.90078 33.04Z" fill="white"/>
<path opacity="0.7" d="M2.04289 16.26H3.44289V11.42L3.54289 10.83L3.14289 11.3L2.04289 12.09L1.66289 11.58L3.86289 9.88H4.22289V16.26H5.59289V17H2.04289V16.26ZM6.90211 16.54C6.90211 16.36 6.95211 16.22 7.05211 16.12C7.15878 16.0133 7.29878 15.96 7.47211 15.96C7.65211 15.96 7.79544 16.0133 7.90211 16.12C8.00878 16.22 8.06211 16.36 8.06211 16.54C8.06211 16.7133 8.00878 16.8533 7.90211 16.96C7.79544 17.0667 7.65211 17.12 7.47211 17.12C7.29878 17.12 7.15878 17.0667 7.05211 16.96C6.95211 16.8533 6.90211 16.7133 6.90211 16.54ZM8.98078 13.5C8.98078 12.3 9.17412 11.3967 9.56078 10.79C9.95412 10.1833 10.5241 9.88 11.2708 9.88C12.0774 9.88 12.6608 10.18 13.0208 10.78C13.3874 11.3733 13.5708 12.28 13.5708 13.5C13.5708 14.7 13.3741 15.6033 12.9808 16.21C12.5941 16.8167 12.0241 17.12 11.2708 17.12C10.4774 17.12 9.89745 16.8033 9.53078 16.17C9.16412 15.5367 8.98078 14.6467 8.98078 13.5ZM9.81078 13.5C9.81078 13.9333 9.83745 14.33 9.89078 14.69C9.95078 15.0433 10.0408 15.35 10.1608 15.61C10.2808 15.8633 10.4308 16.0633 10.6108 16.21C10.7974 16.35 11.0174 16.42 11.2708 16.42C11.7774 16.42 12.1474 16.1867 12.3808 15.72C12.6208 15.2467 12.7408 14.5067 12.7408 13.5C12.7408 13.0733 12.7141 12.68 12.6608 12.32C12.6141 11.96 12.5308 11.65 12.4108 11.39C12.2974 11.13 12.1474 10.93 11.9608 10.79C11.7741 10.65 11.5441 10.58 11.2708 10.58C10.7708 10.58 10.4008 10.8167 10.1608 11.29C9.92745 11.7633 9.81078 12.5 9.81078 13.5Z" fill="white"/>
<line x1="20.3945" y1="10.8232" x2="20.3945" y2="237.038" stroke="#9DCAFF"/>
<line x1="72.3477" y1="11.9058" x2="72.3477" y2="235.956" stroke="#9DCAFF"/>
<line x1="98.3242" y1="11.9058" x2="98.3242" y2="235.956" stroke="#9DCAFF"/>
<line x1="150.278" y1="11.9058" x2="150.278" y2="235.956" stroke="#9DCAFF"/>
<line x1="46.3706" y1="11.9058" x2="46.3706" y2="235.956" stroke="#9DCAFF"/>
<line x1="202.232" y1="11.9058" x2="202.232" y2="235.956" stroke="#9DCAFF"/>
<line x1="280.163" y1="11.9058" x2="280.163" y2="235.956" stroke="#9DCAFF"/>
<line x1="124.301" y1="11.9058" x2="124.301" y2="235.956" stroke="#9DCAFF"/>
<line x1="228.209" y1="11.9058" x2="228.209" y2="235.956" stroke="#9DCAFF"/>
<line x1="306.14" y1="11.9058" x2="306.14" y2="235.956" stroke="#9DCAFF"/>
<line x1="176.255" y1="11.9058" x2="176.255" y2="235.956" stroke="#9DCAFF"/>
<line x1="254.186" y1="11.9058" x2="254.186" y2="235.956" stroke="#9DCAFF"/>
<line x1="20.9766" y1="202.985" x2="331.616" y2="202.985" stroke="#9DCAFF"/>
<line x1="20.9766" y1="181.338" x2="331.616" y2="181.338" stroke="#9DCAFF"/>
<line x1="20.9766" y1="169.432" x2="331.616" y2="169.432" stroke="#9DCAFF"/>
<line x1="20.9766" y1="123.972" x2="331.616" y2="123.972" stroke="#9DCAFF"/>
<line x1="20.9766" y1="214.891" x2="331.616" y2="214.891" stroke="#9DCAFF"/>
<line x1="20.9766" y1="79.5952" x2="331.616" y2="79.5952" stroke="#9DCAFF"/>
<line x1="20.9766" y1="11.4058" x2="332.699" y2="11.4057" stroke="#9DCAFF"/>
<line x1="20.9766" y1="146.702" x2="331.616" y2="146.702" stroke="#9DCAFF"/>
<line x1="20.9766" y1="56.8652" x2="331.616" y2="56.8652" stroke="#9DCAFF"/>
<line x1="20.9766" y1="102.325" x2="331.616" y2="102.325" stroke="#9DCAFF"/>
<line x1="20.9766" y1="34.1357" x2="331.616" y2="34.1357" stroke="#9DCAFF"/>
<line x1="332.117" y1="11.9058" x2="332.117" y2="237.038" stroke="#9DCAFF"/>
<circle cx="46.4125" cy="181.297" r="2.20592" fill="#007AFF" stroke="#A7C0EC"/>
<circle cx="98.3656" cy="169.39" r="2.20592" fill="#007AFF" stroke="#A7C0EC"/>
<circle cx="98.3656" cy="146.661" r="2.20592" fill="#007AFF" stroke="#A7C0EC"/>
<circle cx="98.3656" cy="123.931" r="2.20592" fill="#007AFF" stroke="#A7C0EC"/>
<circle cx="98.3656" cy="102.284" r="2.20592" fill="#007AFF" stroke="#A7C0EC"/>
<circle cx="98.3656" cy="79.5541" r="2.20592" fill="#007AFF" stroke="#A7C0EC"/>
<circle cx="98.3656" cy="56.8241" r="2.20592" fill="#007AFF" stroke="#A7C0EC"/>
<circle cx="98.3656" cy="34.0941" r="2.20592" fill="#007AFF" stroke="#A7C0EC"/>
<circle cx="98.3656" cy="11.3651" r="2.20592" fill="#007AFF" stroke="#A7C0EC"/>
<circle cx="46.4125" cy="192.12" r="2.20592" fill="#007AFF" stroke="#A7C0EC"/>
<circle cx="46.4125" cy="202.944" r="2.20592" fill="#007AFF" stroke="#A7C0EC"/>
<circle cx="46.4125" cy="214.85" r="2.20592" fill="#007AFF" stroke="#A7C0EC"/>
<circle cx="72.389" cy="181.297" r="2.20592" fill="#007AFF" stroke="#A7C0EC"/>
<circle cx="124.343" cy="169.39" r="2.20592" fill="#007AFF" stroke="#A7C0EC"/>
<circle cx="124.343" cy="146.661" r="2.20592" fill="#007AFF" stroke="#A7C0EC"/>
<circle cx="124.343" cy="123.931" r="2.20592" fill="#007AFF" stroke="#A7C0EC"/>
<circle cx="124.343" cy="102.284" r="2.20592" fill="#007AFF" stroke="#A7C0EC"/>
<circle cx="124.343" cy="79.5541" r="2.20592" fill="#007AFF" stroke="#A7C0EC"/>
<circle cx="124.343" cy="56.8241" r="2.20592" fill="#007AFF" stroke="#A7C0EC"/>
<circle cx="124.343" cy="34.0941" r="2.20592" fill="#007AFF" stroke="#A7C0EC"/>
<circle cx="124.343" cy="11.3651" r="2.20592" fill="#007AFF" stroke="#A7C0EC"/>
<circle cx="72.389" cy="192.12" r="2.20592" fill="#007AFF" stroke="#A7C0EC"/>
<circle cx="72.389" cy="202.944" r="2.20592" fill="#007AFF" stroke="#A7C0EC"/>
<circle cx="72.389" cy="214.85" r="2.20592" fill="#007AFF" stroke="#A7C0EC"/>
<circle cx="98.3656" cy="181.297" r="2.20592" fill="#007AFF" stroke="#A7C0EC"/>
<circle cx="150.319" cy="169.39" r="2.20592" fill="#007AFF" stroke="#A7C0EC"/>
<circle cx="150.319" cy="146.661" r="2.20592" fill="#007AFF" stroke="#A7C0EC"/>
<circle cx="150.319" cy="123.931" r="2.20592" fill="#007AFF" stroke="#A7C0EC"/>
<circle cx="150.319" cy="102.284" r="2.20592" fill="#007AFF" stroke="#A7C0EC"/>
<circle cx="150.319" cy="79.5541" r="2.20592" fill="#007AFF" stroke="#A7C0EC"/>
<circle cx="150.319" cy="56.8241" r="2.20592" fill="#007AFF" stroke="#A7C0EC"/>
<circle cx="150.319" cy="34.0941" r="2.20592" fill="#007AFF" stroke="#A7C0EC"/>
<circle cx="150.319" cy="11.3651" r="2.20592" fill="#007AFF" stroke="#A7C0EC"/>
<circle cx="98.3656" cy="192.12" r="2.20592" fill="#007AFF" stroke="#A7C0EC"/>
<circle cx="98.3656" cy="202.944" r="2.20592" fill="#007AFF" stroke="#A7C0EC"/>
<circle cx="98.3656" cy="214.85" r="2.20592" fill="#007AFF" stroke="#A7C0EC"/>
<circle cx="124.343" cy="181.297" r="2.20592" fill="#007AFF" stroke="#A7C0EC"/>
<circle cx="176.296" cy="169.39" r="2.20592" fill="#007AFF" stroke="#A7C0EC"/>
<circle cx="176.296" cy="146.661" r="2.20592" fill="#007AFF" stroke="#A7C0EC"/>
<circle cx="176.296" cy="123.931" r="2.20592" fill="#007AFF" stroke="#A7C0EC"/>
<circle cx="176.296" cy="102.284" r="2.20592" fill="#007AFF" stroke="#A7C0EC"/>
<circle cx="176.296" cy="79.5541" r="2.20592" fill="#007AFF" stroke="#A7C0EC"/>
<circle cx="176.296" cy="56.8241" r="2.20592" fill="#007AFF" stroke="#A7C0EC"/>
<circle cx="176.296" cy="34.0941" r="2.20592" fill="#007AFF" stroke="#A7C0EC"/>
<circle cx="176.296" cy="11.3651" r="2.20592" fill="#007AFF" stroke="#A7C0EC"/>
<circle cx="124.343" cy="192.12" r="2.20592" fill="#007AFF" stroke="#A7C0EC"/>
<circle cx="124.343" cy="202.944" r="2.20592" fill="#007AFF" stroke="#A7C0EC"/>
<circle cx="124.343" cy="214.85" r="2.20592" fill="#007AFF" stroke="#A7C0EC"/>
<circle cx="150.319" cy="181.297" r="2.20592" fill="#007AFF" stroke="#A7C0EC"/>
<circle cx="202.273" cy="169.39" r="2.20592" fill="#007AFF" stroke="#A7C0EC"/>
<circle cx="202.273" cy="146.661" r="2.20592" fill="#007AFF" stroke="#A7C0EC"/>
<circle cx="202.273" cy="123.931" r="2.20592" fill="#007AFF" stroke="#A7C0EC"/>
<circle cx="202.273" cy="102.284" r="2.20592" fill="#007AFF" stroke="#A7C0EC"/>
<circle cx="202.273" cy="79.5541" r="2.20592" fill="#007AFF" stroke="#A7C0EC"/>
<circle cx="202.273" cy="56.8241" r="2.20592" fill="#007AFF" stroke="#A7C0EC"/>
<circle cx="202.273" cy="34.0941" r="2.20592" fill="#007AFF" stroke="#A7C0EC"/>
<circle cx="202.273" cy="11.3651" r="2.20592" fill="#007AFF" stroke="#A7C0EC"/>
<circle cx="150.319" cy="192.12" r="2.20592" fill="#007AFF" stroke="#A7C0EC"/>
<circle cx="150.319" cy="202.944" r="2.20592" fill="#007AFF" stroke="#A7C0EC"/>
<circle cx="150.319" cy="214.85" r="2.20592" fill="#007AFF" stroke="#A7C0EC"/>
<circle cx="176.296" cy="181.297" r="2.20592" fill="#007AFF" stroke="#A7C0EC"/>
<circle cx="228.25" cy="169.39" r="2.20592" fill="#007AFF" stroke="#A7C0EC"/>
<circle cx="228.25" cy="146.661" r="2.20592" fill="#007AFF" stroke="#A7C0EC"/>
<circle cx="228.25" cy="123.931" r="2.20592" fill="#007AFF" stroke="#A7C0EC"/>
<circle cx="228.25" cy="102.284" r="2.20592" fill="#007AFF" stroke="#A7C0EC"/>
<circle cx="228.25" cy="79.5541" r="2.20592" fill="#007AFF" stroke="#A7C0EC"/>
<circle cx="228.25" cy="56.8241" r="2.20592" fill="#007AFF" stroke="#A7C0EC"/>
<circle cx="228.25" cy="34.0941" r="2.20592" fill="#007AFF" stroke="#A7C0EC"/>
<circle cx="228.25" cy="11.3651" r="2.20592" fill="#007AFF" stroke="#A7C0EC"/>
<circle cx="176.296" cy="192.12" r="2.20592" fill="#007AFF" stroke="#A7C0EC"/>
<circle cx="176.296" cy="202.944" r="2.20592" fill="#007AFF" stroke="#A7C0EC"/>
<circle cx="202.273" cy="181.297" r="2.20592" fill="#007AFF" stroke="#A7C0EC"/>
<circle cx="254.226" cy="169.39" r="2.20592" fill="#007AFF" stroke="#A7C0EC"/>
<circle cx="254.226" cy="146.661" r="2.20592" fill="#007AFF" stroke="#A7C0EC"/>
<circle cx="254.226" cy="123.931" r="2.20592" fill="#007AFF" stroke="#A7C0EC"/>
<circle cx="254.226" cy="102.284" r="2.20592" fill="#007AFF" stroke="#A7C0EC"/>
<circle cx="254.226" cy="79.5541" r="2.20592" fill="#007AFF" stroke="#A7C0EC"/>
<circle cx="254.226" cy="56.8241" r="2.20592" fill="#007AFF" stroke="#A7C0EC"/>
<circle cx="254.226" cy="34.0941" r="2.20592" fill="#007AFF" stroke="#A7C0EC"/>
<circle cx="254.226" cy="11.3651" r="2.20592" fill="#007AFF" stroke="#A7C0EC"/>
<circle cx="202.273" cy="192.12" r="2.20592" fill="#007AFF" stroke="#A7C0EC"/>
<circle cx="228.25" cy="181.297" r="2.20592" fill="#007AFF" stroke="#A7C0EC"/>
<circle cx="280.204" cy="169.39" r="2.20592" fill="#007AFF" stroke="#A7C0EC"/>
<circle cx="280.204" cy="146.661" r="2.20592" fill="#007AFF" stroke="#A7C0EC"/>
<circle cx="280.204" cy="123.931" r="2.20592" fill="#007AFF" stroke="#A7C0EC"/>
<circle cx="280.204" cy="102.284" r="2.20592" fill="#007AFF" stroke="#A7C0EC"/>
<circle cx="280.204" cy="79.5541" r="2.20592" fill="#007AFF" stroke="#A7C0EC"/>
<circle cx="280.204" cy="56.8241" r="2.20592" fill="#007AFF" stroke="#A7C0EC"/>
<circle cx="280.204" cy="34.0941" r="2.20592" fill="#007AFF" stroke="#A7C0EC"/>
<circle cx="280.204" cy="11.3651" r="2.20592" fill="#007AFF" stroke="#A7C0EC"/>
<circle cx="306.181" cy="169.39" r="2.20592" fill="#007AFF" stroke="#A7C0EC"/>
<circle cx="306.181" cy="146.661" r="2.20592" fill="#007AFF" stroke="#A7C0EC"/>
<circle cx="306.181" cy="123.931" r="2.20592" fill="#007AFF" stroke="#A7C0EC"/>
<circle cx="306.181" cy="102.284" r="2.20592" fill="#007AFF" stroke="#A7C0EC"/>
<circle cx="306.181" cy="79.5541" r="2.20592" fill="#007AFF" stroke="#A7C0EC"/>
<circle cx="306.181" cy="56.8241" r="2.20592" fill="#007AFF" stroke="#A7C0EC"/>
<circle cx="306.181" cy="34.0941" r="2.20592" fill="#007AFF" stroke="#A7C0EC"/>
<circle cx="306.181" cy="11.3651" r="2.20592" fill="#007AFF" stroke="#A7C0EC"/>
<circle cx="332.158" cy="169.39" r="2.20592" fill="#007AFF" stroke="#A7C0EC"/>
<circle cx="332.158" cy="146.661" r="2.20592" fill="#007AFF" stroke="#A7C0EC"/>
<circle cx="332.158" cy="123.931" r="2.20592" fill="#007AFF" stroke="#A7C0EC"/>
<circle cx="332.158" cy="102.284" r="2.20592" fill="#007AFF" stroke="#A7C0EC"/>
<circle cx="332.158" cy="79.5541" r="2.20592" fill="#007AFF" stroke="#A7C0EC"/>
<circle cx="332.158" cy="56.8241" r="2.20592" fill="#007AFF" stroke="#A7C0EC"/>
<circle cx="332.158" cy="34.0941" r="2.20592" fill="#007AFF" stroke="#A7C0EC"/>
<circle cx="332.158" cy="11.3651" r="2.20592" fill="#007AFF" stroke="#A7C0EC"/>
<path opacity="0.2" d="M232.038 11.9058H20.4355V235.956H33.9651L232.038 11.9058Z" fill="white"/>
<path opacity="0.2" d="M34.5062 235.956L71.8479 193.202L197.361 11.9058H20.9766V235.956H34.5062Z" fill="#CBE0FF"/>
<path opacity="0.3" d="M20.4355 179.132L145.449 11.9058H20.4355V179.132Z" fill="#0027AF"/>
<path opacity="0.3" d="M331.617 92.0015L96.7427 235.956H331.617V92.0015Z" fill="#0027AF"/>
<path opacity="0.4" d="M92.1648 11.9058H20.9766V235.956H331.616V96.3305C248.563 116.354 217.823 156.402 202.183 168.308C186.543 180.214 130.455 188.332 123.984 181.838C118.806 176.642 100.614 66.3849 92.1648 11.9058Z" fill="#0243BF"/>
</svg>
