<svg width="334" height="243" viewBox="0 0 334 243" fill="none" xmlns="http://www.w3.org/2000/svg">
<g opacity="0.7">
<path d="M0.392822 204.5C0.392822 203.3 0.586155 202.397 0.972822 201.79C1.36616 201.183 1.93616 200.88 2.68282 200.88C3.48949 200.88 4.07282 201.18 4.43282 201.78C4.79949 202.373 4.98282 203.28 4.98282 204.5C4.98282 205.7 4.78616 206.603 4.39282 207.21C4.00616 207.817 3.43616 208.12 2.68282 208.12C1.88949 208.12 1.30949 207.803 0.942822 207.17C0.576156 206.537 0.392822 205.647 0.392822 204.5ZM1.22282 204.5C1.22282 204.933 1.24949 205.33 1.30282 205.69C1.36282 206.043 1.45282 206.35 1.57282 206.61C1.69282 206.863 1.84282 207.063 2.02282 207.21C2.20949 207.35 2.42949 207.42 2.68282 207.42C3.18949 207.42 3.55949 207.187 3.79282 206.72C4.03282 206.247 4.15282 205.507 4.15282 204.5C4.15282 204.073 4.12616 203.68 4.07282 203.32C4.02616 202.96 3.94282 202.65 3.82282 202.39C3.70949 202.13 3.55949 201.93 3.37282 201.79C3.18616 201.65 2.95616 201.58 2.68282 201.58C2.18282 201.58 1.81282 201.817 1.57282 202.29C1.33949 202.763 1.22282 203.5 1.22282 204.5Z" fill="white"/>
<path d="M5.90204 207.54C5.90204 207.36 5.95204 207.22 6.05204 207.12C6.15871 207.013 6.29871 206.96 6.47204 206.96C6.65204 206.96 6.79537 207.013 6.90204 207.12C7.00871 207.22 7.06204 207.36 7.06204 207.54C7.06204 207.713 7.00871 207.853 6.90204 207.96C6.79537 208.067 6.65204 208.12 6.47204 208.12C6.29871 208.12 6.15871 208.067 6.05204 207.96C5.95204 207.853 5.90204 207.713 5.90204 207.54Z" fill="white"/>
<path d="M8.63071 207.26H10.0307V202.42L10.1307 201.83L9.73071 202.3L8.63071 203.09L8.25071 202.58L10.4507 200.88H10.8107V207.26H12.1807V208H8.63071V207.26Z" fill="white"/>
</g>
<g opacity="0.7">
<path d="M40.9224 239.291C40.9224 238.091 41.1157 237.188 41.5024 236.581C41.8957 235.975 42.4657 235.671 43.2124 235.671C44.019 235.671 44.6024 235.971 44.9624 236.571C45.329 237.165 45.5124 238.071 45.5124 239.291C45.5124 240.491 45.3157 241.395 44.9224 242.001C44.5357 242.608 43.9657 242.911 43.2124 242.911C42.419 242.911 41.839 242.595 41.4724 241.961C41.1057 241.328 40.9224 240.438 40.9224 239.291ZM41.7524 239.291C41.7524 239.725 41.779 240.121 41.8324 240.481C41.8924 240.835 41.9824 241.141 42.1024 241.401C42.2224 241.655 42.3724 241.855 42.5524 242.001C42.739 242.141 42.959 242.211 43.2124 242.211C43.719 242.211 44.089 241.978 44.3224 241.511C44.5624 241.038 44.6824 240.298 44.6824 239.291C44.6824 238.865 44.6557 238.471 44.6024 238.111C44.5557 237.751 44.4724 237.441 44.3524 237.181C44.239 236.921 44.089 236.721 43.9024 236.581C43.7157 236.441 43.4857 236.371 43.2124 236.371C42.7124 236.371 42.3424 236.608 42.1024 237.081C41.869 237.555 41.7524 238.291 41.7524 239.291Z" fill="white"/>
<path d="M46.4316 242.331C46.4316 242.151 46.4816 242.011 46.5816 241.911C46.6882 241.805 46.8282 241.751 47.0016 241.751C47.1816 241.751 47.3249 241.805 47.4316 241.911C47.5382 242.011 47.5916 242.151 47.5916 242.331C47.5916 242.505 47.5382 242.645 47.4316 242.751C47.3249 242.858 47.1816 242.911 47.0016 242.911C46.8282 242.911 46.6882 242.858 46.5816 242.751C46.4816 242.645 46.4316 242.505 46.4316 242.331Z" fill="white"/>
<path d="M53.0003 240.681C53.0003 240.988 52.9536 241.278 52.8603 241.551C52.7669 241.818 52.6303 242.055 52.4503 242.261C52.2703 242.461 52.0469 242.621 51.7803 242.741C51.5136 242.855 51.2103 242.911 50.8703 242.911C50.5369 242.911 50.2369 242.858 49.9703 242.751C49.7036 242.645 49.4736 242.488 49.2803 242.281C49.0869 242.068 48.9369 241.808 48.8303 241.501C48.7303 241.195 48.6803 240.841 48.6803 240.441C48.6803 239.781 48.7636 239.175 48.9303 238.621C49.1036 238.061 49.3403 237.575 49.6403 237.161C49.9403 236.748 50.2936 236.415 50.7003 236.161C51.1136 235.901 51.5603 235.738 52.0403 235.671L52.2103 236.311C51.8369 236.378 51.4969 236.505 51.1903 236.691C50.8836 236.878 50.6136 237.108 50.3803 237.381C50.1536 237.655 49.9669 237.961 49.8203 238.301C49.6736 238.641 49.5736 238.991 49.5203 239.351C49.6269 239.171 49.8069 239.008 50.0603 238.861C50.3136 238.708 50.6236 238.631 50.9903 238.631C51.6169 238.631 52.1069 238.811 52.4603 239.171C52.8203 239.531 53.0003 240.035 53.0003 240.681ZM52.1703 240.761C52.1703 240.288 52.0603 239.931 51.8403 239.691C51.6203 239.451 51.2803 239.331 50.8203 239.331C50.4936 239.331 50.2103 239.411 49.9703 239.571C49.7369 239.731 49.5736 239.911 49.4803 240.111C49.4669 240.205 49.4603 240.281 49.4603 240.341C49.4603 240.401 49.4603 240.468 49.4603 240.541C49.4603 240.748 49.4869 240.951 49.5403 241.151C49.6003 241.351 49.6903 241.531 49.8103 241.691C49.9303 241.845 50.0769 241.971 50.2503 242.071C50.4303 242.165 50.6403 242.211 50.8803 242.211C51.0736 242.211 51.2469 242.175 51.4003 242.101C51.5603 242.028 51.6969 241.928 51.8103 241.801C51.9236 241.675 52.0103 241.521 52.0703 241.341C52.1369 241.161 52.1703 240.968 52.1703 240.761Z" fill="white"/>
</g>
<g opacity="0.7">
<path d="M122.883 237.381C122.883 237.735 122.817 238.098 122.683 238.471C122.557 238.838 122.387 239.208 122.173 239.581C121.967 239.955 121.733 240.321 121.473 240.681C121.213 241.035 120.953 241.371 120.693 241.691L120.203 242.121V242.161L120.843 242.051H123.023V242.791H119.043V242.501C119.19 242.348 119.367 242.158 119.573 241.931C119.78 241.705 119.993 241.455 120.213 241.181C120.44 240.901 120.66 240.608 120.873 240.301C121.093 239.988 121.29 239.671 121.463 239.351C121.643 239.031 121.787 238.715 121.893 238.401C122 238.088 122.053 237.791 122.053 237.511C122.053 237.185 121.96 236.915 121.773 236.701C121.587 236.481 121.303 236.371 120.923 236.371C120.67 236.371 120.423 236.425 120.183 236.531C119.943 236.631 119.737 236.748 119.563 236.881L119.233 236.311C119.467 236.111 119.743 235.955 120.063 235.841C120.383 235.728 120.727 235.671 121.093 235.671C121.38 235.671 121.633 235.715 121.853 235.801C122.073 235.881 122.26 235.998 122.413 236.151C122.567 236.305 122.683 236.488 122.763 236.701C122.843 236.908 122.883 237.135 122.883 237.381Z" fill="white"/>
<path d="M124.363 242.331C124.363 242.151 124.413 242.011 124.513 241.911C124.619 241.805 124.759 241.751 124.933 241.751C125.113 241.751 125.256 241.805 125.363 241.911C125.469 242.011 125.523 242.151 125.523 242.331C125.523 242.505 125.469 242.645 125.363 242.751C125.256 242.858 125.113 242.911 124.933 242.911C124.759 242.911 124.619 242.858 124.513 242.751C124.413 242.645 124.363 242.505 124.363 242.331Z" fill="white"/>
<path d="M131.251 240.641H130.071V242.791H129.291V240.641H126.211V240.311L129.531 235.681H130.071V239.941H131.251V240.641ZM129.291 237.761L129.391 236.941H129.361L129.011 237.621L127.601 239.531L127.121 240.021L127.821 239.941H129.291V237.761Z" fill="white"/>
</g>
<g opacity="0.7">
<path d="M201.594 240.641H200.414V242.791H199.634V240.641H196.554V240.311L199.874 235.681H200.414V239.941H201.594V240.641ZM199.634 237.761L199.734 236.941H199.704L199.354 237.621L197.944 239.531L197.464 240.021L198.164 239.941H199.634V237.761Z" fill="white"/>
<path d="M202.293 242.331C202.293 242.151 202.343 242.011 202.443 241.911C202.55 241.805 202.69 241.751 202.863 241.751C203.043 241.751 203.186 241.805 203.293 241.911C203.4 242.011 203.453 242.151 203.453 242.331C203.453 242.505 203.4 242.645 203.293 242.751C203.186 242.858 203.043 242.911 202.863 242.911C202.69 242.911 202.55 242.858 202.443 242.751C202.343 242.645 202.293 242.505 202.293 242.331Z" fill="white"/>
<path d="M208.402 237.381C208.402 237.735 208.335 238.098 208.202 238.471C208.075 238.838 207.905 239.208 207.692 239.581C207.485 239.955 207.252 240.321 206.992 240.681C206.732 241.035 206.472 241.371 206.212 241.691L205.722 242.121V242.161L206.362 242.051H208.542V242.791H204.562V242.501C204.708 242.348 204.885 242.158 205.092 241.931C205.298 241.705 205.512 241.455 205.732 241.181C205.958 240.901 206.178 240.608 206.392 240.301C206.612 239.988 206.808 239.671 206.982 239.351C207.162 239.031 207.305 238.715 207.412 238.401C207.518 238.088 207.572 237.791 207.572 237.511C207.572 237.185 207.478 236.915 207.292 236.701C207.105 236.481 206.822 236.371 206.442 236.371C206.188 236.371 205.942 236.425 205.702 236.531C205.462 236.631 205.255 236.748 205.082 236.881L204.752 236.311C204.985 236.111 205.262 235.955 205.582 235.841C205.902 235.728 206.245 235.671 206.612 235.671C206.898 235.671 207.152 235.715 207.372 235.801C207.592 235.881 207.778 235.998 207.932 236.151C208.085 236.305 208.202 236.488 208.282 236.701C208.362 236.908 208.402 237.135 208.402 237.381Z" fill="white"/>
</g>
<g opacity="0.7">
<path d="M279.205 240.681C279.205 240.988 279.158 241.278 279.065 241.551C278.971 241.818 278.835 242.055 278.655 242.261C278.475 242.461 278.251 242.621 277.985 242.741C277.718 242.855 277.415 242.911 277.075 242.911C276.741 242.911 276.441 242.858 276.175 242.751C275.908 242.645 275.678 242.488 275.485 242.281C275.291 242.068 275.141 241.808 275.035 241.501C274.935 241.195 274.885 240.841 274.885 240.441C274.885 239.781 274.968 239.175 275.135 238.621C275.308 238.061 275.545 237.575 275.845 237.161C276.145 236.748 276.498 236.415 276.905 236.161C277.318 235.901 277.765 235.738 278.245 235.671L278.415 236.311C278.041 236.378 277.701 236.505 277.395 236.691C277.088 236.878 276.818 237.108 276.585 237.381C276.358 237.655 276.171 237.961 276.025 238.301C275.878 238.641 275.778 238.991 275.725 239.351C275.831 239.171 276.011 239.008 276.265 238.861C276.518 238.708 276.828 238.631 277.195 238.631C277.821 238.631 278.311 238.811 278.665 239.171C279.025 239.531 279.205 240.035 279.205 240.681ZM278.375 240.761C278.375 240.288 278.265 239.931 278.045 239.691C277.825 239.451 277.485 239.331 277.025 239.331C276.698 239.331 276.415 239.411 276.175 239.571C275.941 239.731 275.778 239.911 275.685 240.111C275.671 240.205 275.665 240.281 275.665 240.341C275.665 240.401 275.665 240.468 275.665 240.541C275.665 240.748 275.691 240.951 275.745 241.151C275.805 241.351 275.895 241.531 276.015 241.691C276.135 241.845 276.281 241.971 276.455 242.071C276.635 242.165 276.845 242.211 277.085 242.211C277.278 242.211 277.451 242.175 277.605 242.101C277.765 242.028 277.901 241.928 278.015 241.801C278.128 241.675 278.215 241.521 278.275 241.341C278.341 241.161 278.375 240.968 278.375 240.761Z" fill="white"/>
<path d="M280.224 242.331C280.224 242.151 280.274 242.011 280.374 241.911C280.481 241.805 280.621 241.751 280.794 241.751C280.974 241.751 281.117 241.805 281.224 241.911C281.331 242.011 281.384 242.151 281.384 242.331C281.384 242.505 281.331 242.645 281.224 242.751C281.117 242.858 280.974 242.911 280.794 242.911C280.621 242.911 280.481 242.858 280.374 242.751C280.274 242.645 280.224 242.505 280.224 242.331Z" fill="white"/>
<path d="M282.303 239.291C282.303 238.091 282.496 237.188 282.883 236.581C283.276 235.975 283.846 235.671 284.593 235.671C285.399 235.671 285.983 235.971 286.343 236.571C286.709 237.165 286.893 238.071 286.893 239.291C286.893 240.491 286.696 241.395 286.303 242.001C285.916 242.608 285.346 242.911 284.593 242.911C283.799 242.911 283.219 242.595 282.853 241.961C282.486 241.328 282.303 240.438 282.303 239.291ZM283.133 239.291C283.133 239.725 283.159 240.121 283.213 240.481C283.273 240.835 283.363 241.141 283.483 241.401C283.603 241.655 283.753 241.855 283.933 242.001C284.119 242.141 284.339 242.211 284.593 242.211C285.099 242.211 285.469 241.978 285.703 241.511C285.943 241.038 286.063 240.298 286.063 239.291C286.063 238.865 286.036 238.471 285.983 238.111C285.936 237.751 285.853 237.441 285.733 237.181C285.619 236.921 285.469 236.721 285.283 236.581C285.096 236.441 284.866 236.371 284.593 236.371C284.093 236.371 283.723 236.608 283.483 237.081C283.249 237.555 283.133 238.291 283.133 239.291Z" fill="white"/>
</g>
<g opacity="0.7">
<path d="M67.5499 242.051H68.9499V237.211L69.0499 236.621L68.6499 237.091L67.5499 237.881L67.1699 237.371L69.3699 235.671H69.7299V242.051H71.0999V242.791H67.5499V242.051Z" fill="white"/>
<path d="M72.4091 242.331C72.4091 242.151 72.4591 242.011 72.5591 241.911C72.6658 241.805 72.8058 241.751 72.9791 241.751C73.1591 241.751 73.3025 241.805 73.4091 241.911C73.5158 242.011 73.5691 242.151 73.5691 242.331C73.5691 242.505 73.5158 242.645 73.4091 242.751C73.3025 242.858 73.1591 242.911 72.9791 242.911C72.8058 242.911 72.6658 242.858 72.5591 242.751C72.4591 242.645 72.4091 242.505 72.4091 242.331Z" fill="white"/>
<path d="M78.5178 237.381C78.5178 237.735 78.4511 238.098 78.3178 238.471C78.1911 238.838 78.0211 239.208 77.8078 239.581C77.6011 239.955 77.3678 240.321 77.1078 240.681C76.8478 241.035 76.5878 241.371 76.3278 241.691L75.8378 242.121V242.161L76.4778 242.051H78.6578V242.791H74.6778V242.501C74.8245 242.348 75.0011 242.158 75.2078 241.931C75.4145 241.705 75.6278 241.455 75.8478 241.181C76.0745 240.901 76.2945 240.608 76.5078 240.301C76.7278 239.988 76.9245 239.671 77.0978 239.351C77.2778 239.031 77.4211 238.715 77.5278 238.401C77.6345 238.088 77.6878 237.791 77.6878 237.511C77.6878 237.185 77.5945 236.915 77.4078 236.701C77.2211 236.481 76.9378 236.371 76.5578 236.371C76.3045 236.371 76.0578 236.425 75.8178 236.531C75.5778 236.631 75.3711 236.748 75.1978 236.881L74.8678 236.311C75.1011 236.111 75.3778 235.955 75.6978 235.841C76.0178 235.728 76.3611 235.671 76.7278 235.671C77.0145 235.671 77.2678 235.715 77.4878 235.801C77.7078 235.881 77.8945 235.998 78.0478 236.151C78.2011 236.305 78.3178 236.488 78.3978 236.701C78.4778 236.908 78.5178 237.135 78.5178 237.381Z" fill="white"/>
</g>
<g opacity="0.7">
<path d="M146.74 242.211C146.967 242.211 147.177 242.178 147.37 242.111C147.564 242.045 147.73 241.948 147.87 241.821C148.01 241.688 148.12 241.531 148.2 241.351C148.28 241.171 148.32 240.975 148.32 240.761C148.32 240.295 148.18 239.948 147.9 239.721C147.627 239.495 147.247 239.381 146.76 239.381H146.02V239.091L147.46 236.871L147.92 236.431L147.27 236.531H145.29V235.791H148.86V236.081L147.27 238.471L146.92 238.761V238.781L147.26 238.711C147.527 238.718 147.774 238.768 148 238.861C148.227 238.948 148.424 239.078 148.59 239.251C148.757 239.418 148.887 239.621 148.98 239.861C149.074 240.095 149.12 240.361 149.12 240.661C149.12 241.021 149.057 241.341 148.93 241.621C148.804 241.901 148.63 242.138 148.41 242.331C148.197 242.518 147.944 242.661 147.65 242.761C147.357 242.861 147.047 242.911 146.72 242.911C146.42 242.911 146.15 242.888 145.91 242.841C145.67 242.795 145.46 242.735 145.28 242.661L145.49 241.951C145.644 242.025 145.824 242.088 146.03 242.141C146.244 242.188 146.48 242.211 146.74 242.211Z" fill="white"/>
<path d="M150.339 242.331C150.339 242.151 150.389 242.011 150.489 241.911C150.596 241.805 150.736 241.751 150.909 241.751C151.089 241.751 151.233 241.805 151.339 241.911C151.446 242.011 151.499 242.151 151.499 242.331C151.499 242.505 151.446 242.645 151.339 242.751C151.233 242.858 151.089 242.911 150.909 242.911C150.736 242.911 150.596 242.858 150.489 242.751C150.389 242.645 150.339 242.505 150.339 242.331Z" fill="white"/>
<path d="M152.418 239.291C152.418 238.091 152.611 237.188 152.998 236.581C153.391 235.975 153.961 235.671 154.708 235.671C155.515 235.671 156.098 235.971 156.458 236.571C156.825 237.165 157.008 238.071 157.008 239.291C157.008 240.491 156.811 241.395 156.418 242.001C156.031 242.608 155.461 242.911 154.708 242.911C153.915 242.911 153.335 242.595 152.968 241.961C152.601 241.328 152.418 240.438 152.418 239.291ZM153.248 239.291C153.248 239.725 153.275 240.121 153.328 240.481C153.388 240.835 153.478 241.141 153.598 241.401C153.718 241.655 153.868 241.855 154.048 242.001C154.235 242.141 154.455 242.211 154.708 242.211C155.215 242.211 155.585 241.978 155.818 241.511C156.058 241.038 156.178 240.298 156.178 239.291C156.178 238.865 156.151 238.471 156.098 238.111C156.051 237.751 155.968 237.441 155.848 237.181C155.735 236.921 155.585 236.721 155.398 236.581C155.211 236.441 154.981 236.371 154.708 236.371C154.208 236.371 153.838 236.608 153.598 237.081C153.365 237.555 153.248 238.291 153.248 239.291Z" fill="white"/>
</g>
<g opacity="0.7">
<path d="M227.571 240.641H226.391V242.791H225.611V240.641H222.531V240.311L225.851 235.681H226.391V239.941H227.571V240.641ZM225.611 237.761L225.711 236.941H225.681L225.331 237.621L223.921 239.531L223.441 240.021L224.141 239.941H225.611V237.761Z" fill="white"/>
<path d="M228.27 242.331C228.27 242.151 228.32 242.011 228.42 241.911C228.527 241.805 228.667 241.751 228.84 241.751C229.02 241.751 229.164 241.805 229.27 241.911C229.377 242.011 229.43 242.151 229.43 242.331C229.43 242.505 229.377 242.645 229.27 242.751C229.164 242.858 229.02 242.911 228.84 242.911C228.667 242.911 228.527 242.858 228.42 242.751C228.32 242.645 228.27 242.505 228.27 242.331Z" fill="white"/>
<path d="M230.599 241.121C230.599 240.701 230.709 240.338 230.929 240.031C231.149 239.718 231.492 239.435 231.959 239.181C231.792 239.081 231.636 238.978 231.489 238.871C231.349 238.758 231.222 238.631 231.109 238.491C231.002 238.351 230.916 238.195 230.849 238.021C230.789 237.848 230.759 237.648 230.759 237.421C230.759 237.161 230.802 236.925 230.889 236.711C230.982 236.498 231.112 236.315 231.279 236.161C231.452 236.008 231.656 235.888 231.889 235.801C232.129 235.715 232.399 235.671 232.699 235.671C232.979 235.671 233.232 235.711 233.459 235.791C233.686 235.871 233.876 235.981 234.029 236.121C234.189 236.261 234.312 236.428 234.399 236.621C234.486 236.815 234.529 237.028 234.529 237.261C234.529 237.641 234.442 237.978 234.269 238.271C234.096 238.558 233.809 238.841 233.409 239.121C233.582 239.221 233.746 239.331 233.899 239.451C234.059 239.571 234.196 239.705 234.309 239.851C234.429 239.998 234.522 240.165 234.589 240.351C234.656 240.531 234.689 240.738 234.689 240.971C234.689 241.258 234.642 241.521 234.549 241.761C234.456 241.995 234.319 242.198 234.139 242.371C233.959 242.538 233.739 242.671 233.479 242.771C233.219 242.865 232.922 242.911 232.589 242.911C232.269 242.911 231.986 242.865 231.739 242.771C231.492 242.678 231.282 242.551 231.109 242.391C230.942 242.231 230.816 242.045 230.729 241.831C230.642 241.611 230.599 241.375 230.599 241.121ZM233.909 241.021C233.909 240.821 233.869 240.648 233.789 240.501C233.709 240.348 233.602 240.211 233.469 240.091C233.342 239.965 233.196 239.851 233.029 239.751C232.862 239.651 232.689 239.555 232.509 239.461C232.102 239.688 231.812 239.941 231.639 240.221C231.466 240.501 231.379 240.768 231.379 241.021C231.379 241.181 231.406 241.335 231.459 241.481C231.512 241.628 231.592 241.755 231.699 241.861C231.806 241.968 231.936 242.055 232.089 242.121C232.249 242.181 232.432 242.211 232.639 242.211C232.806 242.211 232.966 242.188 233.119 242.141C233.272 242.088 233.406 242.015 233.519 241.921C233.639 241.821 233.732 241.698 233.799 241.551C233.872 241.398 233.909 241.221 233.909 241.021ZM231.539 237.401C231.539 237.588 231.576 237.755 231.649 237.901C231.722 238.041 231.819 238.168 231.939 238.281C232.066 238.395 232.209 238.501 232.369 238.601C232.529 238.695 232.696 238.785 232.869 238.871C233.169 238.638 233.389 238.408 233.529 238.181C233.676 237.955 233.749 237.705 233.749 237.431C233.749 237.091 233.642 236.831 233.429 236.651C233.222 236.465 232.972 236.371 232.679 236.371C232.499 236.371 232.339 236.401 232.199 236.461C232.059 236.521 231.939 236.598 231.839 236.691C231.739 236.785 231.662 236.895 231.609 237.021C231.562 237.141 231.539 237.268 231.539 237.401Z" fill="white"/>
</g>
<g opacity="0.7">
<path d="M305.181 240.681C305.181 240.988 305.135 241.278 305.041 241.551C304.948 241.818 304.811 242.055 304.631 242.261C304.451 242.461 304.228 242.621 303.961 242.741C303.695 242.855 303.391 242.911 303.051 242.911C302.718 242.911 302.418 242.858 302.151 242.751C301.885 242.645 301.655 242.488 301.461 242.281C301.268 242.068 301.118 241.808 301.011 241.501C300.911 241.195 300.861 240.841 300.861 240.441C300.861 239.781 300.945 239.175 301.111 238.621C301.285 238.061 301.521 237.575 301.821 237.161C302.121 236.748 302.475 236.415 302.881 236.161C303.295 235.901 303.741 235.738 304.221 235.671L304.391 236.311C304.018 236.378 303.678 236.505 303.371 236.691C303.065 236.878 302.795 237.108 302.561 237.381C302.335 237.655 302.148 237.961 302.001 238.301C301.855 238.641 301.755 238.991 301.701 239.351C301.808 239.171 301.988 239.008 302.241 238.861C302.495 238.708 302.805 238.631 303.171 238.631C303.798 238.631 304.288 238.811 304.641 239.171C305.001 239.531 305.181 240.035 305.181 240.681ZM304.351 240.761C304.351 240.288 304.241 239.931 304.021 239.691C303.801 239.451 303.461 239.331 303.001 239.331C302.675 239.331 302.391 239.411 302.151 239.571C301.918 239.731 301.755 239.911 301.661 240.111C301.648 240.205 301.641 240.281 301.641 240.341C301.641 240.401 301.641 240.468 301.641 240.541C301.641 240.748 301.668 240.951 301.721 241.151C301.781 241.351 301.871 241.531 301.991 241.691C302.111 241.845 302.258 241.971 302.431 242.071C302.611 242.165 302.821 242.211 303.061 242.211C303.255 242.211 303.428 242.175 303.581 242.101C303.741 242.028 303.878 241.928 303.991 241.801C304.105 241.675 304.191 241.521 304.251 241.341C304.318 241.161 304.351 240.968 304.351 240.761Z" fill="white"/>
<path d="M306.201 242.331C306.201 242.151 306.251 242.011 306.351 241.911C306.457 241.805 306.597 241.751 306.771 241.751C306.951 241.751 307.094 241.805 307.201 241.911C307.307 242.011 307.361 242.151 307.361 242.331C307.361 242.505 307.307 242.645 307.201 242.751C307.094 242.858 306.951 242.911 306.771 242.911C306.597 242.911 306.457 242.858 306.351 242.751C306.251 242.645 306.201 242.505 306.201 242.331Z" fill="white"/>
<path d="M312.769 240.681C312.769 240.988 312.723 241.278 312.629 241.551C312.536 241.818 312.399 242.055 312.219 242.261C312.039 242.461 311.816 242.621 311.549 242.741C311.283 242.855 310.979 242.911 310.639 242.911C310.306 242.911 310.006 242.858 309.739 242.751C309.473 242.645 309.243 242.488 309.049 242.281C308.856 242.068 308.706 241.808 308.599 241.501C308.499 241.195 308.449 240.841 308.449 240.441C308.449 239.781 308.533 239.175 308.699 238.621C308.873 238.061 309.109 237.575 309.409 237.161C309.709 236.748 310.063 236.415 310.469 236.161C310.883 235.901 311.329 235.738 311.809 235.671L311.979 236.311C311.606 236.378 311.266 236.505 310.959 236.691C310.653 236.878 310.383 237.108 310.149 237.381C309.923 237.655 309.736 237.961 309.589 238.301C309.443 238.641 309.343 238.991 309.289 239.351C309.396 239.171 309.576 239.008 309.829 238.861C310.083 238.708 310.393 238.631 310.759 238.631C311.386 238.631 311.876 238.811 312.229 239.171C312.589 239.531 312.769 240.035 312.769 240.681ZM311.939 240.761C311.939 240.288 311.829 239.931 311.609 239.691C311.389 239.451 311.049 239.331 310.589 239.331C310.263 239.331 309.979 239.411 309.739 239.571C309.506 239.731 309.343 239.911 309.249 240.111C309.236 240.205 309.229 240.281 309.229 240.341C309.229 240.401 309.229 240.468 309.229 240.541C309.229 240.748 309.256 240.951 309.309 241.151C309.369 241.351 309.459 241.531 309.579 241.691C309.699 241.845 309.846 241.971 310.019 242.071C310.199 242.165 310.409 242.211 310.649 242.211C310.843 242.211 311.016 242.175 311.169 242.101C311.329 242.028 311.466 241.928 311.579 241.801C311.693 241.675 311.779 241.521 311.839 241.341C311.906 241.161 311.939 240.968 311.939 240.761Z" fill="white"/>
</g>
<g opacity="0.7">
<path d="M93.5265 242.051H94.9265V237.211L95.0265 236.621L94.6265 237.091L93.5265 237.881L93.1465 237.371L95.3465 235.671H95.7065V242.051H97.0765V242.791H93.5265V242.051Z" fill="white"/>
<path d="M98.3857 242.331C98.3857 242.151 98.4357 242.011 98.5357 241.911C98.6424 241.805 98.7824 241.751 98.9557 241.751C99.1357 241.751 99.279 241.805 99.3857 241.911C99.4924 242.011 99.5457 242.151 99.5457 242.331C99.5457 242.505 99.4924 242.645 99.3857 242.751C99.279 242.858 99.1357 242.911 98.9557 242.911C98.7824 242.911 98.6424 242.858 98.5357 242.751C98.4357 242.645 98.3857 242.505 98.3857 242.331Z" fill="white"/>
<path d="M100.714 241.121C100.714 240.701 100.824 240.338 101.044 240.031C101.264 239.718 101.608 239.435 102.074 239.181C101.908 239.081 101.751 238.978 101.604 238.871C101.464 238.758 101.338 238.631 101.224 238.491C101.118 238.351 101.031 238.195 100.964 238.021C100.904 237.848 100.874 237.648 100.874 237.421C100.874 237.161 100.918 236.925 101.004 236.711C101.098 236.498 101.228 236.315 101.394 236.161C101.568 236.008 101.771 235.888 102.004 235.801C102.244 235.715 102.514 235.671 102.814 235.671C103.094 235.671 103.348 235.711 103.574 235.791C103.801 235.871 103.991 235.981 104.144 236.121C104.304 236.261 104.428 236.428 104.514 236.621C104.601 236.815 104.644 237.028 104.644 237.261C104.644 237.641 104.558 237.978 104.384 238.271C104.211 238.558 103.924 238.841 103.524 239.121C103.698 239.221 103.861 239.331 104.014 239.451C104.174 239.571 104.311 239.705 104.424 239.851C104.544 239.998 104.638 240.165 104.704 240.351C104.771 240.531 104.804 240.738 104.804 240.971C104.804 241.258 104.758 241.521 104.664 241.761C104.571 241.995 104.434 242.198 104.254 242.371C104.074 242.538 103.854 242.671 103.594 242.771C103.334 242.865 103.038 242.911 102.704 242.911C102.384 242.911 102.101 242.865 101.854 242.771C101.608 242.678 101.398 242.551 101.224 242.391C101.058 242.231 100.931 242.045 100.844 241.831C100.758 241.611 100.714 241.375 100.714 241.121ZM104.024 241.021C104.024 240.821 103.984 240.648 103.904 240.501C103.824 240.348 103.718 240.211 103.584 240.091C103.458 239.965 103.311 239.851 103.144 239.751C102.978 239.651 102.804 239.555 102.624 239.461C102.218 239.688 101.928 239.941 101.754 240.221C101.581 240.501 101.494 240.768 101.494 241.021C101.494 241.181 101.521 241.335 101.574 241.481C101.628 241.628 101.708 241.755 101.814 241.861C101.921 241.968 102.051 242.055 102.204 242.121C102.364 242.181 102.548 242.211 102.754 242.211C102.921 242.211 103.081 242.188 103.234 242.141C103.388 242.088 103.521 242.015 103.634 241.921C103.754 241.821 103.848 241.698 103.914 241.551C103.988 241.398 104.024 241.221 104.024 241.021ZM101.654 237.401C101.654 237.588 101.691 237.755 101.764 237.901C101.838 238.041 101.934 238.168 102.054 238.281C102.181 238.395 102.324 238.501 102.484 238.601C102.644 238.695 102.811 238.785 102.984 238.871C103.284 238.638 103.504 238.408 103.644 238.181C103.791 237.955 103.864 237.705 103.864 237.431C103.864 237.091 103.758 236.831 103.544 236.651C103.338 236.465 103.088 236.371 102.794 236.371C102.614 236.371 102.454 236.401 102.314 236.461C102.174 236.521 102.054 236.598 101.954 236.691C101.854 236.785 101.778 236.895 101.724 237.021C101.678 237.141 101.654 237.268 101.654 237.401Z" fill="white"/>
</g>
<g opacity="0.7">
<path d="M172.717 242.211C172.944 242.211 173.154 242.178 173.347 242.111C173.541 242.045 173.707 241.948 173.847 241.821C173.987 241.688 174.097 241.531 174.177 241.351C174.257 241.171 174.297 240.975 174.297 240.761C174.297 240.295 174.157 239.948 173.877 239.721C173.604 239.495 173.224 239.381 172.737 239.381H171.997V239.091L173.437 236.871L173.897 236.431L173.247 236.531H171.267V235.791H174.837V236.081L173.247 238.471L172.897 238.761V238.781L173.237 238.711C173.504 238.718 173.751 238.768 173.977 238.861C174.204 238.948 174.401 239.078 174.567 239.251C174.734 239.418 174.864 239.621 174.957 239.861C175.051 240.095 175.097 240.361 175.097 240.661C175.097 241.021 175.034 241.341 174.907 241.621C174.781 241.901 174.607 242.138 174.387 242.331C174.174 242.518 173.921 242.661 173.627 242.761C173.334 242.861 173.024 242.911 172.697 242.911C172.397 242.911 172.127 242.888 171.887 242.841C171.647 242.795 171.437 242.735 171.257 242.661L171.467 241.951C171.621 242.025 171.801 242.088 172.007 242.141C172.221 242.188 172.457 242.211 172.717 242.211Z" fill="white"/>
<path d="M176.317 242.331C176.317 242.151 176.367 242.011 176.467 241.911C176.573 241.805 176.713 241.751 176.887 241.751C177.067 241.751 177.21 241.805 177.317 241.911C177.423 242.011 177.477 242.151 177.477 242.331C177.477 242.505 177.423 242.645 177.317 242.751C177.21 242.858 177.067 242.911 176.887 242.911C176.713 242.911 176.573 242.858 176.467 242.751C176.367 242.645 176.317 242.505 176.317 242.331Z" fill="white"/>
<path d="M182.885 240.681C182.885 240.988 182.839 241.278 182.745 241.551C182.652 241.818 182.515 242.055 182.335 242.261C182.155 242.461 181.932 242.621 181.665 242.741C181.399 242.855 181.095 242.911 180.755 242.911C180.422 242.911 180.122 242.858 179.855 242.751C179.589 242.645 179.359 242.488 179.165 242.281C178.972 242.068 178.822 241.808 178.715 241.501C178.615 241.195 178.565 240.841 178.565 240.441C178.565 239.781 178.649 239.175 178.815 238.621C178.989 238.061 179.225 237.575 179.525 237.161C179.825 236.748 180.179 236.415 180.585 236.161C180.999 235.901 181.445 235.738 181.925 235.671L182.095 236.311C181.722 236.378 181.382 236.505 181.075 236.691C180.769 236.878 180.499 237.108 180.265 237.381C180.039 237.655 179.852 237.961 179.705 238.301C179.559 238.641 179.459 238.991 179.405 239.351C179.512 239.171 179.692 239.008 179.945 238.861C180.199 238.708 180.509 238.631 180.875 238.631C181.502 238.631 181.992 238.811 182.345 239.171C182.705 239.531 182.885 240.035 182.885 240.681ZM182.055 240.761C182.055 240.288 181.945 239.931 181.725 239.691C181.505 239.451 181.165 239.331 180.705 239.331C180.379 239.331 180.095 239.411 179.855 239.571C179.622 239.731 179.459 239.911 179.365 240.111C179.352 240.205 179.345 240.281 179.345 240.341C179.345 240.401 179.345 240.468 179.345 240.541C179.345 240.748 179.372 240.951 179.425 241.151C179.485 241.351 179.575 241.531 179.695 241.691C179.815 241.845 179.962 241.971 180.135 242.071C180.315 242.165 180.525 242.211 180.765 242.211C180.959 242.211 181.132 242.175 181.285 242.101C181.445 242.028 181.582 241.928 181.695 241.801C181.809 241.675 181.895 241.521 181.955 241.341C182.022 241.161 182.055 240.968 182.055 240.761Z" fill="white"/>
</g>
<line x1="19.9766" y1="184.161" x2="330.616" y2="184.161" stroke="#9DCAFF"/>
<line x1="19.9766" y1="228.539" x2="330.616" y2="228.539" stroke="#9DCAFF"/>
<g opacity="0.7">
<path d="M250.437 242.212C250.897 242.212 251.277 242.078 251.577 241.812C251.877 241.545 252.027 241.158 252.027 240.652C252.027 240.165 251.877 239.802 251.577 239.562C251.284 239.322 250.877 239.202 250.357 239.202L249.517 239.252V235.792H252.637V236.532H250.267V238.522L250.697 238.502C251.357 238.508 251.877 238.692 252.257 239.052C252.637 239.412 252.827 239.928 252.827 240.602C252.827 240.975 252.764 241.308 252.637 241.602C252.51 241.888 252.337 242.128 252.117 242.322C251.904 242.515 251.65 242.662 251.357 242.762C251.064 242.862 250.75 242.912 250.417 242.912C250.117 242.912 249.864 242.895 249.657 242.862C249.45 242.828 249.257 242.778 249.077 242.712L249.287 242.032C249.44 242.092 249.604 242.138 249.777 242.172C249.957 242.198 250.177 242.212 250.437 242.212Z" fill="white"/>
<path d="M254.246 242.332C254.246 242.152 254.296 242.012 254.396 241.912C254.503 241.805 254.643 241.752 254.816 241.752C254.996 241.752 255.14 241.805 255.246 241.912C255.353 242.012 255.406 242.152 255.406 242.332C255.406 242.505 255.353 242.645 255.246 242.752C255.14 242.858 254.996 242.912 254.816 242.912C254.643 242.912 254.503 242.858 254.396 242.752C254.296 242.645 254.246 242.505 254.246 242.332Z" fill="white"/>
<path d="M261.135 240.642H259.955V242.792H259.175V240.642H256.095V240.312L259.415 235.682H259.955V239.942H261.135V240.642ZM259.175 237.762L259.275 236.942H259.245L258.895 237.622L257.485 239.532L257.005 240.022L257.705 239.942H259.175V237.762Z" fill="white"/>
</g>
<g opacity="0.7">
<path d="M321.442 242.791L323.952 236.931L324.392 236.441L323.802 236.531H320.952V235.791H325.132V236.061L322.252 242.791H321.442Z" fill="white"/>
<path d="M325.178 242.331C325.178 242.151 325.228 242.011 325.328 241.911C325.435 241.805 325.575 241.751 325.748 241.751C325.928 241.751 326.071 241.805 326.178 241.911C326.285 242.011 326.338 242.151 326.338 242.331C326.338 242.505 326.285 242.645 326.178 242.751C326.071 242.858 325.928 242.911 325.748 242.911C325.575 242.911 325.435 242.858 325.328 242.751C325.228 242.645 325.178 242.505 325.178 242.331Z" fill="white"/>
<path d="M331.287 237.381C331.287 237.735 331.22 238.098 331.087 238.471C330.96 238.838 330.79 239.208 330.577 239.581C330.37 239.955 330.137 240.321 329.877 240.681C329.617 241.035 329.357 241.371 329.097 241.691L328.607 242.121V242.161L329.247 242.051H331.427V242.791H327.447V242.501C327.593 242.348 327.77 242.158 327.977 241.931C328.183 241.705 328.397 241.455 328.617 241.181C328.843 240.901 329.063 240.608 329.277 240.301C329.497 239.988 329.693 239.671 329.867 239.351C330.047 239.031 330.19 238.715 330.297 238.401C330.403 238.088 330.457 237.791 330.457 237.511C330.457 237.185 330.363 236.915 330.177 236.701C329.99 236.481 329.707 236.371 329.327 236.371C329.073 236.371 328.827 236.425 328.587 236.531C328.347 236.631 328.14 236.748 327.967 236.881L327.637 236.311C327.87 236.111 328.147 235.955 328.467 235.841C328.787 235.728 329.13 235.671 329.497 235.671C329.783 235.671 330.037 235.715 330.257 235.801C330.477 235.881 330.663 235.998 330.817 236.151C330.97 236.305 331.087 236.488 331.167 236.701C331.247 236.908 331.287 237.135 331.287 237.381Z" fill="white"/>
</g>
<g opacity="0.7">
<path d="M0.392822 183.5C0.392822 182.3 0.586155 181.397 0.972822 180.79C1.36616 180.183 1.93616 179.88 2.68282 179.88C3.48949 179.88 4.07282 180.18 4.43282 180.78C4.79949 181.373 4.98282 182.28 4.98282 183.5C4.98282 184.7 4.78616 185.603 4.39282 186.21C4.00616 186.817 3.43616 187.12 2.68282 187.12C1.88949 187.12 1.30949 186.803 0.942822 186.17C0.576156 185.537 0.392822 184.647 0.392822 183.5ZM1.22282 183.5C1.22282 183.933 1.24949 184.33 1.30282 184.69C1.36282 185.043 1.45282 185.35 1.57282 185.61C1.69282 185.863 1.84282 186.063 2.02282 186.21C2.20949 186.35 2.42949 186.42 2.68282 186.42C3.18949 186.42 3.55949 186.187 3.79282 185.72C4.03282 185.247 4.15282 184.507 4.15282 183.5C4.15282 183.073 4.12616 182.68 4.07282 182.32C4.02616 181.96 3.94282 181.65 3.82282 181.39C3.70949 181.13 3.55949 180.93 3.37282 180.79C3.18616 180.65 2.95616 180.58 2.68282 180.58C2.18282 180.58 1.81282 180.817 1.57282 181.29C1.33949 181.763 1.22282 182.5 1.22282 183.5Z" fill="white"/>
<path d="M5.90204 186.54C5.90204 186.36 5.95204 186.22 6.05204 186.12C6.15871 186.013 6.29871 185.96 6.47204 185.96C6.65204 185.96 6.79537 186.013 6.90204 186.12C7.00871 186.22 7.06204 186.36 7.06204 186.54C7.06204 186.713 7.00871 186.853 6.90204 186.96C6.79537 187.067 6.65204 187.12 6.47204 187.12C6.29871 187.12 6.15871 187.067 6.05204 186.96C5.95204 186.853 5.90204 186.713 5.90204 186.54Z" fill="white"/>
<path d="M12.0107 181.59C12.0107 181.943 11.944 182.307 11.8107 182.68C11.684 183.047 11.514 183.417 11.3007 183.79C11.094 184.163 10.8607 184.53 10.6007 184.89C10.3407 185.243 10.0807 185.58 9.82071 185.9L9.33071 186.33V186.37L9.97071 186.26H12.1507V187H8.17071V186.71C8.31738 186.557 8.49405 186.367 8.70071 186.14C8.90738 185.913 9.12071 185.663 9.34071 185.39C9.56738 185.11 9.78738 184.817 10.0007 184.51C10.2207 184.197 10.4174 183.88 10.5907 183.56C10.7707 183.24 10.914 182.923 11.0207 182.61C11.1274 182.297 11.1807 182 11.1807 181.72C11.1807 181.393 11.0874 181.123 10.9007 180.91C10.714 180.69 10.4307 180.58 10.0507 180.58C9.79738 180.58 9.55071 180.633 9.31071 180.74C9.07071 180.84 8.86405 180.957 8.69071 181.09L8.36071 180.52C8.59405 180.32 8.87071 180.163 9.19071 180.05C9.51071 179.937 9.85405 179.88 10.2207 179.88C10.5074 179.88 10.7607 179.923 10.9807 180.01C11.2007 180.09 11.3874 180.207 11.5407 180.36C11.694 180.513 11.8107 180.697 11.8907 180.91C11.9707 181.117 12.0107 181.343 12.0107 181.59Z" fill="white"/>
</g>
<g opacity="0.7">
<path d="M0.392822 160.5C0.392822 159.3 0.586155 158.397 0.972822 157.79C1.36616 157.183 1.93616 156.88 2.68282 156.88C3.48949 156.88 4.07282 157.18 4.43282 157.78C4.79949 158.373 4.98282 159.28 4.98282 160.5C4.98282 161.7 4.78616 162.603 4.39282 163.21C4.00616 163.817 3.43616 164.12 2.68282 164.12C1.88949 164.12 1.30949 163.803 0.942822 163.17C0.576156 162.537 0.392822 161.647 0.392822 160.5ZM1.22282 160.5C1.22282 160.933 1.24949 161.33 1.30282 161.69C1.36282 162.043 1.45282 162.35 1.57282 162.61C1.69282 162.863 1.84282 163.063 2.02282 163.21C2.20949 163.35 2.42949 163.42 2.68282 163.42C3.18949 163.42 3.55949 163.187 3.79282 162.72C4.03282 162.247 4.15282 161.507 4.15282 160.5C4.15282 160.073 4.12616 159.68 4.07282 159.32C4.02616 158.96 3.94282 158.65 3.82282 158.39C3.70949 158.13 3.55949 157.93 3.37282 157.79C3.18616 157.65 2.95616 157.58 2.68282 157.58C2.18282 157.58 1.81282 157.817 1.57282 158.29C1.33949 158.763 1.22282 159.5 1.22282 160.5Z" fill="white"/>
<path d="M5.90204 163.54C5.90204 163.36 5.95204 163.22 6.05204 163.12C6.15871 163.013 6.29871 162.96 6.47204 162.96C6.65204 162.96 6.79537 163.013 6.90204 163.12C7.00871 163.22 7.06204 163.36 7.06204 163.54C7.06204 163.713 7.00871 163.853 6.90204 163.96C6.79537 164.067 6.65204 164.12 6.47204 164.12C6.29871 164.12 6.15871 164.067 6.05204 163.96C5.95204 163.853 5.90204 163.713 5.90204 163.54Z" fill="white"/>
<path d="M9.89071 163.42C10.1174 163.42 10.3274 163.387 10.5207 163.32C10.714 163.253 10.8807 163.157 11.0207 163.03C11.1607 162.897 11.2707 162.74 11.3507 162.56C11.4307 162.38 11.4707 162.183 11.4707 161.97C11.4707 161.503 11.3307 161.157 11.0507 160.93C10.7774 160.703 10.3974 160.59 9.91071 160.59H9.17071V160.3L10.6107 158.08L11.0707 157.64L10.4207 157.74H8.44071V157H12.0107V157.29L10.4207 159.68L10.0707 159.97V159.99L10.4107 159.92C10.6774 159.927 10.924 159.977 11.1507 160.07C11.3774 160.157 11.574 160.287 11.7407 160.46C11.9074 160.627 12.0374 160.83 12.1307 161.07C12.224 161.303 12.2707 161.57 12.2707 161.87C12.2707 162.23 12.2074 162.55 12.0807 162.83C11.954 163.11 11.7807 163.347 11.5607 163.54C11.3474 163.727 11.094 163.87 10.8007 163.97C10.5074 164.07 10.1974 164.12 9.87071 164.12C9.57071 164.12 9.30071 164.097 9.06071 164.05C8.82071 164.003 8.61071 163.943 8.43071 163.87L8.64071 163.16C8.79405 163.233 8.97405 163.297 9.18071 163.35C9.39405 163.397 9.63071 163.42 9.89071 163.42Z" fill="white"/>
</g>
<g opacity="0.7">
<path d="M0.392822 137.5C0.392822 136.3 0.586155 135.397 0.972822 134.79C1.36616 134.183 1.93616 133.88 2.68282 133.88C3.48949 133.88 4.07282 134.18 4.43282 134.78C4.79949 135.373 4.98282 136.28 4.98282 137.5C4.98282 138.7 4.78616 139.603 4.39282 140.21C4.00616 140.817 3.43616 141.12 2.68282 141.12C1.88949 141.12 1.30949 140.803 0.942822 140.17C0.576156 139.537 0.392822 138.647 0.392822 137.5ZM1.22282 137.5C1.22282 137.933 1.24949 138.33 1.30282 138.69C1.36282 139.043 1.45282 139.35 1.57282 139.61C1.69282 139.863 1.84282 140.063 2.02282 140.21C2.20949 140.35 2.42949 140.42 2.68282 140.42C3.18949 140.42 3.55949 140.187 3.79282 139.72C4.03282 139.247 4.15282 138.507 4.15282 137.5C4.15282 137.073 4.12616 136.68 4.07282 136.32C4.02616 135.96 3.94282 135.65 3.82282 135.39C3.70949 135.13 3.55949 134.93 3.37282 134.79C3.18616 134.65 2.95616 134.58 2.68282 134.58C2.18282 134.58 1.81282 134.817 1.57282 135.29C1.33949 135.763 1.22282 136.5 1.22282 137.5Z" fill="white"/>
<path d="M5.90204 140.54C5.90204 140.36 5.95204 140.22 6.05204 140.12C6.15871 140.013 6.29871 139.96 6.47204 139.96C6.65204 139.96 6.79537 140.013 6.90204 140.12C7.00871 140.22 7.06204 140.36 7.06204 140.54C7.06204 140.713 7.00871 140.853 6.90204 140.96C6.79537 141.067 6.65204 141.12 6.47204 141.12C6.29871 141.12 6.15871 141.067 6.05204 140.96C5.95204 140.853 5.90204 140.713 5.90204 140.54Z" fill="white"/>
<path d="M12.7907 138.85H11.6107V141H10.8307V138.85H7.75071V138.52L11.0707 133.89H11.6107V138.15H12.7907V138.85ZM10.8307 135.97L10.9307 135.15H10.9007L10.5507 135.83L9.14071 137.74L8.66071 138.23L9.36071 138.15H10.8307V135.97Z" fill="white"/>
</g>
<g opacity="0.7">
<path d="M0.392822 115.5C0.392822 114.3 0.586155 113.397 0.972822 112.79C1.36616 112.183 1.93616 111.88 2.68282 111.88C3.48949 111.88 4.07282 112.18 4.43282 112.78C4.79949 113.373 4.98282 114.28 4.98282 115.5C4.98282 116.7 4.78616 117.603 4.39282 118.21C4.00616 118.817 3.43616 119.12 2.68282 119.12C1.88949 119.12 1.30949 118.803 0.942822 118.17C0.576156 117.537 0.392822 116.647 0.392822 115.5ZM1.22282 115.5C1.22282 115.933 1.24949 116.33 1.30282 116.69C1.36282 117.043 1.45282 117.35 1.57282 117.61C1.69282 117.863 1.84282 118.063 2.02282 118.21C2.20949 118.35 2.42949 118.42 2.68282 118.42C3.18949 118.42 3.55949 118.187 3.79282 117.72C4.03282 117.247 4.15282 116.507 4.15282 115.5C4.15282 115.073 4.12616 114.68 4.07282 114.32C4.02616 113.96 3.94282 113.65 3.82282 113.39C3.70949 113.13 3.55949 112.93 3.37282 112.79C3.18616 112.65 2.95616 112.58 2.68282 112.58C2.18282 112.58 1.81282 112.817 1.57282 113.29C1.33949 113.763 1.22282 114.5 1.22282 115.5Z" fill="white"/>
<path d="M5.90204 118.54C5.90204 118.36 5.95204 118.22 6.05204 118.12C6.15871 118.013 6.29871 117.96 6.47204 117.96C6.65204 117.96 6.79537 118.013 6.90204 118.12C7.00871 118.22 7.06204 118.36 7.06204 118.54C7.06204 118.713 7.00871 118.853 6.90204 118.96C6.79537 119.067 6.65204 119.12 6.47204 119.12C6.29871 119.12 6.15871 119.067 6.05204 118.96C5.95204 118.853 5.90204 118.713 5.90204 118.54Z" fill="white"/>
<path d="M9.68071 118.42C10.1407 118.42 10.5207 118.287 10.8207 118.02C11.1207 117.753 11.2707 117.367 11.2707 116.86C11.2707 116.373 11.1207 116.01 10.8207 115.77C10.5274 115.53 10.1207 115.41 9.60071 115.41L8.76071 115.46V112H11.8807V112.74H9.51071V114.73L9.94071 114.71C10.6007 114.717 11.1207 114.9 11.5007 115.26C11.8807 115.62 12.0707 116.137 12.0707 116.81C12.0707 117.183 12.0074 117.517 11.8807 117.81C11.754 118.097 11.5807 118.337 11.3607 118.53C11.1474 118.723 10.894 118.87 10.6007 118.97C10.3074 119.07 9.99404 119.12 9.66071 119.12C9.36071 119.12 9.10738 119.103 8.90071 119.07C8.69405 119.037 8.50071 118.987 8.32071 118.92L8.53071 118.24C8.68405 118.3 8.84738 118.347 9.02071 118.38C9.20071 118.407 9.42071 118.42 9.68071 118.42Z" fill="white"/>
</g>
<g opacity="0.7">
<path d="M0.392822 94.4999C0.392822 93.2999 0.586155 92.3965 0.972822 91.7899C1.36616 91.1832 1.93616 90.8799 2.68282 90.8799C3.48949 90.8799 4.07282 91.1799 4.43282 91.7799C4.79949 92.3732 4.98282 93.2799 4.98282 94.4999C4.98282 95.6999 4.78616 96.6032 4.39282 97.2099C4.00616 97.8165 3.43616 98.1199 2.68282 98.1199C1.88949 98.1199 1.30949 97.8032 0.942822 97.1699C0.576156 96.5365 0.392822 95.6465 0.392822 94.4999ZM1.22282 94.4999C1.22282 94.9332 1.24949 95.3299 1.30282 95.6899C1.36282 96.0432 1.45282 96.3499 1.57282 96.6099C1.69282 96.8632 1.84282 97.0632 2.02282 97.2099C2.20949 97.3499 2.42949 97.4199 2.68282 97.4199C3.18949 97.4199 3.55949 97.1865 3.79282 96.7199C4.03282 96.2465 4.15282 95.5065 4.15282 94.4999C4.15282 94.0732 4.12616 93.6799 4.07282 93.3199C4.02616 92.9599 3.94282 92.6499 3.82282 92.3899C3.70949 92.1299 3.55949 91.9299 3.37282 91.7899C3.18616 91.6499 2.95616 91.5799 2.68282 91.5799C2.18282 91.5799 1.81282 91.8165 1.57282 92.2899C1.33949 92.7632 1.22282 93.4999 1.22282 94.4999Z" fill="white"/>
<path d="M5.90204 97.5399C5.90204 97.3599 5.95204 97.2199 6.05204 97.1199C6.15871 97.0132 6.29871 96.9599 6.47204 96.9599C6.65204 96.9599 6.79537 97.0132 6.90204 97.1199C7.00871 97.2199 7.06204 97.3599 7.06204 97.5399C7.06204 97.7132 7.00871 97.8532 6.90204 97.9599C6.79537 98.0665 6.65204 98.1199 6.47204 98.1199C6.29871 98.1199 6.15871 98.0665 6.05204 97.9599C5.95204 97.8532 5.90204 97.7132 5.90204 97.5399Z" fill="white"/>
<path d="M12.4707 95.8899C12.4707 96.1965 12.424 96.4865 12.3307 96.7599C12.2374 97.0265 12.1007 97.2632 11.9207 97.4699C11.7407 97.6699 11.5174 97.8299 11.2507 97.9499C10.984 98.0632 10.6807 98.1199 10.3407 98.1199C10.0074 98.1199 9.70738 98.0665 9.44071 97.9599C9.17405 97.8532 8.94405 97.6965 8.75071 97.4899C8.55738 97.2765 8.40738 97.0165 8.30071 96.7099C8.20071 96.4032 8.15071 96.0499 8.15071 95.6499C8.15071 94.9899 8.23405 94.3832 8.40071 93.8299C8.57405 93.2699 8.81071 92.7832 9.11071 92.3699C9.41071 91.9565 9.76405 91.6232 10.1707 91.3699C10.584 91.1099 11.0307 90.9465 11.5107 90.8799L11.6807 91.5199C11.3074 91.5865 10.9674 91.7132 10.6607 91.8999C10.354 92.0865 10.084 92.3165 9.85071 92.5899C9.62405 92.8632 9.43738 93.1699 9.29071 93.5099C9.14405 93.8499 9.04405 94.1999 8.99071 94.5599C9.09738 94.3799 9.27738 94.2165 9.53071 94.0699C9.78405 93.9165 10.094 93.8399 10.4607 93.8399C11.0874 93.8399 11.5774 94.0199 11.9307 94.3799C12.2907 94.7399 12.4707 95.2432 12.4707 95.8899ZM11.6407 95.9699C11.6407 95.4965 11.5307 95.1399 11.3107 94.8999C11.0907 94.6599 10.7507 94.5399 10.2907 94.5399C9.96405 94.5399 9.68071 94.6199 9.44071 94.7799C9.20738 94.9399 9.04405 95.1199 8.95071 95.3199C8.93738 95.4132 8.93071 95.4899 8.93071 95.5499C8.93071 95.6099 8.93071 95.6765 8.93071 95.7499C8.93071 95.9565 8.95738 96.1599 9.01071 96.3599C9.07071 96.5599 9.16071 96.7399 9.28071 96.8999C9.40071 97.0532 9.54738 97.1799 9.72071 97.2799C9.90071 97.3732 10.1107 97.4199 10.3507 97.4199C10.544 97.4199 10.7174 97.3832 10.8707 97.3099C11.0307 97.2365 11.1674 97.1365 11.2807 97.0099C11.394 96.8832 11.4807 96.7299 11.5407 96.5499C11.6074 96.3699 11.6407 96.1765 11.6407 95.9699Z" fill="white"/>
</g>
<g opacity="0.7">
<path d="M0.392822 71.4999C0.392822 70.2999 0.586155 69.3965 0.972822 68.7899C1.36616 68.1832 1.93616 67.8799 2.68282 67.8799C3.48949 67.8799 4.07282 68.1799 4.43282 68.7799C4.79949 69.3732 4.98282 70.2799 4.98282 71.4999C4.98282 72.6999 4.78616 73.6032 4.39282 74.2099C4.00616 74.8165 3.43616 75.1199 2.68282 75.1199C1.88949 75.1199 1.30949 74.8032 0.942822 74.1699C0.576156 73.5365 0.392822 72.6465 0.392822 71.4999ZM1.22282 71.4999C1.22282 71.9332 1.24949 72.3299 1.30282 72.6899C1.36282 73.0432 1.45282 73.3499 1.57282 73.6099C1.69282 73.8632 1.84282 74.0632 2.02282 74.2099C2.20949 74.3499 2.42949 74.4199 2.68282 74.4199C3.18949 74.4199 3.55949 74.1865 3.79282 73.7199C4.03282 73.2465 4.15282 72.5065 4.15282 71.4999C4.15282 71.0732 4.12616 70.6799 4.07282 70.3199C4.02616 69.9599 3.94282 69.6499 3.82282 69.3899C3.70949 69.1299 3.55949 68.9299 3.37282 68.7899C3.18616 68.6499 2.95616 68.5799 2.68282 68.5799C2.18282 68.5799 1.81282 68.8165 1.57282 69.2899C1.33949 69.7632 1.22282 70.4999 1.22282 71.4999Z" fill="white"/>
<path d="M5.90204 74.5399C5.90204 74.3599 5.95204 74.2199 6.05204 74.1199C6.15871 74.0132 6.29871 73.9599 6.47204 73.9599C6.65204 73.9599 6.79537 74.0132 6.90204 74.1199C7.00871 74.2199 7.06204 74.3599 7.06204 74.5399C7.06204 74.7132 7.00871 74.8532 6.90204 74.9599C6.79537 75.0665 6.65204 75.1199 6.47204 75.1199C6.29871 75.1199 6.15871 75.0665 6.05204 74.9599C5.95204 74.8532 5.90204 74.7132 5.90204 74.5399Z" fill="white"/>
<path d="M8.65071 74.9999L11.1607 69.1399L11.6007 68.6499L11.0107 68.7399H8.16071V67.9999H12.3407V68.2699L9.46071 74.9999H8.65071Z" fill="white"/>
</g>
<g opacity="0.7">
<path d="M0.392822 47.4999C0.392822 46.2999 0.586155 45.3965 0.972822 44.7899C1.36616 44.1832 1.93616 43.8799 2.68282 43.8799C3.48949 43.8799 4.07282 44.1799 4.43282 44.7799C4.79949 45.3732 4.98282 46.2799 4.98282 47.4999C4.98282 48.6999 4.78616 49.6032 4.39282 50.2099C4.00616 50.8165 3.43616 51.1199 2.68282 51.1199C1.88949 51.1199 1.30949 50.8032 0.942822 50.1699C0.576156 49.5365 0.392822 48.6465 0.392822 47.4999ZM1.22282 47.4999C1.22282 47.9332 1.24949 48.3299 1.30282 48.6899C1.36282 49.0432 1.45282 49.3499 1.57282 49.6099C1.69282 49.8632 1.84282 50.0632 2.02282 50.2099C2.20949 50.3499 2.42949 50.4199 2.68282 50.4199C3.18949 50.4199 3.55949 50.1865 3.79282 49.7199C4.03282 49.2465 4.15282 48.5065 4.15282 47.4999C4.15282 47.0732 4.12616 46.6799 4.07282 46.3199C4.02616 45.9599 3.94282 45.6499 3.82282 45.3899C3.70949 45.1299 3.55949 44.9299 3.37282 44.7899C3.18616 44.6499 2.95616 44.5799 2.68282 44.5799C2.18282 44.5799 1.81282 44.8165 1.57282 45.2899C1.33949 45.7632 1.22282 46.4999 1.22282 47.4999Z" fill="white"/>
<path d="M5.90204 50.5399C5.90204 50.3599 5.95204 50.2199 6.05204 50.1199C6.15871 50.0132 6.29871 49.9599 6.47204 49.9599C6.65204 49.9599 6.79537 50.0132 6.90204 50.1199C7.00871 50.2199 7.06204 50.3599 7.06204 50.5399C7.06204 50.7132 7.00871 50.8532 6.90204 50.9599C6.79537 51.0665 6.65204 51.1199 6.47204 51.1199C6.29871 51.1199 6.15871 51.0665 6.05204 50.9599C5.95204 50.8532 5.90204 50.7132 5.90204 50.5399Z" fill="white"/>
<path d="M8.23071 49.3299C8.23071 48.9099 8.34071 48.5465 8.56071 48.2399C8.78071 47.9265 9.12405 47.6432 9.59071 47.3899C9.42405 47.2899 9.26738 47.1865 9.12071 47.0799C8.98071 46.9665 8.85405 46.8399 8.74071 46.6999C8.63405 46.5599 8.54738 46.4032 8.48071 46.2299C8.42071 46.0565 8.39071 45.8565 8.39071 45.6299C8.39071 45.3699 8.43405 45.1332 8.52071 44.9199C8.61405 44.7065 8.74405 44.5232 8.91071 44.3699C9.08405 44.2165 9.28738 44.0965 9.52071 44.0099C9.76071 43.9232 10.0307 43.8799 10.3307 43.8799C10.6107 43.8799 10.864 43.9199 11.0907 43.9999C11.3174 44.0799 11.5074 44.1899 11.6607 44.3299C11.8207 44.4699 11.944 44.6365 12.0307 44.8299C12.1174 45.0232 12.1607 45.2365 12.1607 45.4699C12.1607 45.8499 12.074 46.1865 11.9007 46.4799C11.7274 46.7665 11.4407 47.0499 11.0407 47.3299C11.214 47.4299 11.3774 47.5399 11.5307 47.6599C11.6907 47.7799 11.8274 47.9132 11.9407 48.0599C12.0607 48.2065 12.154 48.3732 12.2207 48.5599C12.2874 48.7399 12.3207 48.9465 12.3207 49.1799C12.3207 49.4665 12.274 49.7299 12.1807 49.9699C12.0874 50.2032 11.9507 50.4065 11.7707 50.5799C11.5907 50.7465 11.3707 50.8799 11.1107 50.9799C10.8507 51.0732 10.554 51.1199 10.2207 51.1199C9.90071 51.1199 9.61738 51.0732 9.37071 50.9799C9.12405 50.8865 8.91405 50.7599 8.74071 50.5999C8.57405 50.4399 8.44738 50.2532 8.36071 50.0399C8.27405 49.8199 8.23071 49.5832 8.23071 49.3299ZM11.5407 49.2299C11.5407 49.0299 11.5007 48.8565 11.4207 48.7099C11.3407 48.5565 11.234 48.4199 11.1007 48.2999C10.974 48.1732 10.8274 48.0599 10.6607 47.9599C10.494 47.8599 10.3207 47.7632 10.1407 47.6699C9.73405 47.8965 9.44405 48.1499 9.27071 48.4299C9.09738 48.7099 9.01071 48.9765 9.01071 49.2299C9.01071 49.3899 9.03738 49.5432 9.09071 49.6899C9.14405 49.8365 9.22405 49.9632 9.33071 50.0699C9.43738 50.1765 9.56738 50.2632 9.72071 50.3299C9.88071 50.3899 10.064 50.4199 10.2707 50.4199C10.4374 50.4199 10.5974 50.3965 10.7507 50.3499C10.904 50.2965 11.0374 50.2232 11.1507 50.1299C11.2707 50.0299 11.364 49.9065 11.4307 49.7599C11.504 49.6065 11.5407 49.4299 11.5407 49.2299ZM9.17071 45.6099C9.17071 45.7965 9.20738 45.9632 9.28071 46.1099C9.35405 46.2499 9.45071 46.3765 9.57071 46.4899C9.69738 46.6032 9.84071 46.7099 10.0007 46.8099C10.1607 46.9032 10.3274 46.9932 10.5007 47.0799C10.8007 46.8465 11.0207 46.6165 11.1607 46.3899C11.3074 46.1632 11.3807 45.9132 11.3807 45.6399C11.3807 45.2999 11.274 45.0399 11.0607 44.8599C10.854 44.6732 10.604 44.5799 10.3107 44.5799C10.1307 44.5799 9.97071 44.6099 9.83071 44.6699C9.69071 44.7299 9.57071 44.8065 9.47071 44.8999C9.37071 44.9932 9.29405 45.1032 9.24071 45.2299C9.19405 45.3499 9.17071 45.4765 9.17071 45.6099Z" fill="white"/>
</g>
<g opacity="0.7">
<path d="M0.392822 26.4999C0.392822 25.2999 0.586155 24.3965 0.972822 23.7899C1.36616 23.1832 1.93616 22.8799 2.68282 22.8799C3.48949 22.8799 4.07282 23.1799 4.43282 23.7799C4.79949 24.3732 4.98282 25.2799 4.98282 26.4999C4.98282 27.6999 4.78616 28.6032 4.39282 29.2099C4.00616 29.8165 3.43616 30.1199 2.68282 30.1199C1.88949 30.1199 1.30949 29.8032 0.942822 29.1699C0.576156 28.5365 0.392822 27.6465 0.392822 26.4999ZM1.22282 26.4999C1.22282 26.9332 1.24949 27.3299 1.30282 27.6899C1.36282 28.0432 1.45282 28.3499 1.57282 28.6099C1.69282 28.8632 1.84282 29.0632 2.02282 29.2099C2.20949 29.3499 2.42949 29.4199 2.68282 29.4199C3.18949 29.4199 3.55949 29.1865 3.79282 28.7199C4.03282 28.2465 4.15282 27.5065 4.15282 26.4999C4.15282 26.0732 4.12616 25.6799 4.07282 25.3199C4.02616 24.9599 3.94282 24.6499 3.82282 24.3899C3.70949 24.1299 3.55949 23.9299 3.37282 23.7899C3.18616 23.6499 2.95616 23.5799 2.68282 23.5799C2.18282 23.5799 1.81282 23.8165 1.57282 24.2899C1.33949 24.7632 1.22282 25.4999 1.22282 26.4999Z" fill="white"/>
<path d="M5.90204 29.5399C5.90204 29.3599 5.95204 29.2199 6.05204 29.1199C6.15871 29.0132 6.29871 28.9599 6.47204 28.9599C6.65204 28.9599 6.79537 29.0132 6.90204 29.1199C7.00871 29.2199 7.06204 29.3599 7.06204 29.5399C7.06204 29.7132 7.00871 29.8532 6.90204 29.9599C6.79537 30.0665 6.65204 30.1199 6.47204 30.1199C6.29871 30.1199 6.15871 30.0665 6.05204 29.9599C5.95204 29.8532 5.90204 29.7132 5.90204 29.5399Z" fill="white"/>
<path d="M8.07071 25.1199C8.07071 24.7999 8.11738 24.5032 8.21071 24.2299C8.30405 23.9565 8.44071 23.7199 8.62071 23.5199C8.80071 23.3199 9.02405 23.1632 9.29071 23.0499C9.56405 22.9365 9.88071 22.8799 10.2407 22.8799C10.9207 22.8799 11.4507 23.0999 11.8307 23.5399C12.2107 23.9799 12.4007 24.5999 12.4007 25.3999C12.4007 26.1532 12.314 26.8132 12.1407 27.3799C11.974 27.9399 11.7407 28.4132 11.4407 28.7999C11.1407 29.1865 10.784 29.4899 10.3707 29.7099C9.96405 29.9232 9.52071 30.0599 9.04071 30.1199L8.86071 29.4799C9.24738 29.4199 9.59405 29.3065 9.90071 29.1399C10.214 28.9732 10.4807 28.7632 10.7007 28.5099C10.9274 28.2565 11.1107 27.9699 11.2507 27.6499C11.3907 27.3232 11.4874 26.9699 11.5407 26.5899C11.3607 26.8032 11.1607 26.9532 10.9407 27.0399C10.7274 27.1199 10.444 27.1599 10.0907 27.1599C9.81738 27.1599 9.55738 27.1165 9.31071 27.0299C9.07071 26.9365 8.85738 26.8032 8.67071 26.6299C8.48405 26.4565 8.33738 26.2432 8.23071 25.9899C8.12405 25.7365 8.07071 25.4465 8.07071 25.1199ZM8.90071 25.0399C8.90071 25.5132 9.02405 25.8699 9.27071 26.1099C9.52405 26.3432 9.85405 26.4599 10.2607 26.4599C10.5874 26.4599 10.8674 26.4065 11.1007 26.2999C11.334 26.1932 11.5007 26.0532 11.6007 25.8799C11.614 25.7932 11.6207 25.7165 11.6207 25.6499C11.6207 25.5832 11.6207 25.5132 11.6207 25.4399C11.6207 25.1999 11.5907 24.9699 11.5307 24.7499C11.4774 24.5232 11.394 24.3232 11.2807 24.1499C11.1674 23.9699 11.0174 23.8299 10.8307 23.7299C10.6507 23.6299 10.4374 23.5799 10.1907 23.5799C9.78405 23.5799 9.46738 23.7099 9.24071 23.9699C9.01405 24.2232 8.90071 24.5799 8.90071 25.0399Z" fill="white"/>
</g>
<g opacity="0.7">
<path d="M1.04309 9.25988H2.44309V4.41988L2.54309 3.82988L2.14309 4.29988L1.04309 5.08988L0.663086 4.57988L2.86309 2.87988H3.22309V9.25988H4.59309V9.99988H1.04309V9.25988Z" fill="white"/>
<path d="M5.9023 9.53988C5.9023 9.35988 5.9523 9.21988 6.0523 9.11988C6.15897 9.01322 6.29897 8.95988 6.4723 8.95988C6.6523 8.95988 6.79564 9.01322 6.9023 9.11988C7.00897 9.21988 7.0623 9.35988 7.0623 9.53988C7.0623 9.71322 7.00897 9.85321 6.9023 9.95988C6.79564 10.0665 6.6523 10.1199 6.4723 10.1199C6.29897 10.1199 6.15897 10.0665 6.0523 9.95988C5.9523 9.85321 5.9023 9.71322 5.9023 9.53988Z" fill="white"/>
<path d="M7.98098 6.49988C7.98098 5.29988 8.17431 4.39655 8.56098 3.78988C8.95431 3.18322 9.52431 2.87988 10.271 2.87988C11.0776 2.87988 11.661 3.17988 12.021 3.77988C12.3876 4.37322 12.571 5.27988 12.571 6.49988C12.571 7.69988 12.3743 8.60321 11.981 9.20988C11.5943 9.81655 11.0243 10.1199 10.271 10.1199C9.47764 10.1199 8.89764 9.80322 8.53098 9.16988C8.16431 8.53655 7.98098 7.64655 7.98098 6.49988ZM8.81098 6.49988C8.81098 6.93322 8.83764 7.32988 8.89098 7.68988C8.95098 8.04322 9.04098 8.34988 9.16098 8.60988C9.28098 8.86322 9.43098 9.06321 9.61098 9.20988C9.79764 9.34988 10.0176 9.41988 10.271 9.41988C10.7776 9.41988 11.1476 9.18655 11.381 8.71988C11.621 8.24655 11.741 7.50655 11.741 6.49988C11.741 6.07322 11.7143 5.67988 11.661 5.31988C11.6143 4.95988 11.531 4.64988 11.411 4.38988C11.2976 4.12988 11.1476 3.92988 10.961 3.78988C10.7743 3.64988 10.5443 3.57988 10.271 3.57988C9.77098 3.57988 9.40098 3.81655 9.16098 4.28988C8.92764 4.76322 8.81098 5.49988 8.81098 6.49988Z" fill="white"/>
</g>
<line x1="19.3945" y1="2.82324" x2="19.3945" y2="229.038" stroke="#9DCAFF"/>
<line x1="71.3472" y1="3.90576" x2="71.3472" y2="227.956" stroke="#9DCAFF"/>
<line x1="97.3242" y1="3.90576" x2="97.3242" y2="227.956" stroke="#9DCAFF"/>
<line x1="149.278" y1="3.90576" x2="149.278" y2="227.956" stroke="#9DCAFF"/>
<line x1="45.3706" y1="3.90576" x2="45.3706" y2="227.956" stroke="#9DCAFF"/>
<line x1="201.232" y1="3.90576" x2="201.232" y2="227.956" stroke="#9DCAFF"/>
<line x1="279.163" y1="3.90576" x2="279.163" y2="227.956" stroke="#9DCAFF"/>
<line x1="123.301" y1="3.90576" x2="123.301" y2="227.956" stroke="#9DCAFF"/>
<line x1="227.209" y1="3.90576" x2="227.209" y2="227.956" stroke="#9DCAFF"/>
<line x1="305.14" y1="3.90576" x2="305.14" y2="227.956" stroke="#9DCAFF"/>
<line x1="175.255" y1="3.90576" x2="175.255" y2="227.956" stroke="#9DCAFF"/>
<line x1="253.186" y1="3.90576" x2="253.186" y2="227.956" stroke="#9DCAFF"/>
<line x1="19.9766" y1="194.985" x2="330.616" y2="194.985" stroke="#9DCAFF"/>
<line x1="19.9766" y1="173.338" x2="330.616" y2="173.338" stroke="#9DCAFF"/>
<line x1="19.9766" y1="161.432" x2="330.616" y2="161.432" stroke="#9DCAFF"/>
<line x1="19.9766" y1="115.972" x2="330.616" y2="115.972" stroke="#9DCAFF"/>
<line x1="19.9766" y1="206.891" x2="330.616" y2="206.891" stroke="#9DCAFF"/>
<line x1="19.9766" y1="71.5952" x2="330.616" y2="71.5952" stroke="#9DCAFF"/>
<line x1="19.9766" y1="3.40576" x2="331.699" y2="3.40574" stroke="#9DCAFF"/>
<line x1="19.9766" y1="138.702" x2="330.616" y2="138.702" stroke="#9DCAFF"/>
<line x1="19.9766" y1="48.8652" x2="330.616" y2="48.8652" stroke="#9DCAFF"/>
<line x1="19.9766" y1="94.3247" x2="330.616" y2="94.3247" stroke="#9DCAFF"/>
<line x1="19.9766" y1="26.1357" x2="330.616" y2="26.1357" stroke="#9DCAFF"/>
<line x1="331.117" y1="3.90576" x2="331.117" y2="229.038" stroke="#9DCAFF"/>
<circle cx="45.412" cy="173.297" r="2.20592" fill="#007AFF" stroke="#A7C0EC"/>
<circle cx="97.3656" cy="161.39" r="2.20592" fill="#007AFF" stroke="#A7C0EC"/>
<circle cx="97.3656" cy="138.661" r="2.20592" fill="#007AFF" stroke="#A7C0EC"/>
<circle cx="97.3656" cy="115.931" r="2.20592" fill="#007AFF" stroke="#A7C0EC"/>
<circle cx="97.3656" cy="94.2836" r="2.20592" fill="#007AFF" stroke="#A7C0EC"/>
<circle cx="97.3656" cy="71.5541" r="2.20592" fill="#007AFF" stroke="#A7C0EC"/>
<circle cx="97.3656" cy="48.8241" r="2.20592" fill="#007AFF" stroke="#A7C0EC"/>
<circle cx="97.3656" cy="26.0941" r="2.20592" fill="#007AFF" stroke="#A7C0EC"/>
<circle cx="97.3656" cy="3.3651" r="2.20592" fill="#007AFF" stroke="#A7C0EC"/>
<circle cx="45.412" cy="184.12" r="2.20592" fill="#007AFF" stroke="#A7C0EC"/>
<circle cx="45.412" cy="194.944" r="2.20592" fill="#007AFF" stroke="#A7C0EC"/>
<circle cx="45.412" cy="206.85" r="2.20592" fill="#007AFF" stroke="#A7C0EC"/>
<circle cx="71.389" cy="173.297" r="2.20592" fill="#007AFF" stroke="#A7C0EC"/>
<circle cx="123.343" cy="161.39" r="2.20592" fill="#007AFF" stroke="#A7C0EC"/>
<circle cx="123.343" cy="138.661" r="2.20592" fill="#007AFF" stroke="#A7C0EC"/>
<circle cx="123.343" cy="115.931" r="2.20592" fill="#007AFF" stroke="#A7C0EC"/>
<circle cx="123.343" cy="94.2836" r="2.20592" fill="#007AFF" stroke="#A7C0EC"/>
<circle cx="123.343" cy="71.5541" r="2.20592" fill="#007AFF" stroke="#A7C0EC"/>
<circle cx="123.343" cy="48.8241" r="2.20592" fill="#007AFF" stroke="#A7C0EC"/>
<circle cx="123.343" cy="26.0941" r="2.20592" fill="#007AFF" stroke="#A7C0EC"/>
<circle cx="123.343" cy="3.3651" r="2.20592" fill="#007AFF" stroke="#A7C0EC"/>
<circle cx="71.389" cy="184.12" r="2.20592" fill="#007AFF" stroke="#A7C0EC"/>
<circle cx="71.389" cy="194.944" r="2.20592" fill="#007AFF" stroke="#A7C0EC"/>
<circle cx="71.389" cy="206.85" r="2.20592" fill="#007AFF" stroke="#A7C0EC"/>
<circle cx="97.3656" cy="173.297" r="2.20592" fill="#007AFF" stroke="#A7C0EC"/>
<circle cx="149.319" cy="161.39" r="2.20592" fill="#007AFF" stroke="#A7C0EC"/>
<circle cx="149.319" cy="138.661" r="2.20592" fill="#007AFF" stroke="#A7C0EC"/>
<circle cx="149.319" cy="115.931" r="2.20592" fill="#007AFF" stroke="#A7C0EC"/>
<circle cx="149.319" cy="94.2836" r="2.20592" fill="#007AFF" stroke="#A7C0EC"/>
<circle cx="149.319" cy="71.5541" r="2.20592" fill="#007AFF" stroke="#A7C0EC"/>
<circle cx="149.319" cy="48.8241" r="2.20592" fill="#007AFF" stroke="#A7C0EC"/>
<circle cx="149.319" cy="26.0941" r="2.20592" fill="#007AFF" stroke="#A7C0EC"/>
<circle cx="149.319" cy="3.3651" r="2.20592" fill="#007AFF" stroke="#A7C0EC"/>
<circle cx="97.3656" cy="184.12" r="2.20592" fill="#007AFF" stroke="#A7C0EC"/>
<circle cx="97.3656" cy="194.944" r="2.20592" fill="#007AFF" stroke="#A7C0EC"/>
<circle cx="97.3656" cy="206.85" r="2.20592" fill="#007AFF" stroke="#A7C0EC"/>
<circle cx="123.343" cy="173.297" r="2.20592" fill="#007AFF" stroke="#A7C0EC"/>
<circle cx="175.296" cy="161.39" r="2.20592" fill="#007AFF" stroke="#A7C0EC"/>
<circle cx="175.296" cy="138.661" r="2.20592" fill="#007AFF" stroke="#A7C0EC"/>
<circle cx="175.296" cy="115.931" r="2.20592" fill="#007AFF" stroke="#A7C0EC"/>
<circle cx="175.296" cy="94.2836" r="2.20592" fill="#007AFF" stroke="#A7C0EC"/>
<circle cx="175.296" cy="71.5541" r="2.20592" fill="#007AFF" stroke="#A7C0EC"/>
<circle cx="175.296" cy="48.8241" r="2.20592" fill="#007AFF" stroke="#A7C0EC"/>
<circle cx="175.296" cy="26.0941" r="2.20592" fill="#007AFF" stroke="#A7C0EC"/>
<circle cx="175.296" cy="3.3651" r="2.20592" fill="#007AFF" stroke="#A7C0EC"/>
<circle cx="123.343" cy="184.12" r="2.20592" fill="#007AFF" stroke="#A7C0EC"/>
<circle cx="123.343" cy="194.944" r="2.20592" fill="#007AFF" stroke="#A7C0EC"/>
<circle cx="123.343" cy="206.85" r="2.20592" fill="#007AFF" stroke="#A7C0EC"/>
<circle cx="149.319" cy="173.297" r="2.20592" fill="#007AFF" stroke="#A7C0EC"/>
<circle cx="201.273" cy="161.39" r="2.20592" fill="#007AFF" stroke="#A7C0EC"/>
<circle cx="201.273" cy="138.661" r="2.20592" fill="#007AFF" stroke="#A7C0EC"/>
<circle cx="201.273" cy="115.931" r="2.20592" fill="#007AFF" stroke="#A7C0EC"/>
<circle cx="201.273" cy="94.2836" r="2.20592" fill="#007AFF" stroke="#A7C0EC"/>
<circle cx="201.273" cy="71.5541" r="2.20592" fill="#007AFF" stroke="#A7C0EC"/>
<circle cx="201.273" cy="48.8241" r="2.20592" fill="#007AFF" stroke="#A7C0EC"/>
<circle cx="201.273" cy="26.0941" r="2.20592" fill="#007AFF" stroke="#A7C0EC"/>
<circle cx="201.273" cy="3.3651" r="2.20592" fill="#007AFF" stroke="#A7C0EC"/>
<circle cx="149.319" cy="184.12" r="2.20592" fill="#007AFF" stroke="#A7C0EC"/>
<circle cx="149.319" cy="194.944" r="2.20592" fill="#007AFF" stroke="#A7C0EC"/>
<circle cx="149.319" cy="206.85" r="2.20592" fill="#007AFF" stroke="#A7C0EC"/>
<circle cx="175.296" cy="173.297" r="2.20592" fill="#007AFF" stroke="#A7C0EC"/>
<circle cx="227.25" cy="161.39" r="2.20592" fill="#007AFF" stroke="#A7C0EC"/>
<circle cx="227.25" cy="138.661" r="2.20592" fill="#007AFF" stroke="#A7C0EC"/>
<circle cx="227.25" cy="115.931" r="2.20592" fill="#007AFF" stroke="#A7C0EC"/>
<circle cx="227.25" cy="94.2836" r="2.20592" fill="#007AFF" stroke="#A7C0EC"/>
<circle cx="227.25" cy="71.5541" r="2.20592" fill="#007AFF" stroke="#A7C0EC"/>
<circle cx="227.25" cy="48.8241" r="2.20592" fill="#007AFF" stroke="#A7C0EC"/>
<circle cx="227.25" cy="26.0941" r="2.20592" fill="#007AFF" stroke="#A7C0EC"/>
<circle cx="227.25" cy="3.3651" r="2.20592" fill="#007AFF" stroke="#A7C0EC"/>
<circle cx="175.296" cy="184.12" r="2.20592" fill="#007AFF" stroke="#A7C0EC"/>
<circle cx="175.296" cy="194.944" r="2.20592" fill="#007AFF" stroke="#A7C0EC"/>
<circle cx="201.273" cy="173.297" r="2.20592" fill="#007AFF" stroke="#A7C0EC"/>
<circle cx="253.226" cy="161.39" r="2.20592" fill="#007AFF" stroke="#A7C0EC"/>
<circle cx="253.226" cy="138.661" r="2.20592" fill="#007AFF" stroke="#A7C0EC"/>
<circle cx="253.226" cy="115.931" r="2.20592" fill="#007AFF" stroke="#A7C0EC"/>
<circle cx="253.226" cy="94.2836" r="2.20592" fill="#007AFF" stroke="#A7C0EC"/>
<circle cx="253.226" cy="71.5541" r="2.20592" fill="#007AFF" stroke="#A7C0EC"/>
<circle cx="253.226" cy="48.8241" r="2.20592" fill="#007AFF" stroke="#A7C0EC"/>
<circle cx="253.226" cy="26.0941" r="2.20592" fill="#007AFF" stroke="#A7C0EC"/>
<circle cx="253.226" cy="3.3651" r="2.20592" fill="#007AFF" stroke="#A7C0EC"/>
<circle cx="201.273" cy="184.12" r="2.20592" fill="#007AFF" stroke="#A7C0EC"/>
<circle cx="227.25" cy="173.297" r="2.20592" fill="#007AFF" stroke="#A7C0EC"/>
<circle cx="279.204" cy="161.39" r="2.20592" fill="#007AFF" stroke="#A7C0EC"/>
<circle cx="279.204" cy="138.661" r="2.20592" fill="#007AFF" stroke="#A7C0EC"/>
<circle cx="279.204" cy="115.931" r="2.20592" fill="#007AFF" stroke="#A7C0EC"/>
<circle cx="279.204" cy="94.2836" r="2.20592" fill="#007AFF" stroke="#A7C0EC"/>
<circle cx="279.204" cy="71.5541" r="2.20592" fill="#007AFF" stroke="#A7C0EC"/>
<circle cx="279.204" cy="48.8241" r="2.20592" fill="#007AFF" stroke="#A7C0EC"/>
<circle cx="279.204" cy="26.0941" r="2.20592" fill="#007AFF" stroke="#A7C0EC"/>
<circle cx="279.204" cy="3.3651" r="2.20592" fill="#007AFF" stroke="#A7C0EC"/>
<circle cx="305.181" cy="161.39" r="2.20592" fill="#007AFF" stroke="#A7C0EC"/>
<circle cx="305.181" cy="138.661" r="2.20592" fill="#007AFF" stroke="#A7C0EC"/>
<circle cx="305.181" cy="115.931" r="2.20592" fill="#007AFF" stroke="#A7C0EC"/>
<circle cx="305.181" cy="94.2836" r="2.20592" fill="#007AFF" stroke="#A7C0EC"/>
<circle cx="305.181" cy="71.5541" r="2.20592" fill="#007AFF" stroke="#A7C0EC"/>
<circle cx="305.181" cy="48.8241" r="2.20592" fill="#007AFF" stroke="#A7C0EC"/>
<circle cx="305.181" cy="26.0941" r="2.20592" fill="#007AFF" stroke="#A7C0EC"/>
<circle cx="305.181" cy="3.3651" r="2.20592" fill="#007AFF" stroke="#A7C0EC"/>
<circle cx="331.158" cy="161.39" r="2.20592" fill="#007AFF" stroke="#A7C0EC"/>
<circle cx="331.158" cy="138.661" r="2.20592" fill="#007AFF" stroke="#A7C0EC"/>
<circle cx="331.158" cy="115.931" r="2.20592" fill="#007AFF" stroke="#A7C0EC"/>
<circle cx="331.158" cy="94.2836" r="2.20592" fill="#007AFF" stroke="#A7C0EC"/>
<circle cx="331.158" cy="71.5541" r="2.20592" fill="#007AFF" stroke="#A7C0EC"/>
<circle cx="331.158" cy="48.8241" r="2.20592" fill="#007AFF" stroke="#A7C0EC"/>
<circle cx="331.158" cy="26.0941" r="2.20592" fill="#007AFF" stroke="#A7C0EC"/>
<circle cx="331.158" cy="3.3651" r="2.20592" fill="#007AFF" stroke="#A7C0EC"/>
<path opacity="0.2" d="M231.038 3.90576H19.4355V227.956H32.9651L231.038 3.90576Z" fill="white"/>
<path opacity="0.2" d="M33.5062 227.956L70.8479 185.202L196.361 3.90576H19.9766V227.956H33.5062Z" fill="#CBE0FF"/>
<path opacity="0.3" d="M19.4355 171.132L144.449 3.90576H19.4355V171.132Z" fill="#0027AF"/>
<path opacity="0.3" d="M330.616 84.001L95.7422 227.956H330.616V84.001Z" fill="#0027AF"/>
<path opacity="0.4" d="M91.1648 3.90576H19.9766V227.956H330.616V88.3305C247.563 108.354 216.823 148.402 201.183 160.308C185.543 172.214 129.455 180.332 122.984 173.838C117.806 168.642 99.6139 58.3849 91.1648 3.90576Z" fill="#0243BF"/>
</svg>
